{
.appVersion = "3151";
.formatVersion = 3;
axes = (
{
name = Weight;
tag = wght;
},
{
name = Width;
tag = wdth;
},
{
name = Slant;
tag = slnt;
}
);
classes = (
{
code = "zero one two three four five six seven eight nine ";
name = Num;
},
{
code = "zero.canadian one.canadian two.canadian three.canadian four.canadian five.canadian six.canadian seven.canadian eight.canadian nine.canadian 
";
name = Num_can;
},
{

glyphs = (
{
glyphname = idotless;
lastChange = "2023-01-13 15:56:14 +0000";
layers = (
{
layerId = "A0BEBE03-9AB7-4E04-894D-4F686A7231C4";
shapes = (
{
closed = 1;
nodes = (
(67,0,l),
(176,516,l),
(115,516,l),
(5,0,l)
);
}
);
width = 172;
}
);
note = dotlessi;
unicode = 305;
},
{
glyphname = "acuteFinal-canadian";
lastChange = "2023-01-13 15:56:14 +0000";
layers = (
{
layerId = "A0BEBE03-9AB7-4E04-894D-4F686A7231C4";
shapes = (
{
closed = 1;
nodes = (
(104,345,l),
(294,690,l),
(241,690,l),
(52,345,l)
);
}
);
width = 226;
}
);
metricRight = "=|";
note = uni141F;
unicode = 5151;
},
{
glyphname = "graveFinal-canadian";
kernLeft = mwestleft;
kernRight = mwestright;
lastChange = "2023-01-13 15:56:14 +0000";
layers = (
{
layerId = "A0BEBE03-9AB7-4E04-894D-4F686A7231C4";
shapes = (
{
closed = 1;
nodes = (
(220,345,l),
(173,690,l),
(126,690,l),
(172,345,l)
);
}
);
width = 226;
}
);
metricLeft = "=|acuteFinal-canadian";
metricRight = "=|acuteFinal-canadian";
note = uni1420;
unicode = 5152;
},
{
glyphname = "ringBottomhalfFinal-canadian";
kernLeft = mwestleft;
kernRight = mwestright;
lastChange = "2023-01-13 15:56:14 +0000";
layers = (
{
layerId = "A0BEBE03-9AB7-4E04-894D-4F686A7231C4";
shapes = (
{
closed = 1;
nodes = (
(262,339,o),
(298,379,o),
(313,449,cs),
(364,690,l),
(321,690,l),
(270,454,ls),
(259,399,o),
(237,380,o),
(195,380,cs),
(146,380,o),
(131,412,o),
(142,458,cs),
(190,690,l),
(147,690,l),
(99,461,ls),
(83,386,o),
(119,339,o),
(192,339,cs)
);
}
);
width = 318;
}
);
metricLeft = "ai-canadian";
metricRight = "==|ai-canadian";
note = uni1421;
unicode = 5153;
},
{
glyphname = "ringTophalfFinal-canadian";
lastChange = "2023-01-13 15:56:14 +0000";
layers = (
{
layerId = "A0BEBE03-9AB7-4E04-894D-4F686A7231C4";
shapes = (
{
closed = 1;
nodes = (
(117,345,l),
(167,581,ls),
(179,636,o),
(201,655,o),
(243,655,cs),
(292,655,o),
(306,623,o),
(297,577,cs),
(247,345,l),
(291,345,l),
(339,574,ls),
(355,648,o),
(319,696,o),
(245,696,cs),
(176,696,o),
(140,656,o),
(125,585,cs),
(73,345,l)
);
}
);
width = 318;
}
);
metricLeft = "ai-canadian";
metricRight = "==|ai-canadian";
note = uni1422;
unicode = 5154;
},
{
glyphname = "ringRighthalfFinal-canadian";
kernLeft = mwestleft;
kernRight = mwestright;
lastChange = "2023-01-13 15:56:14 +0000";
layers = (
{
layerId = "A0BEBE03-9AB7-4E04-894D-4F686A7231C4";
shapes = (
{
closed = 1;
nodes = (
(105,345,ls),
(250,345,o),
(291,473,o),
(291,562,cs),
(291,645,o),
(243,690,o),
(165,690,cs),
(143,690,l),
(134,647,l),
(162,647,ls),
(216,647,o),
(245,617,o),
(245,559,cs),
(245,500,o),
(226,387,o),
(110,387,cs),
(79,387,l),
(70,345,l)
);
}
);
width = 276;
}
);
metricLeft = "=|t-canadian";
metricWidth = "t-canadian";
note = uni1423;
unicode = 5155;
},
{
glyphname = "ringFinal-canadian";
kernLeft = mwestleft;
kernRight = mwestright;
lastChange = "2023-01-13 15:56:14 +0000";
layers = (
{
layerId = "A0BEBE03-9AB7-4E04-894D-4F686A7231C4";
shapes = (
{
closed = 1;
nodes = (
(355,397,o),
(415,461,o),
(415,547,cs),
(415,631,o),
(355,696,o),
(266,696,cs),
(177,696,o),
(115,632,o),
(115,547,cs),
(115,461,o),
(177,397,o),
(266,397,cs)
);
},
{
closed = 1;
nodes = (
(200,436,o),
(156,480,o),
(156,547,cs),
(156,612,o),
(200,657,o),
(266,657,cs),
(330,657,o),
(375,611,o),
(375,547,cs),
(375,480,o),
(330,436,o),
(266,436,cs)
);
}
);
width = 399;
}
);
note = uni1424;
unicode = 5156;
},
{
glyphname = "doubleacuteFinal-canadian";
lastChange = "2023-01-13 15:56:14 +0000";
layers = (
{
layerId = "A0BEBE03-9AB7-4E04-894D-4F686A7231C4";
shapes = (
{
closed = 1;
nodes = (
(103,345,l),
(293,690,l),
(242,690,l),
(52,345,l)
);
},
{
closed = 1;
nodes = (
(210,345,l),
(400,690,l),
(349,690,l),
(158,345,l)
);
}
);
width = 332;
}
);
metricLeft = "acuteFinal-canadian";
metricRight = "=|";
note = uni1425;
unicode = 5157;
},
{
glyphname = "doubleshortverticalstrokesFinal-canadian";
kernLeft = mwestleft;
kernRight = mwestright;
lastChange = "2023-01-13 15:56:14 +0000";
layers = (
{
layerId = "A0BEBE03-9AB7-4E04-894D-4F686A7231C4";
shapes = (
{
closed = 1;
nodes = (
(117,345,l),
(190,690,l),
(147,690,l),
(73,345,l)
);
},
{
closed = 1;
nodes = (
(213,345,l),
(286,690,l),
(242,690,l),
(169,345,l)
);
}
);
width = 240;
}
);
metricLeft = "pWestCree-canadian";
metricRight = "pWestCree-canadian";
note = uni1426;
unicode = 5158;
},
{
glyphname = "middledotFinal-canadian";
lastChange = "2023-01-13 15:56:14 +0000";
layers = (
{
layerId = "A0BEBE03-9AB7-4E04-894D-4F686A7231C4";
shapes = (
{
closed = 1;
nodes = (
(132,314,o),
(151,332,o),
(151,355,cs),
(151,377,o),
(132,395,o),
(110,395,cs),
(88,395,o),
(70,377,o),
(70,355,cs),
(70,332,o),
(88,314,o),
(110,314,cs)
);
}
);
width = 170;
}
);
note = uni1427;
unicode = 5159;
},
{
glyphname = "shorthorizontalstrokeFinal-canadian";
kernLeft = mwestleft;
kernRight = mwestright;
lastChange = "2023-01-13 15:56:14 +0000";
layers = (
{
layerId = "A0BEBE03-9AB7-4E04-894D-4F686A7231C4";
shapes = (
{
closed = 1;
nodes = (
(349,504,l),
(358,549,l),
(118,549,l),
(108,504,l)
);
}
);
width = 343;
}
);
metricRight = "=|";
note = uni1428;
unicode = 5160;
},
{
glyphname = "plusFinal-canadian";
kernLeft = mwestleft;
kernRight = mwestright;
lastChange = "2023-01-13 15:56:17 +0000";
layers = (
{
layerId = "A0BEBE03-9AB7-4E04-894D-4F686A7231C4";
shapes = (
{
closed = 1;
nodes = (
(229,407,l),
(254,528,l),
(354,528,l),
(364,571,l),
(264,571,l),
(289,690,l),
(247,690,l),
(222,571,l),
(122,571,l),
(113,528,l),
(213,528,l),
(187,407,l)
);
}
);
width = 344;
}
);
metricLeft = "shorthorizontalstrokeFinal-canadian";
metricRight = "shorthorizontalstrokeFinal-canadian";
note = uni1429;
unicode = 5161;
},
{
glyphname = "downtackFinal-canadian";
kernLeft = mwestleft;
kernRight = mwestright;
lastChange = "2023-01-13 15:56:14 +0000";
layers = (
{
layerId = "A0BEBE03-9AB7-4E04-894D-4F686A7231C4";
shapes = (
{
closed = 1;
nodes = (
(218,345,l),
(283,647,l),
(381,647,l),
(390,690,l),
(148,690,l),
(139,647,l),
(239,647,l),
(175,345,l)
);
}
);
width = 345;
}
);
metricLeft = "shorthorizontalstrokeFinal-canadian";
metricRight = "shorthorizontalstrokeFinal-canadian";
note = uni142A;
unicode = 5162;
},
{
glyphname = "thFinalWoodScree-canadian";
lastChange = "2023-01-13 15:56:14 +0000";
layers = (
{
layerId = "A0BEBE03-9AB7-4E04-894D-4F686A7231C4";
shapes = (
{
closed = 1;
nodes = (
(216,345,l),
(235,430,l),
(333,430,l),
(342,469,l),
(243,469,l),
(264,565,l),
(362,565,l),
(371,605,l),
(272,605,l),
(290,690,l),
(246,690,l),
(229,605,l),
(129,605,l),
(121,565,l),
(220,565,l),
(200,469,l),
(100,469,l),
(92,430,l),
(191,430,l),
(173,345,l)
);
}
);
width = 343;
}
);
metricLeft = "hyphen-canadian";
metricRight = "hyphen-canadian";
note = uni167E;
unicode = 5758;
},
{
glyphname = "ringSmallFinal-canadian";
kernLeft = mwestleft;
kernRight = mwestright;
lastChange = "2023-01-13 15:56:14 +0000";
layers = (
{
layerId = "A0BEBE03-9AB7-4E04-894D-4F686A7231C4";
shapes = (
{
closed = 1;
nodes = (
(262,535,o),
(298,571,o),
(298,619,cs),
(298,667,o),
(262,702,o),
(215,702,cs),
(168,702,o),
(131,667,o),
(131,619,cs),
(131,571,o),
(168,535,o),
(215,535,cs)
);
},
{
closed = 1;
nodes = (
(185,566,o),
(164,588,o),
(164,619,cs),
(164,649,o),
(185,671,o),
(215,671,cs),
(245,671,o),
(267,649,o),
(267,619,cs),
(267,588,o),
(245,566,o),
(215,566,cs)
);
}
);
width = 268;
}
);
note = g725;
unicode = 6366;
},
{
glyphname = "raiseddotFinal-canadian";
kernLeft = mwestleft;
kernRight = mwestright;
lastChange = "2023-01-13 15:56:14 +0000";
layers = (
{
layerId = "A0BEBE03-9AB7-4E04-894D-4F686A7231C4";
shapes = (
{
closed = 1;
nodes = (
(202,621,o),
(220,639,o),
(220,662,cs),
(220,684,o),
(202,702,o),
(180,702,cs),
(156,702,o),
(139,684,o),
(139,662,cs),
(139,639,o),
(156,621,o),
(180,621,cs)
);
}
);
width = 178;
}
);
note = g725;
unicode = 6367;
},
{
glyphname = "plusFinal-canadian.base";
lastChange = "2023-01-13 15:56:17 +0000";
layers = (
{
layerId = "A0BEBE03-9AB7-4E04-894D-4F686A7231C4";
shapes = (
{
closed = 1;
nodes = (
(143,0,l),
(168,122,l),
(269,122,l),
(278,164,l),
(178,164,l),
(203,283,l),
(162,283,l),
(137,164,l),
(36,164,l),
(27,122,l),
(128,122,l),
(102,0,l)
);
}
);
width = 344;
}
);
metricLeft = "shorthorizontalstrokeFinal-canadian";
metricRight = "shorthorizontalstrokeFinal-canadian";
note = uni1429;
},
{
glyphname = "e-canadian";
kernLeft = ecanleft;
kernRight = ecanright;
lastChange = "2023-01-13 15:56:14 +0000";
layers = (
{
anchors = (
{
name = middle_center_can;
pos = (311,454);
},
{
name = top_center_can;
pos = (363,690);
},
{
name = top_left_can;
pos = (194,690);
},
{
name = top_right_can;
pos = (534,690);
}
);
layerId = "A0BEBE03-9AB7-4E04-894D-4F686A7231C4";
shapes = (
{
closed = 1;
nodes = (
(231,0,l),
(603,670,l),
(608,690,l),
(124,690,l),
(120,670,l),
(207,0,l)
);
},
{
closed = 1;
nodes = (
(248,66,l),
(179,654,l),
(163,639,l),
(542,639,l),
(531,654,l),
(213,66,l)
);
}
);
width = 538;
}
);
metricRight = "=|";
note = uni1401;
unicode = 5121;
},
{
glyphname = "i-canadian";
kernLeft = icanleft;
kernRight = icanright;
lastChange = "2023-01-13 15:56:14 +0000";
layers = (
{
anchors = (
{
name = middle_center_can;
pos = (305,403);
},
{
name = top_center_can;
pos = (365,690);
},
{
name = top_left_can;
pos = (193,690);
},
{
name = top_right_can;
pos = (533,690);
}
);
layerId = "A0BEBE03-9AB7-4E04-894D-4F686A7231C4";
shapes = (
{
closed = 1;
nodes = (
(353,690,l),
(-19,19,l),
(-23,0,l),
(460,0,l),
(465,19,l),
(377,690,l)
);
},
{
closed = 1;
nodes = (
(335,624,l),
(406,36,l),
(420,51,l),
(43,51,l),
(52,36,l),
(370,624,l)
);
}
);
width = 538;
}
);
metricLeft = "e-canadian";
metricWidth = "e-canadian";
note = uni1403;
unicode = 5123;
},
{
glyphname = "o-canadian";
kernLeft = ocanleft;
kernRight = ocanright;
lastChange = "2023-01-13 15:56:14 +0000";
layers = (
{
anchors = (
{
name = middle_center_can;
pos = (241,352);
},
{
name = top_center_can;
pos = (370,690);
},
{
name = top_double;
pos = (446,690);
},
{
name = top_left_can;
pos = (184,690);
},
{
name = top_right_can;
pos = (554,690);
}
);
layerId = "A0BEBE03-9AB7-4E04-894D-4F686A7231C4";
shapes = (
{
closed = 1;
nodes = (
(30,0,l),
(510,332,l),
(516,357,l),
(177,690,l),
(159,690,l),
(13,0,l)
);
},
{
closed = 1;
nodes = (
(195,618,l),
(172,628,l),
(464,340,l),
(464,359,l),
(58,76,l),
(78,71,l)
);
}
);
width = 521;
}
);
metricLeft = "nunavuth-canadian";
note = uni1405;
unicode = 5125;
},
{
glyphname = "eeCarrier-canadian";
lastChange = "2023-01-13 15:56:14 +0000";
layers = (
{
layerId = "A0BEBE03-9AB7-4E04-894D-4F686A7231C4";
shapes = (
{
closed = 1;
nodes = (
(30,0,l),
(510,332,l),
(516,357,l),
(177,690,l),
(159,690,l),
(13,0,l)
);
},
{
closed = 1;
nodes = (
(191,618,l),
(181,623,l),
(467,340,l),
(471,362,l),
(67,79,l),
(74,71,l)
);
},
{
closed = 1;
nodes = (
(231,256,l),
(270,440,l),
(242,440,l),
(202,256,l)
);
}
);
width = 521;
}
);
metricLeft = "nunavuth-canadian";
metricRight = "o-canadian";
note = uni1408;
unicode = 5128;
},
{
glyphname = "a-canadian";
kernLeft = acanleft;
kernRight = acanright;
lastChange = "2023-01-13 15:56:17 +0000";
layers = (
{
anchors = (
{
name = middle_center_can;
pos = (326,345);
},
{
name = top_center_can;
pos = (330,690);
},
{
name = top_left_can;
pos = (156,690);
},
{
name = top_right_can;
pos = (527,690);
}
);
layerId = "A0BEBE03-9AB7-4E04-894D-4F686A7231C4";
shapes = (
{
closed = 1;
nodes = (
(537,690,l),
(56,357,l),
(51,332,l),
(390,0,l),
(408,0,l),
(554,690,l)
);
},
{
closed = 1;
nodes = (
(372,71,l),
(395,62,l),
(103,350,l),
(103,330,l),
(509,613,l),
(489,619,l)
);
}
);
width = 520;
}
);
metricRight = "nunavuth-canadian";
note = uni140A;
unicode = 5130;
},
{
glyphname = "ai-canadian";
lastChange = "2023-01-13 15:56:14 +0000";
layers = (
{
layerId = "A0BEBE03-9AB7-4E04-894D-4F686A7231C4";
shapes = (
{
closed = 1;
nodes = (
(230,339,o),
(270,371,o),
(285,423,c),
(271,423,l),
(271,369,o),
(301,339,o),
(355,339,cs),
(419,339,o),
(457,378,o),
(474,463,cs),
(523,690,l),
(481,690,l),
(433,463,ls),
(420,406,o),
(398,380,o),
(356,380,cs),
(311,380,o),
(295,407,o),
(306,462,cs),
(355,690,l),
(314,690,l),
(267,467,ls),
(254,408,o),
(228,380,o),
(187,380,cs),
(147,380,o),
(128,409,o),
(139,458,cs),
(188,690,l),
(147,690,l),
(98,454,ls),
(83,388,o),
(115,339,o),
(181,339,cs)
);
}
);
width = 476;
}
);
metricRight = "=|";
note = uni141C;
unicode = 5148;
},
{
glyphname = "ycreew-canadian";
lastChange = "2023-01-13 15:56:14 +0000";
layers = (
{
layerId = "A0BEBE03-9AB7-4E04-894D-4F686A7231C4";
shapes = (
{
closed = 1;
nodes = (
(342,510,o),
(368,545,o),
(368,603,cs),
(368,662,o),
(342,696,o),
(302,696,cs),
(264,696,o),
(238,662,o),
(238,603,cs),
(238,545,o),
(264,510,o),
(303,510,cs)
);
},
{
closed = 1;
nodes = (
(200,339,o),
(226,374,o),
(226,432,cs),
(226,491,o),
(200,525,o),
(161,525,cs),
(122,525,o),
(96,491,o),
(96,432,cs),
(96,374,o),
(122,339,o),
(161,339,cs)
);
},
{
closed = 1;
nodes = (
(137,366,o),
(125,387,o),
(125,432,cs),
(125,476,o),
(137,497,o),
(161,497,cs),
(185,497,o),
(198,476,o),
(198,432,cs),
(198,387,o),
(185,366,o),
(161,366,cs)
);
},
{
closed = 1;
nodes = (
(279,537,o),
(267,558,o),
(267,603,cs),
(267,647,o),
(279,668,o),
(303,668,cs),
(327,668,o),
(340,647,o),
(340,603,cs),
(340,558,o),
(327,537,o),
(303,537,cs)
);
}
);
width = 344;
}
);
metricRight = "=|";
note = uni141D;
unicode = 5149;
},
{
glyphname = "glottalstop-canadian";
lastChange = "2023-01-13 15:56:17 +0000";
layers = (
{
layerId = "A0BEBE03-9AB7-4E04-894D-4F686A7231C4";
shapes = (
{
closed = 1;
nodes = (
(312,345,l),
(315,356,l),
(271,690,l),
(258,690,l),
(72,356,l),
(71,345,l)
);
},
{
closed = 1;
nodes = (
(268,640,l),
(244,644,l),
(277,363,l),
(289,381,l),
(110,381,l),
(117,363,l)
);
}
);
width = 335;
}
);
metricRight = "=|";
note = uni141E;
unicode = 5150;
},
{
glyphname = "pe-canadian";
kernLeft = ecanleft;
kernRight = ecanright;
lastChange = "2023-01-13 15:56:14 +0000";
layers = (
{
anchors = (
{
name = middle_center_can;
pos = (312,454);
},
{
name = top_center_can;
pos = (366,690);
},
{
name = top_left_can;
pos = (194,690);
},
{
name = top_right_can;
pos = (534,690);
}
);
layerId = "A0BEBE03-9AB7-4E04-894D-4F686A7231C4";
shapes = (
{
closed = 1;
nodes = (
(231,0,l),
(603,670,l),
(608,690,l),
(548,690,l),
(211,72,l),
(252,72,l),
(176,690,l),
(124,690,l),
(120,670,l),
(207,0,l)
);
}
);
width = 538;
}
);
metricLeft = "e-canadian";
metricRight = "e-canadian";
note = uni142F;
unicode = 5167;
},
{
glyphname = "pi-canadian";
kernLeft = icanleft;
kernRight = icanright;
lastChange = "2023-01-13 15:56:14 +0000";
layers = (
{
anchors = (
{
name = middle_center_can;
pos = (307,403);
},
{
name = top_center_can;
pos = (365,690);
},
{
name = top_left_can;
pos = (193,690);
},
{
name = top_right_can;
pos = (533,690);
}
);
layerId = "A0BEBE03-9AB7-4E04-894D-4F686A7231C4";
shapes = (
{
closed = 1;
nodes = (
(353,690,l),
(-19,19,l),
(-23,0,l),
(36,0,l),
(374,617,l),
(331,617,l),
(408,0,l),
(460,0,l),
(464,19,l),
(377,690,l)
);
}
);
width = 537;
}
);
metricLeft = "e-canadian";
metricRight = "e-canadian";
note = uni1431;
unicode = 5169;
},
{
glyphname = "po-canadian";
kernLeft = ocanleft;
kernRight = ocanright;
lastChange = "2023-01-13 15:56:14 +0000";
layers = (
{
anchors = (
{
name = middle_center_can;
pos = (189,353);
},
{
name = top_center_can;
pos = (348,690);
},
{
name = top_double;
pos = (431,690);
},
{
name = top_left_can;
pos = (165,690);
},
{
name = top_right_can;
pos = (527,690);
}
);
layerId = "A0BEBE03-9AB7-4E04-894D-4F686A7231C4";
name = "Thin Slanted";
shapes = (
{
closed = 1;
nodes = (
(9,0,l),
(484,332,l),
(490,357,l),
(156,690,l),
(138,690,l),
(128,639,l),
(432,336,l),
(438,367,l),
(5,64,l),
(-9,0,l)
);
}
);
width = 495;
}
);
metricRight = "o-canadian";
note = uni1433;
unicode = 5171;
},
{
glyphname = "pa-canadian";
kernLeft = acanleft;
kernRight = acanright;
lastChange = "2023-01-13 15:56:17 +0000";
layers = (
{
anchors = (
{
name = middle_center_can;
pos = (264,345);
},
{
name = top_center_can;
pos = (342,690);
},
{
name = top_left_can;
pos = (157,690);
},
{
name = top_right_can;
pos = (523,690);
}
);
layerId = "A0BEBE03-9AB7-4E04-894D-4F686A7231C4";
shapes = (
{
closed = 1;
nodes = (
(531,690,l),
(57,357,l),
(51,332,l),
(384,0,l),
(402,0,l),
(412,50,l),
(109,354,l),
(103,323,l),
(535,626,l),
(549,690,l)
);
}
);
width = 493;
}
);
metricRight = "=|po-canadian";
note = uni1438;
unicode = 5176;
},
{
glyphname = "p-canadian";
kernLeft = mwestleft;
kernRight = mwestright;
lastChange = "2023-01-13 15:56:14 +0000";
layers = (
{
layerId = "A0BEBE03-9AB7-4E04-894D-4F686A7231C4";
shapes = (
{
closed = 1;
nodes = (
(282,345,l),
(291,383,l),
(145,529,l),
(139,498,l),
(346,643,l),
(355,690,l),
(346,690,l),
(112,526,l),
(108,509,l),
(272,345,l)
);
}
);
width = 309;
}
);
note = uni1449;
unicode = 5193;
},
{
glyphname = "pWestCree-canadian";
kernLeft = mwestleft;
kernRight = mwestright;
lastChange = "2023-01-13 15:56:14 +0000";
layers = (
{
layerId = "A0BEBE03-9AB7-4E04-894D-4F686A7231C4";
shapes = (
{
closed = 1;
nodes = (
(117,345,l),
(190,690,l),
(147,690,l),
(73,345,l)
);
}
);
width = 144;
}
);
metricRight = "=|";
note = uni144A;
unicode = 5194;
},
{
color = 6;
glyphname = "hCarrier-canadian";
lastChange = "2023-01-13 15:56:14 +0000";
layers = (
{
layerId = "A0BEBE03-9AB7-4E04-894D-4F686A7231C4";
shapes = (
{
closed = 1;
nodes = (
(83,183,l),
(115,334,ls),
(123,375,o),
(145,394,o),
(173,394,cs),
(207,394,o),
(219,371,o),
(211,331,cs),
(179,183,l),
(223,183,l),
(255,334,ls),
(268,393,o),
(241,434,o),
(187,434,cs),
(151,434,o),
(121,410,o),
(112,372,c),
(122,367,l),
(156,527,l),
(112,527,l),
(39,183,l)
);
}
);
width = 269;
}
);
metricLeft = "pWestCree-canadian";
note = uni144B;
unicode = 5195;
},
{
glyphname = "te-canadian";
lastChange = "2023-01-13 15:56:14 +0000";
layers = (
{
anchors = (
{
name = middle_center_can;
pos = (296,345);
},
{
name = top_center_can;
pos = (369,690);
},
{
name = top_left_can;
pos = (187,690);
},
{
name = top_right_can;
pos = (551,690);
}
);
layerId = "A0BEBE03-9AB7-4E04-894D-4F686A7231C4";
shapes = (
{
closed = 1;
nodes = (
(372,-13,o),
(448,60,o),
(480,213,cs),
(582,690,l),
(521,690,l),
(421,219,ls),
(395,99,o),
(342,45,o),
(250,45,cs),
(134,45,o),
(94,110,o),
(122,242,cs),
(217,690,l),
(156,690,l),
(61,244,ls),
(27,82,o),
(96,-13,o),
(247,-13,cs)
);
}
);
width = 544;
}
);
metricRight = "=|";
note = uni144C;
unicode = 5196;
},
{
glyphname = "ti-canadian";
lastChange = "2023-01-13 15:56:14 +0000";
layers = (
{
anchors = (
{
name = middle_center_can;
pos = (295,345);
},
{
name = middle_right_can;
pos = (598,345);
},
{
name = top_center_can;
pos = (368,690);
},
{
name = top_left_can;
pos = (187,690);
},
{
name = top_right_can;
pos = (551,690);
}
);
layerId = "A0BEBE03-9AB7-4E04-894D-4F686A7231C4";
shapes = (
{
closed = 1;
nodes = (
(71,0,l),
(170,470,ls),
(196,591,o),
(250,644,o),
(341,644,cs),
(457,644,o),
(497,580,o),
(469,448,cs),
(374,0,l),
(435,0,l),
(529,445,ls),
(564,608,o),
(496,702,o),
(344,702,cs),
(219,702,o),
(143,630,o),
(110,477,cs),
(9,0,l)
);
}
);
width = 544;
}
);
metricLeft = "te-canadian";
metricRight = "te-canadian";
note = uni144E;
unicode = 5198;
},
{
glyphname = "to-canadian";
kernLeft = toleft;
lastChange = "2023-01-13 15:56:14 +0000";
layers = (
{
anchors = (
{
name = middle_center_can;
pos = (215,345);
},
{
name = middle_right_can;
pos = (516,345);
},
{
name = top_center_can;
pos = (299,690);
},
{
name = top_double;
pos = (344,690);
},
{
name = top_left_can;
pos = (165,690);
},
{
name = top_right_can;
pos = (472,690);
}
);
layerId = "A0BEBE03-9AB7-4E04-894D-4F686A7231C4";
shapes = (
{
closed = 1;
nodes = (
(88,0,ls),
(368,0,o),
(439,295,o),
(439,458,cs),
(439,611,o),
(358,690,o),
(208,690,cs),
(138,690,l),
(127,633,l),
(196,633,ls),
(318,633,o),
(377,577,o),
(377,457,cs),
(377,325,o),
(321,57,o),
(91,57,cs),
(4,57,l),
(-9,0,l)
);
}
);
width = 453;
}
);
note = uni1450;
unicode = 5200;
},
{
glyphname = "ta-canadian";
kernRight = taright;
lastChange = "2023-01-13 15:56:14 +0000";
layers = (
{
anchors = (
{
name = middle_center_can;
pos = (282,345);
},
{
name = top_center_can;
pos = (346,690);
},
{
name = top_left_can;
pos = (171,690);
},
{
name = top_right_can;
pos = (481,690);
}
);
layerId = "A0BEBE03-9AB7-4E04-894D-4F686A7231C4";
shapes = (
{
closed = 1;
nodes = (
(361,0,l),
(373,57,l),
(300,57,ls),
(179,57,o),
(123,113,o),
(123,233,cs),
(123,369,o),
(179,633,o),
(406,633,cs),
(496,633,l),
(508,690,l),
(409,690,ls),
(132,690,o),
(61,399,o),
(61,231,cs),
(61,78,o),
(138,0,o),
(289,0,cs)
);
}
);
width = 453;
}
);
metricLeft = "=|to-canadian";
metricRight = "=|to-canadian";
note = uni1455;
unicode = 5205;
},
{
glyphname = "t-canadian";
kernLeft = mwestleft;
kernRight = mwestright;
lastChange = "2023-01-13 15:56:14 +0000";
layers = (
{
layerId = "A0BEBE03-9AB7-4E04-894D-4F686A7231C4";
shapes = (
{
closed = 1;
nodes = (
(252,345,l),
(262,387,l),
(233,387,ls),
(177,387,o),
(149,417,o),
(149,474,cs),
(149,547,o),
(178,647,o),
(286,647,cs),
(316,647,l),
(326,690,l),
(293,690,ls),
(151,690,o),
(105,570,o),
(105,472,cs),
(105,389,o),
(150,345,o),
(230,345,cs)
);
}
);
width = 276;
}
);
note = uni1466;
unicode = 5222;
},
{
glyphname = "ke-canadian";
lastChange = "2023-01-13 15:56:14 +0000";
layers = (
{
anchors = (
{
name = middle_center_can;
pos = (281,441);
},
{
name = top_center_can;
pos = (318,690);
},
{
name = top_left_can;
pos = (180,690);
},
{
name = top_right_can;
pos = (458,690);
}
);
layerId = "A0BEBE03-9AB7-4E04-894D-4F686A7231C4";
shapes = (
{
closed = 1;
nodes = (
(341,0,l),
(434,439,ls),
(461,565,o),
(445,702,o),
(305,702,cs),
(139,702,o),
(92,484,o),
(92,368,cs),
(92,264,o),
(136,205,o),
(221,205,cs),
(284,205,o),
(329,241,o),
(360,320,c),
(348,320,l),
(279,0,l)
);
},
{
closed = 1;
nodes = (
(180,259,o),
(151,297,o),
(151,370,cs),
(151,448,o),
(185,648,o),
(300,648,cs),
(357,648,o),
(386,611,o),
(386,538,cs),
(386,460,o),
(353,259,o),
(236,259,cs)
);
}
);
width = 450;
}
);
metricRight = "te-canadian";
note = uni146B;
unicode = 5227;
},
{
glyphname = "ki-canadian";
lastChange = "2023-01-13 15:56:17 +0000";
layers = (
{
anchors = (
{
name = middle_center_can;
pos = (287,441);
},
{
name = top_center_can;
pos = (325,690);
},
{
name = top_left_can;
pos = (186,690);
},
{
name = top_right_can;
pos = (464,690);
}
);
layerId = "A0BEBE03-9AB7-4E04-894D-4F686A7231C4";
shapes = (
{
closed = 1;
nodes = (
(71,0,l),
(146,353,l),
(131,323,l),
(131,253,o),
(173,205,o),
(243,205,cs),
(403,205,o),
(450,426,o),
(450,536,cs),
(450,643,o),
(403,702,o),
(312,702,cs),
(210,702,o),
(142,625,o),
(109,471,cs),
(9,0,l)
);
},
{
closed = 1;
nodes = (
(185,259,o),
(157,297,o),
(157,369,cs),
(157,448,o),
(193,648,o),
(307,648,cs),
(364,648,o),
(392,611,o),
(392,538,cs),
(392,456,o),
(356,259,o),
(242,259,cs)
);
}
);
width = 449;
}
);
metricLeft = "te-canadian";
metricRight = "=|ke-canadian";
note = uni146D;
unicode = 5229;
},
{
glyphname = "ko-canadian";
lastChange = "2023-01-13 15:56:14 +0000";
layers = (
{
anchors = (
{
name = middle_center_can;
pos = (270,397);
},
{
name = top_center_can;
pos = (319,690);
},
{
name = top_double;
pos = (457,690);
},
{
name = top_left_can;
pos = (181,690);
},
{
name = top_right_can;
pos = (457,690);
}
);
layerId = "A0BEBE03-9AB7-4E04-894D-4F686A7231C4";
shapes = (
{
closed = 1;
nodes = (
(288,-13,o),
(355,65,o),
(387,218,cs),
(488,690,l),
(426,690,l),
(351,337,l),
(365,367,l),
(365,437,o),
(324,485,o),
(253,485,cs),
(94,485,o),
(45,265,o),
(45,154,cs),
(45,47,o),
(94,-13,o),
(185,-13,cs)
);
},
{
closed = 1;
nodes = (
(132,42,o),
(104,79,o),
(104,152,cs),
(104,231,o),
(140,431,o),
(254,431,cs),
(311,431,o),
(339,393,o),
(339,321,cs),
(339,236,o),
(305,42,o),
(189,42,cs)
);
}
);
width = 450;
}
);
metricLeft = "ke-canadian";
metricRight = "te-canadian";
note = uni146F;
unicode = 5231;
},
{
glyphname = "ka-canadian";
lastChange = "2023-01-13 15:56:14 +0000";
layers = (
{
anchors = (
{
name = middle_center_can;
pos = (276,398);
},
{
name = top_center_can;
pos = (324,690);
},
{
name = top_left_can;
pos = (186,690);
},
{
name = top_right_can;
pos = (463,690);
}
);
layerId = "A0BEBE03-9AB7-4E04-894D-4F686A7231C4";
shapes = (
{
closed = 1;
nodes = (
(357,-13,o),
(405,206,o),
(405,322,cs),
(405,426,o),
(359,485,o),
(274,485,cs),
(216,485,o),
(171,449,o),
(136,370,c),
(149,370,l),
(217,690,l),
(156,690,l),
(63,251,ls),
(27,82,o),
(76,-13,o),
(190,-13,cs)
);
},
{
closed = 1;
nodes = (
(139,42,o),
(111,79,o),
(111,152,cs),
(111,230,o),
(144,431,o),
(260,431,cs),
(317,431,o),
(345,393,o),
(345,320,cs),
(345,241,o),
(312,42,o),
(196,42,cs)
);
}
);
width = 450;
}
);
metricLeft = "te-canadian";
metricRight = "==|ke-canadian";
note = uni1472;
unicode = 5234;
},
{
glyphname = "k-canadian";
kernLeft = mwestleft;
kernRight = mwestright;
lastChange = "2023-01-13 15:56:14 +0000";
layers = (
{
layerId = "A0BEBE03-9AB7-4E04-894D-4F686A7231C4";
shapes = (
{
closed = 1;
nodes = (
(264,339,o),
(292,456,o),
(292,513,cs),
(292,567,o),
(267,601,o),
(223,601,cs),
(185,601,o),
(155,570,o),
(143,527,c),
(156,527,l),
(190,690,l),
(147,690,l),
(101,477,ls),
(89,419,o),
(95,339,o),
(174,339,cs)
);
},
{
closed = 1;
nodes = (
(151,375,o),
(138,394,o),
(138,429,cs),
(138,468,o),
(156,565,o),
(213,565,cs),
(238,565,o),
(250,546,o),
(250,512,cs),
(250,471,o),
(233,375,o),
(176,375,cs)
);
}
);
width = 278;
}
);
note = uni1483;
unicode = 5251;
},
{
glyphname = "kw-canadian";
kernLeft = mwestleft;
kernRight = mwestright;
lastChange = "2023-01-13 15:56:17 +0000";
layers = (
{
layerId = "A0BEBE03-9AB7-4E04-894D-4F686A7231C4";
shapes = (
{
closed = 1;
nodes = (
(220,338,o),
(258,380,o),
(275,465,cs),
(323,690,l),
(279,690,l),
(243,520,l),
(258,527,l),
(259,572,o),
(234,600,o),
(195,600,cs),
(114,600,o),
(86,485,o),
(86,431,cs),
(86,373,o),
(114,338,o),
(164,338,cs)
);
},
{
closed = 1;
nodes = (
(139,375,o),
(126,394,o),
(126,428,cs),
(126,467,o),
(144,564,o),
(200,564,cs),
(225,564,o),
(239,544,o),
(239,510,cs),
(239,476,o),
(223,375,o),
(164,375,cs)
);
}
);
width = 276;
}
);
metricLeft = "=|k-canadian";
metricRight = "=|k-canadian";
note = uni1484;
unicode = 5252;
},
{
glyphname = "ce-canadian";
kernLeft = celeft;
lastChange = "2023-01-13 15:56:14 +0000";
layers = (
{
anchors = (
{
name = middle_center_can;
pos = (273,420);
},
{
name = top_center_can;
pos = (317,690);
},
{
name = top_left_can;
pos = (180,690);
},
{
name = top_right_can;
pos = (453,690);
}
);
layerId = "A0BEBE03-9AB7-4E04-894D-4F686A7231C4";
shapes = (
{
closed = 1;
nodes = (
(336,0,l),
(438,474,ls),
(468,619,o),
(411,702,o),
(300,702,cs),
(196,702,o),
(137,636,o),
(105,487,cs),
(85,391,l),
(146,391,l),
(168,496,ls),
(191,602,o),
(230,647,o),
(294,647,cs),
(367,647,o),
(402,594,o),
(379,485,cs),
(275,0,l)
);
}
);
width = 446;
}
);
metricRight = "te-canadian";
note = uni1489;
unicode = 5257;
},
{
glyphname = "ci-canadian";
kernRight = ciright;
lastChange = "2023-01-13 15:56:14 +0000";
layers = (
{
anchors = (
{
name = middle_center_can;
pos = (281,420);
},
{
name = top_center_can;
pos = (325,690);
},
{
name = top_left_can;
pos = (187,690);
},
{
name = top_right_can;
pos = (462,690);
}
);
layerId = "A0BEBE03-9AB7-4E04-894D-4F686A7231C4";
shapes = (
{
closed = 1;
nodes = (
(71,0,l),
(176,496,ls),
(198,602,o),
(237,647,o),
(301,647,cs),
(375,647,o),
(410,594,o),
(386,485,cs),
(366,391,l),
(427,391,l),
(444,474,ls),
(476,619,o),
(418,702,o),
(308,702,cs),
(203,702,o),
(144,636,o),
(113,487,cs),
(9,0,l)
);
}
);
width = 446;
}
);
metricLeft = "te-canadian";
metricRight = "=|ce-canadian";
note = uni148B;
unicode = 5259;
},
{
glyphname = "co-canadian";
kernLeft = coleft;
lastChange = "2023-01-13 15:56:17 +0000";
layers = (
{
anchors = (
{
name = middle_center_can;
pos = (275,420);
},
{
name = top_center_can;
pos = (317,690);
},
{
name = top_double;
pos = (454,690);
},
{
name = top_left_can;
pos = (181,690);
},
{
name = top_right_can;
pos = (454,690);
}
);
layerId = "A0BEBE03-9AB7-4E04-894D-4F686A7231C4";
shapes = (
{
closed = 1;
nodes = (
(290,-13,o),
(349,54,o),
(381,203,cs),
(484,690,l),
(423,690,l),
(318,194,ls),
(295,88,o),
(257,43,o),
(192,43,cs),
(118,43,o),
(84,96,o),
(107,205,cs),
(128,298,l),
(67,298,l),
(48,215,ls),
(17,71,o),
(75,-13,o),
(186,-13,cs)
);
}
);
width = 447;
}
);
metricLeft = "ce-canadian";
metricRight = "te-canadian";
note = uni148D;
unicode = 5261;
},
{
glyphname = "ca-canadian";
kernRight = caright;
lastChange = "2023-01-13 15:56:17 +0000";
layers = (
{
anchors = (
{
name = middle_center_can;
pos = (282,420);
},
{
name = top_center_can;
pos = (325,690);
},
{
name = top_left_can;
pos = (187,690);
},
{
name = top_right_can;
pos = (460,690);
}
);
layerId = "A0BEBE03-9AB7-4E04-894D-4F686A7231C4";
shapes = (
{
closed = 1;
nodes = (
(297,-13,o),
(355,54,o),
(386,203,cs),
(407,298,l),
(346,298,l),
(324,194,ls),
(300,88,o),
(263,43,o),
(199,43,cs),
(125,43,o),
(91,96,o),
(114,205,cs),
(217,690,l),
(156,690,l),
(55,215,ls),
(24,71,o),
(82,-13,o),
(192,-13,cs)
);
}
);
width = 446;
}
);
metricLeft = "te-canadian";
metricRight = "=|ce-canadian";
note = uni1490;
unicode = 5264;
},
{
glyphname = "c-canadian";
kernLeft = mwestleft;
kernRight = mwestright;
lastChange = "2023-01-13 15:56:14 +0000";
layers = (
{
layerId = "A0BEBE03-9AB7-4E04-894D-4F686A7231C4";
shapes = (
{
closed = 1;
nodes = (
(233,339,o),
(270,381,o),
(283,449,cs),
(291,485,l),
(250,485,l),
(242,443,ls),
(232,402,o),
(211,377,o),
(179,377,cs),
(142,377,o),
(131,410,o),
(140,452,cs),
(190,690,l),
(147,690,l),
(99,460,ls),
(84,394,o),
(109,339,o),
(177,339,cs)
);
}
);
width = 270;
}
);
note = uni14A1;
unicode = 5281;
},
{
glyphname = "thSayisi-canadian";
lastChange = "2023-01-13 15:56:14 +0000";
layers = (
{
layerId = "A0BEBE03-9AB7-4E04-894D-4F686A7231C4";
shapes = (
{
closed = 1;
nodes = (
(216,339,o),
(250,381,o),
(266,451,cs),
(317,690,l),
(272,690,l),
(221,449,ls),
(211,397,o),
(189,377,o),
(156,377,cs),
(121,377,o),
(109,410,o),
(119,453,cs),
(126,485,l),
(85,485,l),
(79,458,ls),
(67,391,o),
(92,339,o),
(159,339,cs)
);
}
);
width = 270;
}
);
metricLeft = "=|c-canadian";
metricRight = "=|c-canadian";
note = uni14A2;
unicode = 5282;
},
{
glyphname = "me-canadian";
kernLeft = meleft;
lastChange = "2023-01-13 15:56:17 +0000";
layers = (
{
anchors = (
{
name = middle_center_can;
pos = (177,345);
},
{
name = top_center_can;
pos = (282,690);
},
{
name = top_left_can;
pos = (160,690);
},
{
name = top_right_can;
pos = (401,690);
}
);
layerId = "A0BEBE03-9AB7-4E04-894D-4F686A7231C4";
shapes = (
{
closed = 1;
nodes = (
(285,0,l),
(432,690,l),
(130,690,l),
(118,633,l),
(358,633,l),
(224,0,l)
);
}
);
width = 397;
}
);
metricRight = "nunavuth-canadian";
note = uni14A3;
unicode = 5283;
},
{
glyphname = "mi-canadian";
kernRight = miright;
lastChange = "2023-01-13 15:56:17 +0000";
layers = (
{
anchors = (
{
name = middle_center_can;
pos = (269,345);
},
{
name = top_center_can;
pos = (310,690);
},
{
name = top_left_can;
pos = (190,690);
},
{
name = top_right_can;
pos = (431,690);
}
);
layerId = "A0BEBE03-9AB7-4E04-894D-4F686A7231C4";
shapes = (
{
closed = 1;
nodes = (
(73,0,l),
(209,633,l),
(449,633,l),
(462,690,l),
(159,690,l),
(13,0,l)
);
}
);
width = 398;
}
);
metricLeft = "nunavuth-canadian";
metricRight = "=|me-canadian";
note = uni14A5;
unicode = 5285;
},
{
glyphname = "mo-canadian";
kernLeft = moleft;
lastChange = "2023-01-13 15:56:17 +0000";
layers = (
{
anchors = (
{
name = middle_center_can;
pos = (177,345);
},
{
name = top_center_can;
pos = (282,690);
},
{
name = top_double;
pos = (402,690);
},
{
name = top_left_can;
pos = (160,690);
},
{
name = top_right_can;
pos = (401,690);
}
);
layerId = "A0BEBE03-9AB7-4E04-894D-4F686A7231C4";
shapes = (
{
closed = 1;
nodes = (
(285,0,l),
(432,690,l),
(371,690,l),
(236,57,l),
(-5,57,l),
(-16,0,l)
);
}
);
width = 397;
}
);
metricLeft = "me-canadian";
metricRight = "nunavuth-canadian";
note = uni14A7;
unicode = 5287;
},
{
glyphname = "ma-canadian";
kernRight = maright;
lastChange = "2023-01-13 15:56:17 +0000";
layers = (
{
anchors = (
{
name = middle_center_can;
pos = (269,345);
},
{
name = top_center_can;
pos = (310,690);
},
{
name = top_left_can;
pos = (190,690);
},
{
name = top_right_can;
pos = (430,690);
}
);
layerId = "A0BEBE03-9AB7-4E04-894D-4F686A7231C4";
shapes = (
{
closed = 1;
nodes = (
(315,0,l),
(327,57,l),
(86,57,l),
(220,690,l),
(159,690,l),
(13,0,l)
);
}
);
width = 398;
}
);
metricLeft = "nunavuth-canadian";
metricRight = "=|me-canadian";
note = uni14AA;
unicode = 5290;
},
{
glyphname = "m-canadian";
kernLeft = mwestleft;
kernRight = mwestright;
lastChange = "2023-01-13 15:56:14 +0000";
layers = (
{
layerId = "A0BEBE03-9AB7-4E04-894D-4F686A7231C4";
shapes = (
{
closed = 1;
nodes = (
(240,345,l),
(249,387,l),
(127,387,l),
(190,690,l),
(147,690,l),
(73,345,l)
);
}
);
width = 245;
}
);
metricLeft = "pWestCree-canadian";
note = uni14BB;
unicode = 5307;
},
{
glyphname = "mh-canadian";
kernLeft = mwestleft;
kernRight = mwestright;
lastChange = "2023-01-13 15:56:14 +0000";
layers = (
{
layerId = "A0BEBE03-9AB7-4E04-894D-4F686A7231C4";
shapes = (
{
closed = 1;
nodes = (
(218,345,l),
(292,690,l),
(249,690,l),
(185,387,l),
(61,387,l),
(51,345,l)
);
}
);
width = 245;
}
);
metricLeft = "=|m-canadian";
metricRight = "=|m-canadian";
note = uni14BD;
unicode = 5309;
},
{
glyphname = "mAthapascan-canadian";
lastChange = "2023-01-13 15:56:14 +0000";
layers = (
{
layerId = "A0BEBE03-9AB7-4E04-894D-4F686A7231C4";
shapes = (
{
closed = 1;
nodes = (
(252,345,l),
(261,384,l),
(130,384,l),
(128,361,l),
(236,487,ls),
(270,527,o),
(296,567,o),
(296,614,cs),
(296,666,o),
(268,696,o),
(218,696,cs),
(169,696,o),
(131,663,o),
(118,578,c),
(158,578,l),
(167,639,o),
(189,661,o),
(216,661,cs),
(242,661,o),
(255,646,o),
(255,616,cs),
(255,578,o),
(237,545,o),
(203,506,cs),
(84,367,l),
(79,345,l)
);
}
);
width = 269;
}
);
note = uni14BE;
unicode = 5310;
},
{
glyphname = "ne-canadian";
kernLeft = neleft;
lastChange = "2023-01-13 15:56:14 +0000";
layers = (
{
anchors = (
{
name = middle_center_can;
pos = (391,245);
},
{
name = top_center_can;
pos = (436,491);
},
{
name = top_left_can;
pos = (134,491);
},
{
name = top_right_can;
pos = (586,491);
}
);
layerId = "A0BEBE03-9AB7-4E04-894D-4F686A7231C4";
shapes = (
{
closed = 1;
nodes = (
(520,-13,o),
(567,197,o),
(567,301,cs),
(567,411,o),
(513,472,o),
(412,472,cs),
(99,472,l),
(88,416,l),
(341,416,l),
(340,439,l),
(235,401,o),
(207,243,o),
(207,158,cs),
(207,50,o),
(261,-13,o),
(356,-13,cs)
);
},
{
closed = 1;
nodes = (
(298,42,o),
(267,81,o),
(267,157,cs),
(267,233,o),
(296,418,o),
(416,418,cs),
(476,418,o),
(507,379,o),
(507,303,cs),
(507,228,o),
(479,42,o),
(357,42,cs)
);
}
);
width = 615;
}
);
metricRight = "=|ke-canadian";
note = uni14C0;
unicode = 5312;
},
{
glyphname = "ni-canadian";
kernRight = niright;
lastChange = "2023-01-13 15:56:14 +0000";
layers = (
{
anchors = (
{
name = middle_center_can;
pos = (227,245);
},
{
name = top_center_can;
pos = (288,491);
},
{
name = top_left_can;
pos = (136,491);
},
{
name = top_right_can;
pos = (589,491);
}
);
layerId = "A0BEBE03-9AB7-4E04-894D-4F686A7231C4";
shapes = (
{
closed = 1;
nodes = (
(359,-13,o),
(406,197,o),
(406,301,cs),
(406,360,o),
(388,403,o),
(355,425,c),
(350,416,l),
(605,416,l),
(617,472,l),
(263,472,ls),
(91,472,o),
(46,264,o),
(46,158,cs),
(46,50,o),
(99,-13,o),
(195,-13,cs)
);
},
{
closed = 1;
nodes = (
(136,42,o),
(106,81,o),
(106,157,cs),
(106,233,o),
(134,418,o),
(255,418,cs),
(316,418,o),
(346,379,o),
(346,303,cs),
(346,228,o),
(318,42,o),
(197,42,cs)
);
}
);
width = 616;
}
);
metricLeft = "ke-canadian";
metricRight = "=|ne-canadian";
note = uni14C2;
unicode = 5314;
},
{
glyphname = "no-canadian";
kernLeft = noleft;
lastChange = "2023-01-13 15:56:17 +0000";
layers = (
{
anchors = (
{
name = middle_center_can;
pos = (391,245);
},
{
name = top_center_can;
pos = (441,491);
},
{
name = top_double;
pos = (444,491);
},
{
name = top_left_can;
pos = (133,491);
},
{
name = top_right_can;
pos = (587,491);
}
);
layerId = "A0BEBE03-9AB7-4E04-894D-4F686A7231C4";
shapes = (
{
closed = 1;
nodes = (
(353,0,ls),
(526,0,o),
(570,210,o),
(570,314,cs),
(570,422,o),
(517,485,o),
(421,485,cs),
(257,485,o),
(211,276,o),
(211,171,cs),
(211,112,o),
(228,70,o),
(262,47,c),
(267,57,l),
(12,57,l),
(-1,0,l)
);
},
{
closed = 1;
nodes = (
(300,54,o),
(270,94,o),
(270,169,cs),
(270,245,o),
(298,431,o),
(419,431,cs),
(479,431,o),
(510,391,o),
(510,315,cs),
(510,240,o),
(482,54,o),
(360,54,cs)
);
}
);
width = 616;
}
);
metricLeft = "ne-canadian";
metricRight = "=|ke-canadian";
note = uni14C4;
unicode = 5316;
},
{
glyphname = "na-canadian";
kernRight = naright;
lastChange = "2023-01-13 15:56:14 +0000";
layers = (
{
anchors = (
{
name = middle_center_can;
pos = (228,245);
},
{
name = top_center_can;
pos = (281,491);
},
{
name = top_double;
pos = (390,491);
},
{
name = top_left_can;
pos = (136,491);
},
{
name = top_right_can;
pos = (589,491);
}
);
layerId = "A0BEBE03-9AB7-4E04-894D-4F686A7231C4";
shapes = (
{
closed = 1;
nodes = (
(516,0,l),
(527,57,l),
(274,57,l),
(274,34,l),
(380,71,o),
(408,229,o),
(408,314,cs),
(408,422,o),
(355,485,o),
(259,485,cs),
(96,485,o),
(48,276,o),
(48,171,cs),
(48,62,o),
(102,0,o),
(204,0,cs)
);
},
{
closed = 1;
nodes = (
(138,54,o),
(108,94,o),
(108,169,cs),
(108,245,o),
(136,431,o),
(258,431,cs),
(318,431,o),
(349,391,o),
(349,315,cs),
(349,240,o),
(320,54,o),
(199,54,cs)
);
}
);
width = 615;
}
);
metricLeft = "ke-canadian";
metricRight = "=|ne-canadian";
note = uni14C7;
unicode = 5319;
},
{
glyphname = "n-canadian";
kernLeft = mwestleft;
kernRight = mwestright;
lastChange = "2023-01-13 15:56:14 +0000";
layers = (
{
layerId = "A0BEBE03-9AB7-4E04-894D-4F686A7231C4";
shapes = (
{
closed = 1;
nodes = (
(362,434,l),
(372,476,l),
(230,476,l),
(227,452,l),
(279,471,o),
(300,554,o),
(300,599,cs),
(300,659,o),
(271,696,o),
(221,696,cs),
(137,696,o),
(107,590,o),
(107,527,cs),
(107,468,o),
(137,434,o),
(189,434,cs)
);
},
{
closed = 1;
nodes = (
(160,469,o),
(146,489,o),
(146,526,cs),
(146,567,o),
(163,660,o),
(219,660,cs),
(246,660,o),
(261,640,o),
(261,603,cs),
(261,562,o),
(244,469,o),
(186,469,cs)
);
}
);
width = 349;
}
);
metricLeft = "=|k-canadian";
note = uni14D0;
unicode = 5328;
},
{
glyphname = "nh-canadian";
kernLeft = mwestleft;
kernRight = mwestright;
lastChange = "2023-01-13 15:56:17 +0000";
layers = (
{
layerId = "A0BEBE03-9AB7-4E04-894D-4F686A7231C4";
shapes = (
{
closed = 1;
nodes = (
(265,434,ls),
(352,434,o),
(382,538,o),
(382,602,cs),
(382,662,o),
(352,696,o),
(302,696,cs),
(219,696,o),
(188,590,o),
(188,527,cs),
(188,506,o),
(193,477,o),
(216,461,c),
(220,476,l),
(79,476,l),
(71,434,l)
);
},
{
closed = 1;
nodes = (
(242,469,o),
(228,489,o),
(228,526,cs),
(228,567,o),
(244,660,o),
(300,660,cs),
(328,660,o),
(343,640,o),
(343,603,cs),
(343,562,o),
(326,469,o),
(270,469,cs)
);
}
);
width = 349;
}
);
metricLeft = "=|n-canadian";
metricRight = "=|n-canadian";
note = uni14D2;
unicode = 5330;
},
{
glyphname = "le-canadian";
kernLeft = neleft;
lastChange = "2023-01-13 15:56:14 +0000";
layers = (
{
anchors = (
{
name = middle_center_can;
pos = (391,245);
},
{
name = top_center_can;
pos = (437,491);
},
{
name = top_left_can;
pos = (134,491);
},
{
name = top_right_can;
pos = (586,491);
}
);
layerId = "A0BEBE03-9AB7-4E04-894D-4F686A7231C4";
shapes = (
{
closed = 1;
nodes = (
(304,0,ls),
(495,0,o),
(565,156,o),
(565,287,cs),
(565,402,o),
(497,472,o),
(380,472,cs),
(99,472,l),
(88,416,l),
(368,416,ls),
(457,416,o),
(504,369,o),
(504,284,cs),
(504,194,o),
(466,55,o),
(309,55,cs),
(301,55,l),
(290,0,l)
);
}
);
width = 614;
}
);
metricLeft = "ne-canadian";
metricRight = "=|ke-canadian";
note = uni14D3;
unicode = 5331;
},
{
glyphname = "li-canadian";
kernRight = niright;
lastChange = "2023-01-13 15:56:14 +0000";
layers = (
{
anchors = (
{
name = middle_center_can;
pos = (229,245);
},
{
name = top_center_can;
pos = (289,491);
},
{
name = top_left_can;
pos = (138,491);
},
{
name = top_right_can;
pos = (589,491);
}
);
layerId = "A0BEBE03-9AB7-4E04-894D-4F686A7231C4";
shapes = (
{
closed = 1;
nodes = (
(225,0,l),
(237,55,l),
(229,55,ls),
(154,55,o),
(110,106,o),
(110,188,cs),
(110,283,o),
(161,416,o),
(310,416,cs),
(604,416,l),
(616,472,l),
(314,472,ls),
(130,472,o),
(49,326,o),
(49,187,cs),
(49,75,o),
(114,0,o),
(215,0,cs)
);
}
);
width = 615;
}
);
metricLeft = "ke-canadian";
metricRight = "=|ne-canadian";
note = uni14D5;
unicode = 5333;
},
{
glyphname = "lo-canadian";
kernLeft = noleft;
lastChange = "2023-01-13 15:56:14 +0000";
layers = (
{
anchors = (
{
name = middle_center_can;
pos = (390,245);
},
{
name = top_center_can;
pos = (440,491);
},
{
name = top_double;
pos = (407,491);
},
{
name = top_left_can;
pos = (133,491);
},
{
name = top_right_can;
pos = (586,491);
}
);
layerId = "A0BEBE03-9AB7-4E04-894D-4F686A7231C4";
shapes = (
{
closed = 1;
nodes = (
(300,0,ls),
(485,0,o),
(566,147,o),
(566,285,cs),
(566,397,o),
(501,472,o),
(400,472,cs),
(390,472,l),
(379,417,l),
(386,417,ls),
(461,417,o),
(505,367,o),
(505,284,cs),
(505,189,o),
(454,56,o),
(305,56,cs),
(12,56,l),
(-1,0,l)
);
}
);
width = 615;
}
);
metricLeft = "ne-canadian";
metricRight = "=|ke-canadian";
note = uni14D7;
unicode = 5335;
},
{
glyphname = "la-canadian";
kernRight = naright;
lastChange = "2023-01-13 15:56:14 +0000";
layers = (
{
anchors = (
{
name = middle_center_can;
pos = (229,245);
},
{
name = top_center_can;
pos = (282,491);
},
{
name = top_left_can;
pos = (138,491);
},
{
name = top_right_can;
pos = (589,491);
}
);
layerId = "A0BEBE03-9AB7-4E04-894D-4F686A7231C4";
shapes = (
{
closed = 1;
nodes = (
(516,0,l),
(527,56,l),
(247,56,ls),
(158,56,o),
(110,103,o),
(110,188,cs),
(110,278,o),
(150,417,o),
(305,417,cs),
(314,417,l),
(326,472,l),
(311,472,ls),
(120,472,o),
(50,317,o),
(50,186,cs),
(50,71,o),
(118,0,o),
(236,0,cs)
);
}
);
width = 615;
}
);
metricLeft = "ke-canadian";
metricRight = "=|ne-canadian";
note = uni14DA;
unicode = 5338;
},
{
glyphname = "l-canadian";
kernLeft = mwestleft;
kernRight = mwestright;
lastChange = "2023-01-13 15:56:15 +0000";
layers = (
{
layerId = "A0BEBE03-9AB7-4E04-894D-4F686A7231C4";
shapes = (
{
closed = 1;
nodes = (
(344,345,l),
(353,387,l),
(232,387,ls),
(177,387,o),
(149,417,o),
(149,474,cs),
(149,547,o),
(179,647,o),
(285,647,cs),
(288,647,l),
(298,690,l),
(293,690,ls),
(151,690,o),
(105,570,o),
(105,472,cs),
(105,390,o),
(150,345,o),
(232,345,cs)
);
}
);
width = 349;
}
);
metricLeft = "t-canadian";
metricRight = "m-canadian";
note = uni14EA;
unicode = 5354;
},
{
glyphname = "lWestCree-canadian";
kernLeft = mwestleft;
kernRight = mwestright;
lastChange = "2023-01-13 15:56:15 +0000";
layers = (
{
layerId = "A0BEBE03-9AB7-4E04-894D-4F686A7231C4";
shapes = (
{
closed = 1;
nodes = (
(253,345,l),
(259,373,l),
(127,450,l),
(122,427,l),
(287,504,l),
(292,526,l),
(157,599,l),
(154,578,l),
(320,656,l),
(327,690,l),
(318,690,l),
(128,602,l),
(125,582,l),
(259,509,l),
(263,527,l),
(97,452,l),
(93,433,l),
(244,345,l)
);
}
);
width = 281;
}
);
metricRight = "=|";
note = uni14EB;
unicode = 5355;
},
{
glyphname = "mediall-canadian";
lastChange = "2023-01-13 15:56:17 +0000";
layers = (
{
layerId = "A0BEBE03-9AB7-4E04-894D-4F686A7231C4";
shapes = (
{
closed = 1;
nodes = (
(379,-13,l),
(388,29,l),
(102,192,l),
(96,165,l),
(451,326,l),
(457,357,l),
(169,510,l),
(163,487,l),
(520,651,l),
(530,702,l),
(513,702,l),
(119,521,l),
(112,491,l),
(401,335,l),
(406,356,l),
(50,199,l),
(44,169,l),
(362,-13,l)
);
}
);
width = 490;
}
);
metricRight = "=|";
note = uni14EC;
unicode = 5356;
},
{
glyphname = "se-canadian";
kernRight = seright;
lastChange = "2023-01-13 15:56:15 +0000";
layers = (
{
anchors = (
{
name = top_left_can;
pos = (187,690);
},
{
name = top_right_can;
pos = (412,690);
}
);
layerId = "A0BEBE03-9AB7-4E04-894D-4F686A7231C4";
shapes = (
{
closed = 1;
nodes = (
(296,0,l),
(363,315,l),
(339,315,ls),
(206,315,o),
(151,375,o),
(186,539,cs),
(218,690,l),
(157,690,l),
(126,541,ls),
(84,349,o),
(163,259,o),
(327,259,cs),
(339,259,l),
(295,282,l),
(235,0,l)
);
}
);
width = 409;
}
);
note = uni14ED;
unicode = 5357;
},
{
glyphname = "si-canadian";
kernLeft = sileft;
lastChange = "2023-01-13 15:56:17 +0000";
layers = (
{
anchors = (
{
name = top_left_can;
pos = (190,690);
},
{
name = top_right_can;
pos = (414,690);
}
);
layerId = "A0BEBE03-9AB7-4E04-894D-4F686A7231C4";
shapes = (
{
closed = 1;
nodes = (
(74,0,l),
(134,282,l),
(84,259,l),
(119,259,ls),
(276,259,o),
(370,339,o),
(411,528,cs),
(444,690,l),
(384,690,l),
(350,531,ls),
(317,383,o),
(245,315,o),
(124,315,cs),
(80,315,l),
(13,0,l)
);
}
);
width = 409;
}
);
metricLeft = "=|se-canadian";
metricRight = "=|se-canadian";
note = uni14EF;
unicode = 5359;
},
{
glyphname = "so-canadian";
kernRight = soright;
lastChange = "2023-01-13 15:56:17 +0000";
layers = (
{
anchors = (
{
name = top_double;
pos = (411,690);
},
{
name = top_left_can;
pos = (187,690);
},
{
name = top_right_can;
pos = (411,690);
}
);
layerId = "A0BEBE03-9AB7-4E04-894D-4F686A7231C4";
shapes = (
{
closed = 1;
nodes = (
(71,0,l),
(105,158,ls),
(137,307,o),
(209,375,o),
(330,375,cs),
(375,375,l),
(441,690,l),
(381,690,l),
(320,408,l),
(370,431,l),
(336,431,ls),
(178,431,o),
(84,351,o),
(44,161,cs),
(10,0,l)
);
}
);
width = 408;
}
);
metricLeft = "se-canadian";
metricRight = "se-canadian";
note = uni14F1;
unicode = 5361;
},
{
glyphname = "sa-canadian";
kernLeft = saleft;
kernRight = saright;
lastChange = "2023-01-13 15:56:17 +0000";
layers = (
{
anchors = (
{
name = top_left_can;
pos = (191,690);
},
{
name = top_right_can;
pos = (415,690);
}
);
layerId = "A0BEBE03-9AB7-4E04-894D-4F686A7231C4";
shapes = (
{
closed = 1;
nodes = (
(299,0,l),
(330,149,ls),
(372,341,o),
(293,431,o),
(130,431,cs),
(117,431,l),
(161,408,l),
(222,690,l),
(160,690,l),
(94,375,l),
(117,375,ls),
(250,375,o),
(305,315,o),
(270,151,cs),
(238,0,l)
);
}
);
width = 409;
}
);
metricLeft = "=|se-canadian";
metricRight = "=|se-canadian";
note = uni14F4;
unicode = 5364;
},
{
glyphname = "s-canadian";
kernLeft = mwestleft;
kernRight = mwestright;
lastChange = "2023-01-13 15:56:15 +0000";
layers = (
{
layerId = "A0BEBE03-9AB7-4E04-894D-4F686A7231C4";
shapes = (
{
closed = 1;
nodes = (
(240,345,l),
(257,429,ls),
(275,514,o),
(241,569,o),
(154,569,cs),
(140,569,l),
(160,547,l),
(190,690,l),
(147,690,l),
(114,532,l),
(142,532,ls),
(209,532,o),
(228,497,o),
(213,427,cs),
(196,345,l)
);
}
);
width = 267;
}
);
metricRight = "=|";
note = uni1505;
unicode = 5381;
},
{
color = 6;
glyphname = "sAthapascan-canadian";
lastChange = "2023-01-13 15:56:17 +0000";
layers = (
{
layerId = "A0BEBE03-9AB7-4E04-894D-4F686A7231C4";
shapes = (
{
closed = 1;
nodes = (
(212,177,o),
(249,219,o),
(249,280,cs),
(249,320,o),
(233,346,o),
(193,365,cs),
(174,376,ls),
(149,387,o),
(136,407,o),
(136,430,cs),
(136,469,o),
(158,497,o),
(200,497,cs),
(235,497,o),
(252,480,o),
(242,429,c),
(282,429,l),
(295,490,o),
(263,533,o),
(202,533,cs),
(132,533,o),
(96,488,o),
(96,427,cs),
(96,392,o),
(114,361,o),
(150,344,cs),
(169,334,ls),
(199,319,o),
(209,302,o),
(209,277,cs),
(209,237,o),
(186,213,o),
(148,213,cs),
(110,213,o),
(88,229,o),
(100,284,c),
(60,284,l),
(45,215,o),
(82,177,o),
(147,177,cs)
);
}
);
width = 293;
}
);
metricRight = "=|";
note = uni1506;
unicode = 5382;
},
{
glyphname = "sw-canadian";
kernLeft = mwestleft;
kernRight = mwestright;
lastChange = "2023-01-13 15:56:17 +0000";
layers = (
{
layerId = "A0BEBE03-9AB7-4E04-894D-4F686A7231C4";
shapes = (
{
closed = 1;
nodes = (
(118,345,l),
(135,427,ls),
(151,500,o),
(185,532,o),
(247,532,cs),
(279,532,l),
(313,690,l),
(269,690,l),
(240,551,l),
(270,569,l),
(245,569,ls),
(159,569,o),
(112,526,o),
(93,432,cs),
(73,345,l)
);
}
);
width = 266;
}
);
metricLeft = "=|s-canadian";
metricRight = "=|s-canadian";
note = uni1507;
unicode = 5383;
},
{
glyphname = "sBlackfoot-canadian";
lastChange = "2023-01-13 15:56:15 +0000";
layers = (
{
layerId = "A0BEBE03-9AB7-4E04-894D-4F686A7231C4";
shapes = (
{
closed = 1;
nodes = (
(245,345,l),
(255,387,l),
(196,387,ls),
(149,387,o),
(130,412,o),
(143,467,cs),
(190,690,l),
(147,690,l),
(100,471,ls),
(83,390,o),
(117,345,o),
(194,345,cs)
);
}
);
width = 251;
}
);
metricLeft = "ai-canadian";
metricRight = "m-canadian";
note = uni1508;
unicode = 5384;
},
{
glyphname = "moosecreesk-canadian";
kernLeft = mwestleft;
kernRight = mwestright;
lastChange = "2023-01-13 15:56:17 +0000";
layers = (
{
layerId = "A0BEBE03-9AB7-4E04-894D-4F686A7231C4";
shapes = (
{
closed = 1;
nodes = (
(247,217,o),
(271,358,o),
(271,440,cs),
(271,527,o),
(233,570,o),
(153,570,cs),
(145,570,l),
(160,549,l),
(190,690,l),
(147,690,l),
(114,533,l),
(140,533,ls),
(227,533,o),
(236,488,o),
(231,413,c),
(236,401,l),
(241,433,o),
(234,478,o),
(180,478,cs),
(98,478,o),
(72,363,o),
(72,311,cs),
(72,254,o),
(100,217,o),
(151,217,cs)
);
},
{
closed = 1;
nodes = (
(126,252,o),
(112,272,o),
(112,308,cs),
(112,348,o),
(129,444,o),
(185,444,cs),
(213,444,o),
(227,426,o),
(227,390,cs),
(227,351,o),
(209,252,o),
(153,252,cs)
);
}
);
width = 288;
}
);
metricRight = "=|";
note = uni1509;
unicode = 5385;
},
{
glyphname = "skwNaskapi-canadian";
kernLeft = mwestleft;
kernRight = mwestright;
lastChange = "2023-01-13 15:56:17 +0000";
layers = (
{
layerId = "A0BEBE03-9AB7-4E04-894D-4F686A7231C4";
shapes = (
{
closed = 1;
nodes = (
(236,217,o),
(266,330,o),
(266,389,cs),
(266,444,o),
(241,478,o),
(197,478,cs),
(161,478,o),
(130,451,o),
(121,407,c),
(131,409,l),
(161,492,o),
(198,533,o),
(277,533,cs),
(301,533,l),
(334,690,l),
(291,690,l),
(261,548,l),
(287,570,l),
(272,570,ls),
(126,570,o),
(73,405,o),
(73,313,cs),
(73,256,o),
(99,217,o),
(150,217,cs)
);
},
{
closed = 1;
nodes = (
(126,252,o),
(112,272,o),
(112,308,cs),
(112,348,o),
(129,444,o),
(185,444,cs),
(213,444,o),
(226,426,o),
(226,390,cs),
(226,351,o),
(209,252,o),
(153,252,cs)
);
}
);
width = 288;
}
);
metricLeft = "=|moosecreesk-canadian";
metricRight = "=|moosecreesk-canadian";
note = uni150A;
unicode = 5386;
},
{
glyphname = "swNaskapi-canadian";
lastChange = "2023-01-13 15:56:17 +0000";
layers = (
{
layerId = "A0BEBE03-9AB7-4E04-894D-4F686A7231C4";
shapes = (
{
closed = 1;
nodes = (
(222,178,l),
(238,250,ls),
(258,345,o),
(218,397,o),
(137,397,cs),
(121,397,l),
(138,374,l),
(167,513,l),
(125,513,l),
(93,360,l),
(124,360,ls),
(185,360,o),
(211,329,o),
(194,251,cs),
(179,178,l)
);
},
{
closed = 1;
nodes = (
(208,63,o),
(226,81,o),
(226,103,cs),
(226,127,o),
(208,145,o),
(185,145,cs),
(163,145,o),
(144,127,o),
(144,103,cs),
(144,81,o),
(163,63,o),
(185,63,cs)
);
},
{
closed = 1;
nodes = (
(185,545,o),
(203,563,o),
(203,586,cs),
(203,610,o),
(185,627,o),
(162,627,cs),
(140,627,o),
(122,610,o),
(122,586,cs),
(122,563,o),
(140,545,o),
(162,545,cs)
);
}
);
width = 302;
}
);
metricRight = "=|";
note = uni150B;
unicode = 5387;
},
{
glyphname = "spwaNaskapi-canadian";
lastChange = "2023-01-13 15:56:17 +0000";
layers = (
{
layerId = "A0BEBE03-9AB7-4E04-894D-4F686A7231C4";
shapes = (
{
closed = 1;
nodes = (
(402,0,l),
(412,50,l),
(109,354,l),
(103,323,l),
(535,626,l),
(549,690,l),
(531,690,l),
(57,357,l),
(51,332,l),
(384,0,l)
);
},
{
closed = 1;
nodes = (
(193,494,o),
(211,512,o),
(211,534,cs),
(211,557,o),
(193,576,o),
(170,576,cs),
(149,576,o),
(129,557,o),
(129,534,cs),
(129,512,o),
(149,494,o),
(170,494,cs)
);
},
{
closed = 1;
nodes = (
(341,598,l),
(354,658,ls),
(367,720,o),
(342,756,o),
(284,756,cs),
(263,756,l),
(289,738,l),
(310,836,l),
(270,836,l),
(245,722,l),
(268,722,ls),
(309,722,o),
(321,703,o),
(311,653,cs),
(299,598,l)
);
},
{
closed = 1;
nodes = (
(494,699,o),
(511,719,o),
(511,741,cs),
(511,764,o),
(494,782,o),
(470,782,cs),
(449,782,o),
(430,764,o),
(430,741,cs),
(430,719,o),
(449,699,o),
(470,699,cs)
);
}
);
width = 493;
}
);
metricRight = "pa-canadian";
metricWidth = "pa-canadian";
note = uni150C;
unicode = 5388;
},
{
glyphname = "she-canadian";
kernRight = caright;
lastChange = "2023-01-13 15:56:17 +0000";
layers = (
{
anchors = (
{
name = top_left_can;
pos = (316,690);
},
{
name = top_right_can;
pos = (615,690);
}
);
layerId = "A0BEBE03-9AB7-4E04-894D-4F686A7231C4";
shapes = (
{
closed = 1;
nodes = (
(549,-13,o),
(606,56,o),
(637,203,cs),
(657,298,l),
(596,298,l),
(574,198,ls),
(551,88,o),
(516,43,o),
(453,43,cs),
(384,43,o),
(360,100,o),
(380,211,cs),
(424,463,ls),
(451,616,o),
(403,702,o),
(296,702,cs),
(197,702,o),
(140,634,o),
(108,487,cs),
(89,391,l),
(150,391,l),
(171,492,ls),
(195,602,o),
(230,647,o),
(292,647,cs),
(362,647,o),
(385,589,o),
(366,479,cs),
(321,226,ls),
(295,73,o),
(342,-13,o),
(450,-13,cs)
);
}
);
width = 699;
}
);
metricRight = "=|";
note = uni1510;
unicode = 5392;
},
{
glyphname = "shi-canadian";
kernLeft = coleft;
lastChange = "2023-01-13 15:56:17 +0000";
layers = (
{
anchors = (
{
name = top_left_can;
pos = (277,690);
},
{
name = top_right_can;
pos = (577,690);
}
);
layerId = "A0BEBE03-9AB7-4E04-894D-4F686A7231C4";
shapes = (
{
closed = 1;
nodes = (
(272,-13,o),
(326,43,o),
(369,213,cs),
(436,478,ls),
(469,611,o),
(501,647,o),
(565,647,cs),
(634,647,o),
(657,588,o),
(631,470,cs),
(614,391,l),
(675,391,l),
(690,457,ls),
(723,607,o),
(677,702,o),
(568,702,cs),
(470,702,o),
(419,646,o),
(377,477,cs),
(307,211,ls),
(273,80,o),
(242,43,o),
(178,43,cs),
(110,43,o),
(87,100,o),
(112,218,cs),
(129,298,l),
(69,298,l),
(54,233,ls),
(20,80,o),
(66,-13,o),
(175,-13,cs)
);
}
);
width = 698;
}
);
metricLeft = "she-canadian";
metricRight = "she-canadian";
note = uni1511;
unicode = 5393;
},
{
glyphname = "sho-canadian";
lastChange = "2023-01-13 15:56:15 +0000";
layers = (
{
anchors = (
{
name = top_center_can;
pos = (409,491);
},
{
name = top_left_can;
pos = (269,491);
},
{
name = top_right_can;
pos = (548,491);
}
);
layerId = "A0BEBE03-9AB7-4E04-894D-4F686A7231C4";
shapes = (
{
closed = 1;
nodes = (
(230,43,l),
(150,43,o),
(98,82,o),
(98,149,cs),
(98,218,o),
(138,287,o),
(216,287,cs),
(325,287,o),
(364,129,o),
(499,129,cs),
(611,129,o),
(673,223,o),
(673,324,cs),
(673,422,o),
(601,483,o),
(493,485,c),
(480,430,l),
(562,429,o),
(614,391,o),
(614,324,cs),
(614,254,o),
(574,185,o),
(497,185,cs),
(387,185,o),
(348,343,o),
(213,343,cs),
(99,343,o),
(39,247,o),
(39,149,cs),
(39,50,o),
(111,-11,o),
(217,-13,c)
);
}
);
width = 712;
}
);
metricLeft = "ke-canadian";
metricRight = "=|ke-canadian";
note = uni1513;
unicode = 5395;
},
{
glyphname = "sha-canadian";
lastChange = "2023-01-13 15:56:17 +0000";
layers = (
{
anchors = (
{
name = top_center_can;
pos = (412,491);
},
{
name = top_left_can;
pos = (270,491);
},
{
name = top_right_can;
pos = (552,491);
}
);
layerId = "A0BEBE03-9AB7-4E04-894D-4F686A7231C4";
shapes = (
{
closed = 1;
nodes = (
(550,-14,o),
(648,68,o),
(648,205,cs),
(648,287,o),
(597,343,o),
(519,343,cs),
(397,343,o),
(298,185,o),
(203,185,cs),
(155,185,o),
(126,219,o),
(126,271,cs),
(126,376,o),
(201,430,o),
(301,430,c),
(314,485,l),
(163,486,o),
(65,405,o),
(65,268,cs),
(65,185,o),
(115,129,o),
(193,129,cs),
(315,129,o),
(413,287,o),
(509,287,cs),
(557,287,o),
(587,253,o),
(587,201,cs),
(587,97,o),
(514,43,o),
(412,43,c),
(400,-13,l)
);
}
);
width = 712;
}
);
metricLeft = "ke-canadian";
metricRight = "=|ke-canadian";
note = uni1515;
unicode = 5397;
},
{
glyphname = "sh-canadian";
kernLeft = mwestleft;
kernRight = mwestright;
lastChange = "2023-01-13 15:56:17 +0000";
layers = (
{
layerId = "A0BEBE03-9AB7-4E04-894D-4F686A7231C4";
shapes = (
{
closed = 1;
nodes = (
(458,289,o),
(537,353,o),
(537,457,cs),
(537,519,o),
(497,562,o),
(431,562,cs),
(346,562,o),
(293,469,o),
(224,469,cs),
(182,469,o),
(158,494,o),
(158,533,cs),
(158,610,o),
(219,657,o),
(306,656,c),
(315,697,l),
(195,698,o),
(115,636,o),
(115,531,cs),
(115,469,o),
(155,425,o),
(221,425,cs),
(306,425,o),
(360,519,o),
(428,519,cs),
(470,519,o),
(494,494,o),
(494,455,cs),
(494,383,o),
(437,330,o),
(349,331,c),
(340,291,l)
);
}
);
width = 542;
}
);
metricLeft = "t-canadian";
metricRight = "=|";
note = uni1525;
unicode = 5413;
},
{
glyphname = "ye-canadian";
kernLeft = yeleft;
lastChange = "2023-01-13 15:56:15 +0000";
layers = (
{
anchors = (
{
name = middle_right_can;
pos = (476,345);
},
{
name = top_left_can;
pos = (169,690);
},
{
name = top_right_can;
pos = (440,690);
}
);
layerId = "A0BEBE03-9AB7-4E04-894D-4F686A7231C4";
shapes = (
{
closed = 1;
nodes = (
(324,0,l),
(389,310,l),
(128,310,l),
(131,290,l),
(474,665,l),
(431,701,l),
(49,280,l),
(44,255,l),
(317,255,l),
(262,0,l)
);
}
);
width = 433;
}
);
note = uni1526;
unicode = 5414;
},
{
glyphname = "yi-canadian";
kernRight = yiright;
lastChange = "2023-01-13 15:56:15 +0000";
layers = (
{
anchors = (
{
name = top_left_can;
pos = (187,690);
},
{
name = top_right_can;
pos = (460,690);
}
);
layerId = "A0BEBE03-9AB7-4E04-894D-4F686A7231C4";
shapes = (
{
closed = 1;
nodes = (
(71,0,l),
(125,255,l),
(397,255,l),
(402,280,l),
(188,701,l),
(138,674,l),
(333,292,l),
(336,310,l),
(75,310,l),
(9,0,l)
);
}
);
width = 433;
}
);
metricRight = "=|ye-canadian";
metricWidth = "ye-canadian";
note = uni1528;
unicode = 5416;
},
{
glyphname = "yo-canadian";
kernLeft = yoleft;
lastChange = "2023-01-13 15:56:15 +0000";
layers = (
{
anchors = (
{
name = middle_right_can;
pos = (476,345);
},
{
name = top_double;
pos = (440,690);
},
{
name = top_left_can;
pos = (167,690);
},
{
name = top_right_can;
pos = (440,690);
}
);
layerId = "A0BEBE03-9AB7-4E04-894D-4F686A7231C4";
shapes = (
{
closed = 1;
nodes = (
(341,15,l),
(145,398,l),
(143,380,l),
(404,380,l),
(470,690,l),
(409,690,l),
(355,435,l),
(82,435,l),
(77,410,l),
(290,-12,l)
);
}
);
width = 433;
}
);
metricLeft = "ye-canadian";
metricWidth = "ye-canadian";
note = uni152A;
unicode = 5418;
},
{
glyphname = "ya-canadian";
kernRight = yaright;
lastChange = "2023-01-13 15:56:17 +0000";
layers = (
{
anchors = (
{
name = top_left_can;
pos = (186,690);
},
{
name = top_right_can;
pos = (459,690);
}
);
layerId = "A0BEBE03-9AB7-4E04-894D-4F686A7231C4";
shapes = (
{
closed = 1;
nodes = (
(429,410,l),
(435,435,l),
(162,435,l),
(216,690,l),
(155,690,l),
(89,380,l),
(351,380,l),
(347,400,l),
(5,25,l),
(47,-12,l)
);
}
);
width = 433;
}
);
metricRight = "=|ye-canadian";
metricWidth = "ye-canadian";
note = uni152D;
unicode = 5421;
},
{
glyphname = "y-canadian";
kernLeft = mwestleft;
kernRight = mwestright;
lastChange = "2023-01-13 15:56:15 +0000";
layers = (
{
layerId = "A0BEBE03-9AB7-4E04-894D-4F686A7231C4";
shapes = (
{
closed = 1;
nodes = (
(297,546,l),
(300,562,l),
(167,562,l),
(194,690,l),
(151,690,l),
(116,524,l),
(248,524,l),
(246,550,l),
(77,362,l),
(108,336,l)
);
}
);
width = 259;
}
);
note = uni153E;
unicode = 5438;
},
{
glyphname = "biblecreey-canadian";
lastChange = "2023-01-13 15:56:17 +0000";
layers = (
{
layerId = "A0BEBE03-9AB7-4E04-894D-4F686A7231C4";
shapes = (
{
closed = 1;
nodes = (
(105,345,l),
(219,639,l),
(194,639,l),
(206,345,l),
(231,345,l),
(366,639,l),
(342,639,l),
(330,345,l),
(369,345,l),
(372,357,l),
(384,690,l),
(351,690,l),
(213,392,l),
(241,392,l),
(229,690,l),
(197,690,l),
(67,357,l),
(64,345,l)
);
}
);
width = 387;
}
);
metricRight = "=|";
note = uni153F;
unicode = 5439;
},
{
glyphname = "yWestCree-canadian";
lastChange = "2023-01-13 15:56:15 +0000";
layers = (
{
layerId = "A0BEBE03-9AB7-4E04-894D-4F686A7231C4";
shapes = (
{
closed = 1;
nodes = (
(188,213,l),
(213,334,l),
(314,334,l),
(324,377,l),
(223,377,l),
(248,496,l),
(208,496,l),
(183,377,l),
(82,377,l),
(72,334,l),
(173,334,l),
(148,213,l)
);
}
);
width = 345;
}
);
metricLeft = "shorthorizontalstrokeFinal-canadian";
metricRight = "shorthorizontalstrokeFinal-canadian";
note = uni1540;
unicode = 5440;
},
{
glyphname = "re-canadian";
kernRight = niright;
lastChange = "2023-01-13 15:56:17 +0000";
layers = (
{
anchors = (
{
name = top_center_can;
pos = (283,491);
},
{
name = top_left_can;
pos = (146,491);
},
{
name = top_right_can;
pos = (623,491);
}
);
layerId = "A0BEBE03-9AB7-4E04-894D-4F686A7231C4";
shapes = (
{
closed = 1;
nodes = (
(296,-13,o),
(357,49,o),
(387,192,cs),
(436,416,l),
(638,416,l),
(649,472,l),
(387,472,l),
(327,188,ls),
(304,85,o),
(265,43,o),
(198,43,cs),
(124,43,o),
(94,98,o),
(114,196,cs),
(173,472,l),
(112,472,l),
(55,207,ls),
(26,72,o),
(79,-13,o),
(195,-13,cs)
);
}
);
width = 649;
}
);
metricRight = "=|ne-canadian";
note = uni1542;
unicode = 5442;
},
{
glyphname = "reRCree-canadian";
kernLeft = neleft;
lastChange = "2023-01-13 15:56:17 +0000";
layers = (
{
anchors = (
{
name = top_center_can;
pos = (472,491);
},
{
name = top_left_can;
pos = (134,491);
},
{
name = top_right_can;
pos = (610,491);
}
);
layerId = "A0BEBE03-9AB7-4E04-894D-4F686A7231C4";
shapes = (
{
closed = 1;
nodes = (
(485,-13,o),
(547,49,o),
(577,192,cs),
(638,472,l),
(576,472,l),
(515,188,ls),
(493,85,o),
(453,43,o),
(386,43,cs),
(312,43,o),
(282,98,o),
(302,196,cs),
(361,472,l),
(99,472,l),
(88,416,l),
(290,416,l),
(244,207,ls),
(216,73,o),
(269,-13,o),
(384,-13,cs)
);
}
);
width = 649;
}
);
metricLeft = "ne-canadian";
metricRight = "=|re-canadian";
note = uni1543;
unicode = 5443;
},
{
glyphname = "leWestCree-canadian";
kernLeft = noleft;
lastChange = "2023-01-13 15:56:15 +0000";
layers = (
{
anchors = (
{
name = top_center_can;
pos = (472,491);
},
{
name = top_left_can;
pos = (133,491);
},
{
name = top_right_can;
pos = (611,491);
}
);
layerId = "A0BEBE03-9AB7-4E04-894D-4F686A7231C4";
shapes = (
{
closed = 1;
nodes = (
(262,0,l),
(322,284,ls),
(344,387,o),
(384,430,o),
(451,430,cs),
(526,430,o),
(555,375,o),
(534,276,cs),
(475,0,l),
(537,0,l),
(593,266,ls),
(622,400,o),
(569,485,o),
(453,485,cs),
(354,485,o),
(292,423,o),
(261,280,cs),
(213,57,l),
(12,57,l),
(-1,0,l)
);
}
);
width = 648;
}
);
metricLeft = "ne-canadian";
metricRight = "=|re-canadian";
note = uni1544;
unicode = 5444;
},
{
glyphname = "ri-canadian";
kernRight = naright;
lastChange = "2023-01-13 15:56:15 +0000";
layers = (
{
anchors = (
{
name = top_center_can;
pos = (282,491);
},
{
name = top_left_can;
pos = (145,491);
},
{
name = top_right_can;
pos = (621,491);
}
);
layerId = "A0BEBE03-9AB7-4E04-894D-4F686A7231C4";
shapes = (
{
closed = 1;
nodes = (
(72,0,l),
(132,284,ls),
(155,387,o),
(195,430,o),
(263,430,cs),
(336,430,o),
(366,375,o),
(345,276,cs),
(286,0,l),
(548,0,l),
(560,57,l),
(358,57,l),
(403,266,ls),
(432,400,o),
(379,485,o),
(267,485,cs),
(162,485,o),
(100,423,o),
(71,280,cs),
(11,0,l)
);
}
);
width = 647;
}
);
metricLeft = "re-canadian";
metricRight = "=|ne-canadian";
note = uni1546;
unicode = 5446;
},
{
glyphname = "ro-canadian";
lastChange = "2023-01-13 15:56:15 +0000";
layers = (
{
anchors = (
{
name = top_center_can;
pos = (276,690);
}
);
layerId = "A0BEBE03-9AB7-4E04-894D-4F686A7231C4";
shapes = (
{
closed = 1;
nodes = (
(74,0,l),
(134,282,l),
(105,256,l),
(173,256,ls),
(358,256,o),
(415,408,o),
(415,522,cs),
(415,626,o),
(355,690,o),
(249,690,cs),
(161,690,l),
(150,634,l),
(239,634,ls),
(315,634,o),
(355,594,o),
(355,519,cs),
(355,426,o),
(310,311,o),
(170,311,cs),
(78,311,l),
(13,0,l)
);
}
);
width = 410;
}
);
metricLeft = "nunavuth-canadian";
note = uni1548;
unicode = 5448;
},
{
glyphname = "loWestCree-canadian";
lastChange = "2023-01-13 15:56:17 +0000";
layers = (
{
anchors = (
{
name = top_center_can;
pos = (293,690);
},
{
name = top_left_can;
pos = (190,690);
}
);
layerId = "A0BEBE03-9AB7-4E04-894D-4F686A7231C4";
shapes = (
{
closed = 1;
nodes = (
(119,0,ls),
(305,0,o),
(362,152,o),
(362,266,cs),
(362,370,o),
(301,434,o),
(196,434,cs),
(139,434,l),
(160,407,l),
(220,690,l),
(159,690,l),
(93,380,l),
(184,380,ls),
(261,380,o),
(301,339,o),
(301,265,cs),
(301,172,o),
(257,56,o),
(116,56,cs),
(24,56,l),
(13,0,l)
);
}
);
width = 411;
}
);
metricLeft = "nunavuth-canadian";
metricRight = "ro-canadian";
note = uni154A;
unicode = 5450;
},
{
glyphname = "ra-canadian";
lastChange = "2023-01-13 15:56:17 +0000";
layers = (
{
anchors = (
{
name = top_center_can;
pos = (328,690);
},
{
name = top_right_can;
pos = (414,690);
}
);
layerId = "A0BEBE03-9AB7-4E04-894D-4F686A7231C4";
shapes = (
{
closed = 1;
nodes = (
(299,0,l),
(364,310,l),
(272,310,ls),
(196,310,o),
(157,351,o),
(157,425,cs),
(157,518,o),
(201,634,o),
(342,634,cs),
(434,634,l),
(445,690,l),
(339,690,ls),
(153,690,o),
(96,538,o),
(96,424,cs),
(96,320,o),
(157,256,o),
(262,256,cs),
(319,256,l),
(298,283,l),
(237,0,l)
);
}
);
width = 411;
}
);
metricLeft = "=|ro-canadian";
metricRight = "nunavuth-canadian";
note = uni154B;
unicode = 5451;
},
{
glyphname = "laWestCree-canadian";
lastChange = "2023-01-13 15:56:17 +0000";
layers = (
{
anchors = (
{
name = top_center_can;
pos = (414,690);
}
);
layerId = "A0BEBE03-9AB7-4E04-894D-4F686A7231C4";
shapes = (
{
closed = 1;
nodes = (
(296,0,l),
(308,56,l),
(218,56,ls),
(142,56,o),
(101,96,o),
(101,171,cs),
(101,264,o),
(146,379,o),
(287,379,cs),
(379,379,l),
(445,690,l),
(384,690,l),
(324,408,l),
(353,434,l),
(284,434,ls),
(98,434,o),
(41,282,o),
(41,168,cs),
(41,64,o),
(101,0,o),
(207,0,cs)
);
}
);
width = 411;
}
);
metricLeft = "=|ro-canadian";
metricRight = "nunavuth-canadian";
note = uni154D;
unicode = 5453;
},
{
glyphname = "r-canadian";
kernLeft = mwestleft;
kernRight = mwestright;
lastChange = "2023-01-13 15:56:15 +0000";
layers = (
{
layerId = "A0BEBE03-9AB7-4E04-894D-4F686A7231C4";
shapes = (
{
closed = 1;
nodes = (
(215,345,l),
(249,507,l),
(213,507,ls),
(174,507,o),
(155,527,o),
(155,562,cs),
(155,601,o),
(171,652,o),
(243,652,cs),
(280,652,l),
(288,690,l),
(251,690,ls),
(156,690,o),
(113,634,o),
(113,561,cs),
(113,507,o),
(147,470,o),
(206,470,cs),
(226,470,l),
(201,485,l),
(171,345,l)
);
}
);
width = 242;
}
);
metricLeft = "=|k-canadian";
note = uni1550;
unicode = 5456;
},
{
glyphname = "rWestCree-canadian";
kernLeft = mwestleft;
kernRight = mwestright;
lastChange = "2023-01-13 15:56:17 +0000";
layers = (
{
layerId = "A0BEBE03-9AB7-4E04-894D-4F686A7231C4";
shapes = (
{
closed = 1;
nodes = (
(147,690,l),
(141,662,l),
(273,584,l),
(278,608,l),
(113,530,l),
(108,508,l),
(242,436,l),
(247,457,l),
(81,379,l),
(73,345,l),
(83,345,l),
(272,433,l),
(276,452,l),
(141,526,l),
(138,507,l),
(304,582,l),
(308,602,l),
(156,690,l)
);
}
);
width = 280;
}
);
metricLeft = "=|lWestCree-canadian";
metricRight = "=|lWestCree-canadian";
note = uni1551;
unicode = 5457;
},
{
glyphname = "rMedial-canadian";
lastChange = "2023-01-13 15:56:15 +0000";
layers = (
{
layerId = "A0BEBE03-9AB7-4E04-894D-4F686A7231C4";
shapes = (
{
closed = 1;
nodes = (
(23,-13,l),
(417,169,l),
(424,199,l),
(135,355,l),
(130,333,l),
(486,491,l),
(492,521,l),
(174,702,l),
(157,702,l),
(148,661,l),
(434,497,l),
(440,525,l),
(85,364,l),
(79,332,l),
(367,180,l),
(373,203,l),
(16,39,l),
(6,-13,l)
);
}
);
width = 490;
}
);
metricLeft = "mediall-canadian";
metricRight = "mediall-canadian";
note = uni1552;
unicode = 5458;
},
{
glyphname = "fe-canadian";
kernLeft = ecanleft;
kernRight = ecanright;
lastChange = "2023-01-13 15:56:15 +0000";
layers = (
{
layerId = "A0BEBE03-9AB7-4E04-894D-4F686A7231C4";
shapes = (
{
closed = 1;
nodes = (
(244,0,l),
(642,670,l),
(646,690,l),
(595,690,l),
(236,70,l),
(251,70,l),
(200,364,l),
(175,358,l),
(188,336,o),
(211,325,o),
(243,325,cs),
(357,325,o),
(399,493,o),
(399,571,cs),
(399,650,o),
(364,702,o),
(298,702,cs),
(184,702,o),
(140,548,o),
(140,445,cs),
(140,417,o),
(143,390,o),
(149,361,cs),
(220,0,l)
);
},
{
closed = 1;
nodes = (
(207,366,o),
(187,396,o),
(187,449,cs),
(187,513,o),
(216,656,o),
(295,656,cs),
(332,656,o),
(352,626,o),
(352,572,cs),
(352,508,o),
(324,366,o),
(244,366,cs)
);
}
);
width = 577;
}
);
metricRight = "e-canadian";
note = uni1553;
unicode = 5459;
},
{
glyphname = "fi-canadian";
kernLeft = icanleft;
kernRight = icanright;
lastChange = "2023-01-13 15:56:17 +0000";
layers = (
{
anchors = (
{
name = top_center_can;
pos = (377,690);
},
{
name = top_left_can;
pos = (205,690);
},
{
name = top_right_can;
pos = (573,690);
}
);
layerId = "A0BEBE03-9AB7-4E04-894D-4F686A7231C4";
shapes = (
{
closed = 1;
nodes = (
(288,-13,o),
(326,147,o),
(326,232,cs),
(326,315,o),
(291,366,o),
(230,366,cs),
(208,366,o),
(182,355,o),
(159,332,c),
(192,334,l),
(372,620,l),
(356,620,l),
(456,0,l),
(498,0,l),
(502,19,l),
(388,690,l),
(364,690,l),
(136,335,ls),
(96,272,o),
(68,196,o),
(68,116,cs),
(68,37,o),
(104,-13,o),
(169,-13,cs)
);
},
{
closed = 1;
nodes = (
(135,34,o),
(116,64,o),
(116,118,cs),
(116,182,o),
(145,324,o),
(223,324,cs),
(263,324,o),
(278,292,o),
(278,235,cs),
(278,169,o),
(249,34,o),
(173,34,cs)
);
}
);
width = 575;
}
);
metricLeft = "fe-canadian";
metricRight = "e-canadian";
note = uni1555;
unicode = 5461;
},
{
glyphname = "fo-canadian";
kernLeft = ocanleft;
kernRight = ocanright;
lastChange = "2023-01-13 15:56:15 +0000";
layers = (
{
anchors = (
{
name = top_center_can;
pos = (265,690);
}
);
layerId = "A0BEBE03-9AB7-4E04-894D-4F686A7231C4";
shapes = (
{
closed = 1;
nodes = (
(39,0,l),
(509,332,l),
(515,357,l),
(346,647,ls),
(327,678,o),
(303,702,o),
(258,702,cs),
(153,702,o),
(106,559,o),
(100,469,cs),
(94,379,o),
(131,321,o),
(198,321,cs),
(298,321,o),
(347,457,o),
(353,546,cs),
(355,578,o),
(351,606,o),
(347,625,c),
(325,588,l),
(470,340,l),
(476,368,l),
(34,56,l),
(21,0,l)
);
},
{
closed = 1;
nodes = (
(164,367,o),
(146,401,o),
(149,464,cs),
(152,533,o),
(180,657,o),
(254,657,cs),
(294,657,o),
(312,623,o),
(309,559,cs),
(306,491,o),
(279,367,o),
(204,367,cs)
);
}
);
width = 520;
}
);
metricRight = "o-canadian";
note = uni1557;
unicode = 5463;
},
{
glyphname = "fa-canadian";
kernLeft = acanleft;
kernRight = acanright;
lastChange = "2023-01-13 15:56:15 +0000";
layers = (
{
anchors = (
{
name = top_center_can;
pos = (448,690);
}
);
layerId = "A0BEBE03-9AB7-4E04-894D-4F686A7231C4";
shapes = (
{
closed = 1;
nodes = (
(398,0,l),
(408,46,l),
(102,355,l),
(99,334,l),
(346,588,l),
(331,632,l),
(293,569,o),
(279,498,o),
(279,450,cs),
(279,369,o),
(317,320,o),
(383,320,cs),
(493,320,o),
(538,482,o),
(538,569,cs),
(538,655,o),
(498,702,o),
(439,702,cs),
(403,702,o),
(372,687,o),
(341,654,cs),
(56,357,l),
(51,332,l),
(381,0,l)
);
},
{
closed = 1;
nodes = (
(345,366,o),
(326,395,o),
(326,449,cs),
(326,513,o),
(354,656,o),
(433,656,cs),
(470,656,o),
(490,626,o),
(490,573,cs),
(490,509,o),
(462,366,o),
(383,366,cs)
);
}
);
width = 522;
}
);
metricRight = "=|fo-canadian";
note = uni1559;
unicode = 5465;
},
{
glyphname = "f-canadian";
kernLeft = mwestleft;
kernRight = mwestright;
lastChange = "2023-01-13 15:56:15 +0000";
layers = (
{
layerId = "A0BEBE03-9AB7-4E04-894D-4F686A7231C4";
shapes = (
{
closed = 1;
nodes = (
(271,345,l),
(277,376,l),
(132,524,l),
(132,515,l),
(245,631,l),
(243,663,l),
(227,638,o),
(214,596,o),
(214,567,cs),
(214,529,o),
(234,504,o),
(265,504,cs),
(320,504,o),
(341,584,o),
(341,631,cs),
(341,671,o),
(325,696,o),
(293,696,cs),
(275,696,o),
(261,689,o),
(243,671,cs),
(101,526,l),
(98,509,l),
(262,345,l)
);
},
{
closed = 1;
nodes = (
(249,531,o),
(242,545,o),
(242,568,cs),
(242,593,o),
(252,668,o),
(289,668,cs),
(304,668,o),
(313,656,o),
(313,633,cs),
(313,608,o),
(301,531,o),
(266,531,cs)
);
}
);
width = 308;
}
);
note = uni155D;
unicode = 5469;
},
{
glyphname = "the-canadian";
lastChange = "2023-01-13 15:56:17 +0000";
layers = (
{
anchors = (
{
name = middle_right_can;
pos = (605,345);
},
{
name = top_center_can;
pos = (372,690);
},
{
name = top_left_can;
pos = (185,690);
},
{
name = top_right_can;
pos = (557,690);
}
);
layerId = "A0BEBE03-9AB7-4E04-894D-4F686A7231C4";
shapes = (
{
closed = 1;
nodes = (
(379,-13,o),
(454,58,o),
(487,213,cs),
(589,690,l),
(527,690,l),
(428,219,ls),
(402,99,o),
(347,45,o),
(253,45,cs),
(114,45,o),
(99,137,o),
(122,248,cs),
(163,439,l),
(132,426,l),
(130,374,o),
(156,320,o),
(214,320,cs),
(324,320,o),
(366,468,o),
(374,554,cs),
(381,644,o),
(345,702,o),
(272,702,cs),
(196,702,o),
(144,637,o),
(119,518,cs),
(63,250,ls),
(32,102,o),
(78,-13,o),
(250,-13,cs)
);
},
{
closed = 1;
nodes = (
(182,367,o),
(162,396,o),
(162,450,cs),
(162,514,o),
(190,656,o),
(270,656,cs),
(306,656,o),
(326,626,o),
(326,573,cs),
(326,509,o),
(298,367,o),
(219,367,cs)
);
}
);
width = 551;
}
);
metricLeft = "te-canadian";
metricRight = "te-canadian";
note = uni155E;
unicode = 5470;
},
{
glyphname = "theNCree-canadian";
lastChange = "2023-01-13 15:56:15 +0000";
layers = (
{
layerId = "A0BEBE03-9AB7-4E04-894D-4F686A7231C4";
shapes = (
{
closed = 1;
nodes = (
(380,-13,o),
(454,60,o),
(489,219,cs),
(548,497,ls),
(577,631,o),
(530,702,o),
(457,702,cs),
(343,702,o),
(299,548,o),
(299,450,cs),
(299,373,o),
(337,320,o),
(400,320,cs),
(443,320,o),
(485,354,o),
(505,407,c),
(471,423,l),
(430,226,ls),
(403,99,o),
(350,44,o),
(252,44,cs),
(135,44,o),
(94,110,o),
(122,242,cs),
(217,690,l),
(156,690,l),
(61,244,ls),
(27,82,o),
(96,-13,o),
(249,-13,cs)
);
},
{
closed = 1;
nodes = (
(367,367,o),
(348,396,o),
(348,450,cs),
(348,514,o),
(376,656,o),
(453,656,cs),
(489,656,o),
(508,626,o),
(508,573,cs),
(508,509,o),
(480,367,o),
(403,367,cs)
);
}
);
width = 552;
}
);
metricLeft = "te-canadian";
metricRight = "te-canadian";
note = uni155F;
unicode = 5471;
},
{
glyphname = "thi-canadian";
lastChange = "2023-01-13 15:56:17 +0000";
layers = (
{
anchors = (
{
name = top_center_can;
pos = (370,690);
}
);
layerId = "A0BEBE03-9AB7-4E04-894D-4F686A7231C4";
shapes = (
{
closed = 1;
nodes = (
(254,-13,o),
(298,142,o),
(298,240,cs),
(298,317,o),
(261,370,o),
(198,370,cs),
(155,370,o),
(113,336,o),
(93,283,c),
(126,267,l),
(168,464,ls),
(195,591,o),
(248,645,o),
(346,645,cs),
(463,645,o),
(504,580,o),
(476,448,cs),
(381,0,l),
(442,0,l),
(536,445,ls),
(571,608,o),
(502,702,o),
(349,702,cs),
(218,702,o),
(144,630,o),
(109,470,cs),
(50,193,ls),
(21,59,o),
(68,-13,o),
(141,-13,cs)
);
},
{
closed = 1;
nodes = (
(108,34,o),
(90,64,o),
(90,117,cs),
(90,181,o),
(117,323,o),
(194,323,cs),
(231,323,o),
(250,294,o),
(250,240,cs),
(250,176,o),
(222,34,o),
(144,34,cs)
);
}
);
width = 551;
}
);
metricLeft = "te-canadian";
metricRight = "te-canadian";
note = uni1560;
unicode = 5472;
},
{
glyphname = "thiNCree-canadian";
lastChange = "2023-01-13 15:56:15 +0000";
layers = (
{
anchors = (
{
name = top_center_can;
pos = (370,690);
}
);
layerId = "A0BEBE03-9AB7-4E04-894D-4F686A7231C4";
shapes = (
{
closed = 1;
nodes = (
(401,-13,o),
(454,53,o),
(479,172,cs),
(535,440,ls),
(566,587,o),
(520,702,o),
(348,702,cs),
(219,702,o),
(143,632,o),
(110,477,cs),
(9,0,l),
(71,0,l),
(170,470,ls),
(196,590,o),
(251,644,o),
(345,644,cs),
(484,644,o),
(499,553,o),
(476,441,cs),
(435,251,l),
(465,264,l),
(467,316,o),
(441,370,o),
(384,370,cs),
(273,370,o),
(232,222,o),
(224,136,cs),
(217,45,o),
(253,-13,o),
(326,-13,cs)
);
},
{
closed = 1;
nodes = (
(291,34,o),
(272,64,o),
(272,117,cs),
(272,181,o),
(300,323,o),
(379,323,cs),
(416,323,o),
(436,294,o),
(436,240,cs),
(436,176,o),
(408,34,o),
(328,34,cs)
);
}
);
width = 552;
}
);
metricLeft = "te-canadian";
metricRight = "te-canadian";
note = uni1561;
unicode = 5473;
},
{
glyphname = "tho-canadian";
lastChange = "2023-01-13 15:56:15 +0000";
layers = (
{
anchors = (
{
name = top_center_can;
pos = (331,690);
}
);
layerId = "A0BEBE03-9AB7-4E04-894D-4F686A7231C4";
shapes = (
{
closed = 1;
nodes = (
(153,0,ls),
(423,0,o),
(493,301,o),
(493,461,cs),
(493,610,o),
(430,702,o),
(316,702,cs),
(162,702,o),
(106,540,o),
(106,429,cs),
(106,347,o),
(142,296,o),
(205,296,cs),
(318,296,o),
(356,455,o),
(356,541,cs),
(356,612,o),
(329,659,o),
(277,666,c),
(265,648,l),
(267,655,o),
(282,660,o),
(306,660,cs),
(391,660,o),
(435,592,o),
(435,473,cs),
(435,349,o),
(386,57,o),
(156,57,cs),
(46,57,l),
(34,0,l)
);
},
{
closed = 1;
nodes = (
(175,341,o),
(156,371,o),
(156,425,cs),
(156,482,o),
(183,637,o),
(260,637,cs),
(297,637,o),
(316,606,o),
(316,553,cs),
(316,497,o),
(290,341,o),
(212,341,cs)
);
}
);
width = 507;
}
);
metricRight = "to-canadian";
note = uni1564;
unicode = 5476;
},
{
glyphname = "tha-canadian";
lastChange = "2023-01-13 15:56:17 +0000";
layers = (
{
anchors = (
{
name = top_center_can;
pos = (372,690);
}
);
layerId = "A0BEBE03-9AB7-4E04-894D-4F686A7231C4";
shapes = (
{
closed = 1;
nodes = (
(374,0,l),
(385,57,l),
(286,57,ls),
(178,57,o),
(121,118,o),
(121,238,cs),
(121,370,o),
(190,661,o),
(358,661,cs),
(385,661,o),
(411,652,o),
(427,636,c),
(404,664,l),
(294,673,o),
(254,509,o),
(254,426,cs),
(254,346,o),
(289,296,o),
(351,296,cs),
(456,296,o),
(506,441,o),
(506,538,cs),
(506,641,o),
(450,701,o),
(356,701,cs),
(147,701,o),
(61,399,o),
(61,238,cs),
(61,87,o),
(139,0,o),
(274,0,cs)
);
},
{
closed = 1;
nodes = (
(317,341,o),
(298,371,o),
(298,425,cs),
(298,482,o),
(325,637,o),
(403,637,cs),
(439,637,o),
(458,606,o),
(458,553,cs),
(458,497,o),
(432,341,o),
(354,341,cs)
);
}
);
width = 506;
}
);
metricLeft = "=|theCarrier-canadian";
metricRight = "=|tho-canadian";
note = uni1566;
unicode = 5478;
},
{
glyphname = "th-canadian";
kernLeft = mwestleft;
kernRight = mwestright;
lastChange = "2023-01-13 15:56:15 +0000";
layers = (
{
layerId = "A0BEBE03-9AB7-4E04-894D-4F686A7231C4";
shapes = (
{
closed = 1;
nodes = (
(262,345,l),
(270,384,l),
(221,384,ls),
(169,384,o),
(142,412,o),
(142,469,cs),
(142,529,o),
(176,666,o),
(256,666,cs),
(268,666,o),
(278,663,o),
(289,656,c),
(273,672,l),
(217,674,o),
(199,590,o),
(199,554,cs),
(199,516,o),
(217,492,o),
(248,492,cs),
(308,492,o),
(327,579,o),
(327,618,cs),
(327,668,o),
(302,696,o),
(254,696,cs),
(145,696,o),
(103,543,o),
(103,469,cs),
(103,391,o),
(144,345,o),
(213,345,cs)
);
},
{
closed = 1;
nodes = (
(233,518,o),
(224,529,o),
(224,553,cs),
(224,581,o),
(236,655,o),
(274,655,cs),
(291,655,o),
(299,643,o),
(299,620,cs),
(299,592,o),
(287,518,o),
(248,518,cs)
);
}
);
width = 296;
}
);
metricLeft = "t-canadian";
note = uni156A;
unicode = 5482;
},
{
glyphname = "tthe-canadian";
lastChange = "2023-01-13 15:56:15 +0000";
layers = (
{
anchors = (
{
name = middle_right_can;
pos = (598,345);
},
{
name = top_center_can;
pos = (368,690);
},
{
name = top_left_can;
pos = (187,690);
},
{
name = top_right_can;
pos = (551,690);
}
);
layerId = "A0BEBE03-9AB7-4E04-894D-4F686A7231C4";
shapes = (
{
closed = 1;
nodes = (
(372,-13,o),
(448,60,o),
(480,212,cs),
(582,690,l),
(525,690,l),
(425,219,ls),
(399,99,o),
(345,45,o),
(250,45,cs),
(132,45,o),
(90,110,o),
(118,242,cs),
(213,690,l),
(156,690,l),
(61,244,ls),
(27,82,o),
(96,-13,o),
(247,-13,cs)
);
},
{
closed = 1;
nodes = (
(328,391,l),
(392,690,l),
(345,690,l),
(281,391,l)
);
}
);
width = 544;
}
);
metricLeft = "te-canadian";
metricRight = "te-canadian";
note = uni156B;
unicode = 5483;
},
{
glyphname = "tthi-canadian";
lastChange = "2023-01-13 15:56:15 +0000";
layers = (
{
layerId = "A0BEBE03-9AB7-4E04-894D-4F686A7231C4";
shapes = (
{
closed = 1;
nodes = (
(67,0,l),
(166,470,ls),
(192,591,o),
(246,644,o),
(340,644,cs),
(459,644,o),
(501,580,o),
(473,448,cs),
(378,0,l),
(435,0,l),
(529,445,ls),
(564,608,o),
(496,702,o),
(344,702,cs),
(219,702,o),
(143,630,o),
(111,478,cs),
(9,0,l)
);
},
{
closed = 1;
nodes = (
(246,0,l),
(309,298,l),
(263,298,l),
(199,0,l)
);
}
);
width = 544;
}
);
metricLeft = "te-canadian";
metricRight = "te-canadian";
note = uni156C;
unicode = 5484;
},
{
glyphname = "ttho-canadian";
lastChange = "2023-01-13 15:56:15 +0000";
layers = (
{
anchors = (
{
name = top_center_can;
pos = (318,690);
},
{
name = top_left_can;
pos = (185,690);
},
{
name = top_right_can;
pos = (492,690);
}
);
layerId = "A0BEBE03-9AB7-4E04-894D-4F686A7231C4";
shapes = (
{
closed = 1;
nodes = (
(108,0,ls),
(388,0,o),
(459,295,o),
(459,458,cs),
(459,611,o),
(379,690,o),
(228,690,cs),
(158,690,l),
(147,633,l),
(216,633,ls),
(338,633,o),
(397,577,o),
(397,457,cs),
(397,325,o),
(341,57,o),
(111,57,cs),
(24,57,l),
(13,0,l)
);
},
{
closed = 1;
nodes = (
(251,319,l),
(262,371,l),
(91,371,l),
(80,319,l)
);
}
);
width = 473;
}
);
metricRight = "to-canadian";
note = uni156D;
unicode = 5485;
},
{
glyphname = "ttha-canadian";
lastChange = "2023-01-13 15:56:15 +0000";
layers = (
{
anchors = (
{
name = top_center_can;
pos = (335,690);
},
{
name = top_left_can;
pos = (174,690);
},
{
name = top_right_can;
pos = (474,690);
}
);
layerId = "A0BEBE03-9AB7-4E04-894D-4F686A7231C4";
shapes = (
{
closed = 1;
nodes = (
(361,0,l),
(373,57,l),
(300,57,ls),
(179,57,o),
(123,113,o),
(123,233,cs),
(123,369,o),
(179,633,o),
(406,633,cs),
(496,633,l),
(508,690,l),
(409,690,ls),
(132,690,o),
(61,399,o),
(61,231,cs),
(61,78,o),
(138,0,o),
(289,0,cs)
);
},
{
closed = 1;
nodes = (
(425,319,l),
(437,371,l),
(267,371,l),
(255,319,l)
);
}
);
width = 473;
}
);
metricLeft = "=|to-canadian";
metricRight = "=|ttho-canadian";
note = uni156E;
unicode = 5486;
},
{
glyphname = "tth-canadian";
lastChange = "2023-01-13 15:56:17 +0000";
layers = (
{
layerId = "A0BEBE03-9AB7-4E04-894D-4F686A7231C4";
shapes = (
{
closed = 1;
nodes = (
(234,505,l),
(219,505,l),
(276,388,l),
(311,405,l),
(251,526,l),
(244,512,l),
(368,564,l),
(355,598,l),
(238,548,l),
(251,542,l),
(283,690,l),
(244,690,l),
(212,541,l),
(229,547,l),
(127,598,l),
(111,564,l),
(210,515,l),
(208,529,l),
(101,412,l),
(129,388,l)
);
},
{
closed = 1;
nodes = (
(540,505,l),
(526,505,l),
(582,388,l),
(616,405,l),
(557,526,l),
(551,512,l),
(674,564,l),
(661,597,l),
(543,548,l),
(557,542,l),
(589,690,l),
(551,690,l),
(518,541,l),
(535,547,l),
(433,599,l),
(416,565,l),
(516,515,l),
(513,529,l),
(408,412,l),
(435,388,l)
);
}
);
width = 645;
}
);
metricRight = "=|";
note = uni156F;
unicode = 5487;
},
{
glyphname = "tye-canadian";
lastChange = "2023-01-13 15:56:15 +0000";
layers = (
{
layerId = "A0BEBE03-9AB7-4E04-894D-4F686A7231C4";
shapes = (
{
closed = 1;
nodes = (
(372,-13,o),
(448,60,o),
(480,212,cs),
(582,690,l),
(525,690,l),
(424,219,ls),
(399,99,o),
(345,45,o),
(250,45,cs),
(132,45,o),
(90,110,o),
(118,242,cs),
(213,690,l),
(156,690,l),
(61,244,ls),
(27,82,o),
(96,-13,o),
(247,-13,cs)
);
},
{
closed = 1;
nodes = (
(373,412,o),
(403,443,o),
(419,518,cs),
(456,690,l),
(423,690,l),
(388,524,ls),
(377,468,o),
(356,445,o),
(318,445,cs),
(280,445,o),
(268,467,o),
(278,518,cs),
(314,690,l),
(282,690,l),
(245,515,ls),
(231,449,o),
(258,412,o),
(318,412,cs)
);
}
);
width = 544;
}
);
metricLeft = "te-canadian";
metricRight = "te-canadian";
note = uni1570;
unicode = 5488;
},
{
glyphname = "tyi-canadian";
lastChange = "2023-01-13 15:56:15 +0000";
layers = (
{
layerId = "A0BEBE03-9AB7-4E04-894D-4F686A7231C4";
shapes = (
{
closed = 1;
nodes = (
(67,0,l),
(166,470,ls),
(192,591,o),
(246,644,o),
(340,644,cs),
(459,644,o),
(501,580,o),
(473,448,cs),
(378,0,l),
(435,0,l),
(529,445,ls),
(564,608,o),
(496,702,o),
(344,702,cs),
(219,702,o),
(143,630,o),
(110,478,cs),
(9,0,l)
);
},
{
closed = 1;
nodes = (
(167,0,l),
(203,166,ls),
(214,222,o),
(235,244,o),
(273,244,cs),
(311,244,o),
(324,223,o),
(313,172,cs),
(276,0,l),
(309,0,l),
(346,175,ls),
(359,241,o),
(333,278,o),
(273,278,cs),
(218,278,o),
(188,246,o),
(172,172,cs),
(135,0,l)
);
}
);
width = 544;
}
);
metricLeft = "te-canadian";
metricRight = "te-canadian";
note = uni1571;
unicode = 5489;
},
{
glyphname = "tyo-canadian";
lastChange = "2023-01-13 15:56:17 +0000";
layers = (
{
layerId = "A0BEBE03-9AB7-4E04-894D-4F686A7231C4";
shapes = (
{
closed = 1;
nodes = (
(105,0,ls),
(387,0,o),
(459,295,o),
(459,458,cs),
(459,611,o),
(377,690,o),
(225,690,cs),
(159,690,l),
(148,634,l),
(213,634,ls),
(336,634,o),
(398,577,o),
(398,457,cs),
(398,304,o),
(321,56,o),
(107,56,cs),
(24,56,l),
(13,0,l)
);
},
{
closed = 1;
nodes = (
(100,210,ls),
(219,210,o),
(252,294,o),
(256,366,cs),
(261,440,o),
(222,480,o),
(155,480,cs),
(114,480,l),
(106,443,l),
(148,443,ls),
(196,443,o),
(220,417,o),
(219,369,cs),
(217,317,o),
(197,246,o),
(105,246,cs),
(65,246,l),
(57,210,l)
);
}
);
width = 473;
}
);
metricLeft = "nunavuth-canadian";
metricRight = "theCarrier-canadian";
note = uni1572;
unicode = 5490;
},
{
glyphname = "tya-canadian";
lastChange = "2023-01-13 15:56:17 +0000";
layers = (
{
layerId = "A0BEBE03-9AB7-4E04-894D-4F686A7231C4";
shapes = (
{
closed = 1;
nodes = (
(360,0,l),
(372,56,l),
(305,56,ls),
(183,56,o),
(122,113,o),
(122,233,cs),
(122,385,o),
(199,634,o),
(411,634,cs),
(495,634,l),
(506,690,l),
(414,690,ls),
(132,690,o),
(60,395,o),
(60,232,cs),
(60,78,o),
(143,0,o),
(295,0,cs)
);
},
{
closed = 1;
nodes = (
(405,210,l),
(413,246,l),
(372,246,ls),
(324,246,o),
(298,272,o),
(300,321,cs),
(301,373,o),
(322,443,o),
(413,443,cs),
(455,443,l),
(463,480,l),
(419,480,ls),
(299,480,o),
(268,396,o),
(264,324,cs),
(259,250,o),
(297,210,o),
(364,210,cs)
);
}
);
width = 473;
}
);
metricLeft = "=|theCarrier-canadian";
metricRight = "nunavuth-canadian";
note = uni1573;
unicode = 5491;
},
{
glyphname = "heNunavik-canadian";
lastChange = "2023-01-13 15:56:15 +0000";
layers = (
{
layerId = "A0BEBE03-9AB7-4E04-894D-4F686A7231C4";
shapes = (
{
closed = 1;
nodes = (
(333,0,l),
(551,190,l),
(517,233,l),
(335,73,l),
(354,60,l),
(434,439,ls),
(461,565,o),
(445,702,o),
(305,702,cs),
(139,702,o),
(92,483,o),
(92,368,cs),
(92,264,o),
(136,205,o),
(221,205,cs),
(284,205,o),
(328,241,o),
(359,319,c),
(348,323,l),
(279,0,l)
);
},
{
closed = 1;
nodes = (
(180,259,o),
(151,297,o),
(151,370,cs),
(151,449,o),
(185,648,o),
(300,648,cs),
(357,648,o),
(386,611,o),
(386,538,cs),
(386,460,o),
(353,259,o),
(236,259,cs)
);
}
);
width = 583;
}
);
metricLeft = "ke-canadian";
note = uni1574;
unicode = 5492;
},
{
glyphname = "hiNunavik-canadian";
lastChange = "2023-01-13 15:56:17 +0000";
layers = (
{
anchors = (
{
name = top_center_can;
pos = (455,690);
}
);
layerId = "A0BEBE03-9AB7-4E04-894D-4F686A7231C4";
shapes = (
{
closed = 1;
nodes = (
(203,0,l),
(279,360,l),
(264,323,l),
(264,253,o),
(304,205,o),
(376,205,cs),
(535,205,o),
(582,426,o),
(582,536,cs),
(582,643,o),
(535,702,o),
(443,702,cs),
(342,702,o),
(274,625,o),
(241,471,cs),
(154,57,l),
(173,61,l),
(56,225,l),
(12,190,l),
(149,0,l)
);
},
{
closed = 1;
nodes = (
(318,259,o),
(289,297,o),
(289,369,cs),
(289,448,o),
(325,648,o),
(439,648,cs),
(496,648,o),
(524,611,o),
(524,538,cs),
(524,456,o),
(489,259,o),
(375,259,cs)
);
}
);
width = 581;
}
);
metricLeft = "=|heNunavik-canadian";
metricRight = "=|ke-canadian";
note = uni1575;
unicode = 5493;
},
{
glyphname = "hoNunavik-canadian";
lastChange = "2023-01-13 15:56:17 +0000";
layers = (
{
anchors = (
{
name = top_center_can;
pos = (317,690);
},
{
name = top_right_can;
pos = (456,690);
}
);
layerId = "A0BEBE03-9AB7-4E04-894D-4F686A7231C4";
shapes = (
{
closed = 1;
nodes = (
(287,-13,o),
(356,65,o),
(387,218,cs),
(475,633,l),
(456,629,l),
(573,465,l),
(618,499,l),
(480,690,l),
(427,690,l),
(350,329,l),
(366,367,l),
(366,437,o),
(325,485,o),
(254,485,cs),
(94,485,o),
(46,264,o),
(46,154,cs),
(46,46,o),
(94,-13,o),
(186,-13,cs)
);
},
{
closed = 1;
nodes = (
(133,42,o),
(105,78,o),
(105,152,cs),
(105,234,o),
(140,431,o),
(254,431,cs),
(311,431,o),
(340,393,o),
(340,321,cs),
(340,242,o),
(304,42,o),
(189,42,cs)
);
}
);
width = 584;
}
);
metricLeft = "ke-canadian";
metricRight = "heNunavik-canadian";
note = uni1577;
unicode = 5495;
},
{
glyphname = "haNunavik-canadian";
lastChange = "2023-01-13 15:56:17 +0000";
layers = (
{
anchors = (
{
name = top_center_can;
pos = (458,690);
},
{
name = top_left_can;
pos = (319,690);
}
);
layerId = "A0BEBE03-9AB7-4E04-894D-4F686A7231C4";
shapes = (
{
closed = 1;
nodes = (
(491,-13,o),
(538,207,o),
(538,322,cs),
(538,426,o),
(494,485,o),
(408,485,cs),
(346,485,o),
(300,449,o),
(269,371,c),
(281,367,l),
(351,690,l),
(296,690,l),
(78,499,l),
(113,457,l),
(295,616,l),
(276,630,l),
(196,251,ls),
(169,125,o),
(184,-13,o),
(324,-13,cs)
);
},
{
closed = 1;
nodes = (
(272,42,o),
(243,79,o),
(243,152,cs),
(243,230,o),
(277,431,o),
(393,431,cs),
(450,431,o),
(479,393,o),
(479,320,cs),
(479,241,o),
(444,42,o),
(328,42,cs)
);
}
);
width = 583;
}
);
metricLeft = "=|heNunavik-canadian";
metricRight = "=|ke-canadian";
note = uni1579;
unicode = 5497;
},
{
glyphname = "hNunavik-canadian";
kernLeft = mwestleft;
kernRight = mwestright;
lastChange = "2023-01-13 15:56:17 +0000";
layers = (
{
layerId = "A0BEBE03-9AB7-4E04-894D-4F686A7231C4";
shapes = (
{
closed = 1;
nodes = (
(327,339,o),
(357,459,o),
(357,514,cs),
(357,568,o),
(333,601,o),
(291,601,cs),
(259,601,o),
(236,584,o),
(217,553,c),
(224,541,l),
(255,690,l),
(216,690,l),
(107,595,l),
(130,569,l),
(224,651,l),
(210,673,l),
(168,478,ls),
(155,415,o),
(166,339,o),
(238,339,cs)
);
},
{
closed = 1;
nodes = (
(215,375,o),
(202,393,o),
(202,430,cs),
(202,486,o),
(226,565,o),
(277,565,cs),
(304,565,o),
(318,547,o),
(318,511,cs),
(318,455,o),
(294,375,o),
(242,375,cs)
);
}
);
width = 343;
}
);
metricRight = "k-canadian";
note = uni157B;
unicode = 5499;
},
{
color = 4;
glyphname = "nunavuth-canadian";
lastChange = "2023-01-13 15:56:17 +0000";
layers = (
{
layerId = "A0BEBE03-9AB7-4E04-894D-4F686A7231C4";
shapes = (
{
closed = 1;
nodes = (
(73,0,l),
(144,330,l),
(415,330,l),
(345,0,l),
(406,0,l),
(553,690,l),
(492,690,l),
(427,386,l),
(156,386,l),
(220,690,l),
(159,690,l),
(13,0,l)
);
}
);
width = 518;
}
);
metricRight = "=|";
note = uni157C;
unicode = 5500;
},
{
glyphname = "tlhe-canadian";
lastChange = "2023-01-13 15:56:15 +0000";
layers = (
{
anchors = (
{
name = top_center_can;
pos = (323,690);
}
);
layerId = "A0BEBE03-9AB7-4E04-894D-4F686A7231C4";
shapes = (
{
closed = 1;
nodes = (
(91,0,l),
(247,267,l),
(202,242,l),
(210,241,o),
(218,241,o),
(226,241,cs),
(283,241,o),
(327,269,o),
(362,329,c),
(356,345,l),
(283,0,l),
(344,0,l),
(441,458,ls),
(466,571,o),
(451,702,o),
(312,702,cs),
(155,702,o),
(101,519,o),
(101,403,cs),
(101,328,o),
(129,277,o),
(181,259,c),
(26,0,l)
);
},
{
closed = 1;
nodes = (
(187,295,o),
(159,331,o),
(159,405,cs),
(159,477,o),
(191,648,o),
(306,648,cs),
(364,648,o),
(390,610,o),
(390,542,cs),
(390,468,o),
(358,295,o),
(245,295,cs)
);
}
);
width = 453;
}
);
metricRight = "te-canadian";
note = uni1586;
unicode = 5510;
},
{
glyphname = "tlhi-canadian";
lastChange = "2023-01-13 15:56:15 +0000";
layers = (
{
layerId = "A0BEBE03-9AB7-4E04-894D-4F686A7231C4";
shapes = (
{
closed = 1;
nodes = (
(70,0,l),
(146,357,l),
(127,349,l),
(139,286,o),
(179,246,o),
(240,242,c),
(220,256,l),
(263,0,l),
(327,0,l),
(284,251,l),
(411,269,o),
(454,437,o),
(454,534,cs),
(454,639,o),
(401,702,o),
(309,702,cs),
(218,702,o),
(144,634,o),
(112,485,cs),
(9,0,l)
);
},
{
closed = 1;
nodes = (
(192,295,o),
(163,334,o),
(163,406,cs),
(163,480,o),
(198,648,o),
(308,648,cs),
(365,648,o),
(394,609,o),
(394,536,cs),
(394,460,o),
(362,295,o),
(250,295,cs)
);
}
);
width = 456;
}
);
metricLeft = "te-canadian";
metricRight = "=|tlhe-canadian";
note = uni1587;
unicode = 5511;
},
{
glyphname = "tlho-canadian";
lastChange = "2023-01-13 15:56:15 +0000";
layers = (
{
anchors = (
{
name = top_center_can;
pos = (336,690);
}
);
layerId = "A0BEBE03-9AB7-4E04-894D-4F686A7231C4";
shapes = (
{
closed = 1;
nodes = (
(283,-13,o),
(357,56,o),
(389,205,cs),
(493,690,l),
(432,690,l),
(355,332,l),
(375,341,l),
(362,404,o),
(323,443,o),
(262,448,c),
(281,434,l),
(239,690,l),
(175,690,l),
(217,439,l),
(91,421,o),
(48,253,o),
(48,156,cs),
(48,51,o),
(100,-13,o),
(192,-13,cs)
);
},
{
closed = 1;
nodes = (
(136,42,o),
(108,81,o),
(108,154,cs),
(108,230,o),
(139,395,o),
(251,395,cs),
(308,395,o),
(338,355,o),
(338,284,cs),
(338,210,o),
(303,42,o),
(193,42,cs)
);
}
);
width = 455;
}
);
metricLeft = "tlhe-canadian";
metricRight = "te-canadian";
note = uni1588;
unicode = 5512;
},
{
glyphname = "tlha-canadian";
lastChange = "2023-01-13 15:56:15 +0000";
layers = (
{
layerId = "A0BEBE03-9AB7-4E04-894D-4F686A7231C4";
shapes = (
{
closed = 1;
nodes = (
(346,-13,o),
(399,171,o),
(399,287,cs),
(399,361,o),
(371,412,o),
(320,431,c),
(473,690,l),
(410,690,l),
(253,423,l),
(298,447,l),
(290,449,o),
(282,449,o),
(274,449,cs),
(217,449,o),
(173,421,o),
(138,360,c),
(144,345,l),
(216,690,l),
(156,690,l),
(59,232,ls),
(35,119,o),
(49,-13,o),
(188,-13,cs)
);
},
{
closed = 1;
nodes = (
(136,42,o),
(110,80,o),
(110,148,cs),
(110,222,o),
(142,395,o),
(255,395,cs),
(313,395,o),
(341,358,o),
(341,285,cs),
(341,213,o),
(308,42,o),
(194,42,cs)
);
}
);
width = 454;
}
);
metricLeft = "te-canadian";
note = uni1589;
unicode = 5513;
},
{
glyphname = "reWestCree-canadian";
lastChange = "2023-01-13 15:56:17 +0000";
layers = (
{
layerId = "A0BEBE03-9AB7-4E04-894D-4F686A7231C4";
shapes = (
{
closed = 1;
nodes = (
(329,0,l),
(547,191,l),
(511,233,l),
(331,71,l),
(349,59,l),
(437,474,ls),
(468,619,o),
(411,702,o),
(300,702,cs),
(196,702,o),
(137,636,o),
(105,487,cs),
(85,391,l),
(146,391,l),
(168,496,ls),
(191,602,o),
(229,647,o),
(294,647,cs),
(368,647,o),
(402,594,o),
(379,485,cs),
(275,0,l)
);
}
);
width = 579;
}
);
metricLeft = "ce-canadian";
metricRight = "heNunavik-canadian";
note = uni158A;
unicode = 5514;
},
{
glyphname = "riWestCree-canadian";
lastChange = "2023-01-13 15:56:17 +0000";
layers = (
{
layerId = "A0BEBE03-9AB7-4E04-894D-4F686A7231C4";
shapes = (
{
closed = 1;
nodes = (
(202,0,l),
(307,496,ls),
(330,602,o),
(368,647,o),
(433,647,cs),
(507,647,o),
(541,594,o),
(518,485,cs),
(497,391,l),
(558,391,l),
(577,474,ls),
(608,619,o),
(550,702,o),
(439,702,cs),
(335,702,o),
(276,636,o),
(244,487,cs),
(154,60,l),
(173,63,l),
(59,226,l),
(12,191,l),
(148,0,l)
);
}
);
width = 578;
}
);
metricLeft = "=|heNunavik-canadian";
metricRight = "=|ce-canadian";
note = uni158B;
unicode = 5515;
},
{
glyphname = "roWestCree-canadian";
lastChange = "2023-01-13 15:56:17 +0000";
layers = (
{
layerId = "A0BEBE03-9AB7-4E04-894D-4F686A7231C4";
shapes = (
{
closed = 1;
nodes = (
(290,-13,o),
(349,54,o),
(381,203,cs),
(471,630,l),
(452,627,l),
(567,464,l),
(613,498,l),
(477,690,l),
(423,690,l),
(318,194,ls),
(295,88,o),
(257,43,o),
(192,43,cs),
(118,43,o),
(84,96,o),
(107,205,cs),
(128,298,l),
(67,298,l),
(48,215,ls),
(17,71,o),
(75,-13,o),
(186,-13,cs)
);
}
);
width = 579;
}
);
metricLeft = "ce-canadian";
metricRight = "heNunavik-canadian";
note = uni158C;
unicode = 5516;
},
{
glyphname = "raWestCree-canadian";
lastChange = "2023-01-13 15:56:17 +0000";
layers = (
{
layerId = "A0BEBE03-9AB7-4E04-894D-4F686A7231C4";
shapes = (
{
closed = 1;
nodes = (
(429,-13,o),
(487,54,o),
(519,203,cs),
(540,298,l),
(479,298,l),
(457,194,ls),
(434,88,o),
(396,43,o),
(331,43,cs),
(257,43,o),
(223,96,o),
(246,205,cs),
(350,690,l),
(295,690,l),
(78,498,l),
(113,457,l),
(294,618,l),
(275,631,l),
(187,215,ls),
(157,71,o),
(214,-13,o),
(325,-13,cs)
);
}
);
width = 579;
}
);
metricLeft = "=|heNunavik-canadian";
metricRight = "=|ce-canadian";
note = uni158D;
unicode = 5517;
},
{
glyphname = "ng-canadian";
kernLeft = mwestleft;
kernRight = mwestright;
lastChange = "2023-01-13 15:56:15 +0000";
layers = (
{
layerId = "A0BEBE03-9AB7-4E04-894D-4F686A7231C4";
shapes = (
{
closed = 1;
nodes = (
(412,217,o),
(449,257,o),
(465,333,cs),
(470,363,l),
(430,363,l),
(422,329,ls),
(411,278,o),
(391,255,o),
(357,255,cs),
(322,255,o),
(308,280,o),
(319,329,cs),
(351,476,l),
(237,476,l),
(244,460,l),
(279,484,o),
(297,550,o),
(298,591,cs),
(302,655,o),
(273,696,o),
(220,696,cs),
(143,696,o),
(111,599,o),
(107,538,cs),
(102,471,o),
(133,434,o),
(188,434,cs),
(318,434,l),
(303,462,l),
(277,338,ls),
(262,265,o),
(292,217,o),
(354,217,cs)
);
},
{
closed = 1;
nodes = (
(158,469,o),
(144,491,o),
(146,533,cs),
(148,576,o),
(164,660,o),
(218,660,cs),
(246,660,o),
(261,638,o),
(259,596,cs),
(257,554,o),
(241,469,o),
(185,469,cs)
);
}
);
width = 476;
}
);
metricLeft = "n-canadian";
metricRight = "c-canadian";
note = uni1595;
unicode = 5525;
},
{
glyphname = "nng-canadian";
kernLeft = mwestleft;
kernRight = mwestright;
lastChange = "2023-01-13 15:56:17 +0000";
layers = (
{
layerId = "A0BEBE03-9AB7-4E04-894D-4F686A7231C4";
shapes = (
{
closed = 1;
nodes = (
(633,217,o),
(670,257,o),
(686,333,cs),
(693,363,l),
(652,363,l),
(644,329,ls),
(633,278,o),
(612,255,o),
(580,255,cs),
(543,255,o),
(529,280,o),
(541,329,cs),
(572,476,l),
(463,476,l),
(465,460,l),
(501,487,o),
(520,557,o),
(520,600,cs),
(520,659,o),
(491,696,o),
(440,696,cs),
(357,696,o),
(327,590,o),
(327,527,cs),
(327,499,o),
(334,477,o),
(348,462,c),
(355,476,l),
(243,476,l),
(244,460,l),
(283,487,o),
(300,562,o),
(300,599,cs),
(300,658,o),
(271,696,o),
(221,696,cs),
(137,696,o),
(107,590,o),
(107,527,cs),
(107,468,o),
(137,434,o),
(189,434,cs),
(519,434,l),
(498,338,ls),
(483,265,o),
(513,217,o),
(575,217,cs)
);
},
{
closed = 1;
nodes = (
(160,469,o),
(146,489,o),
(146,526,cs),
(146,567,o),
(163,660,o),
(219,660,cs),
(246,660,o),
(261,640,o),
(261,603,cs),
(261,562,o),
(244,469,o),
(186,469,cs)
);
},
{
closed = 1;
nodes = (
(380,469,o),
(366,489,o),
(366,526,cs),
(366,567,o),
(383,660,o),
(439,660,cs),
(467,660,o),
(480,640,o),
(480,603,cs),
(480,562,o),
(464,469,o),
(407,469,cs)
);
}
);
width = 698;
}
);
metricLeft = "n-canadian";
metricRight = "c-canadian";
note = uni1596;
unicode = 5526;
},
{
glyphname = "sheSayisi-canadian";
lastChange = "2023-01-13 15:56:15 +0000";
layers = (
{
anchors = (
{
name = middle_right_can;
pos = (508,345);
},
{
name = top_center_can;
pos = (323,690);
}
);
layerId = "A0BEBE03-9AB7-4E04-894D-4F686A7231C4";
shapes = (
{
closed = 1;
nodes = (
(346,0,l),
(440,446,ls),
(474,609,o),
(425,702,o),
(313,702,cs),
(140,702,o),
(88,471,o),
(88,350,cs),
(88,259,o),
(119,207,o),
(185,207,cs),
(254,207,o),
(294,267,o),
(320,411,c),
(290,411,l),
(270,303,o),
(243,259,o),
(200,259,cs),
(163,259,o),
(145,290,o),
(145,348,cs),
(145,435,o),
(185,648,o),
(307,648,cs),
(381,648,o),
(408,579,o),
(380,445,cs),
(284,0,l)
);
}
);
width = 455;
}
);
metricLeft = "ke-canadian";
metricRight = "te-canadian";
note = uni1597;
unicode = 5527;
},
{
glyphname = "shiSayisi-canadian";
lastChange = "2023-01-13 15:56:15 +0000";
layers = (
{
layerId = "A0BEBE03-9AB7-4E04-894D-4F686A7231C4";
shapes = (
{
closed = 1;
nodes = (
(71,0,l),
(169,463,ls),
(196,588,o),
(239,648,o),
(306,648,cs),
(367,648,o),
(397,610,o),
(397,532,cs),
(397,463,o),
(359,259,o),
(279,259,cs),
(230,259,o),
(215,306,o),
(240,411,c),
(209,411,l),
(179,276,o),
(208,207,o),
(286,207,cs),
(407,207,o),
(455,430,o),
(455,529,cs),
(455,639,o),
(405,702,o),
(310,702,cs),
(209,702,o),
(142,626,o),
(110,475,cs),
(9,0,l)
);
}
);
width = 455;
}
);
metricLeft = "te-canadian";
metricRight = "=|ke-canadian";
note = uni1598;
unicode = 5528;
},
{
glyphname = "shoSayisi-canadian";
lastChange = "2023-01-13 15:56:15 +0000";
layers = (
{
anchors = (
{
name = top_center_can;
pos = (321,690);
},
{
name = top_left_can;
pos = (179,690);
},
{
name = top_right_can;
pos = (463,690);
}
);
layerId = "A0BEBE03-9AB7-4E04-894D-4F686A7231C4";
shapes = (
{
closed = 1;
nodes = (
(294,-13,o),
(359,64,o),
(391,214,cs),
(493,690,l),
(432,690,l),
(333,227,ls),
(306,101,o),
(263,42,o),
(195,42,cs),
(135,42,o),
(104,80,o),
(104,157,cs),
(104,227,o),
(143,431,o),
(222,431,cs),
(272,431,o),
(287,384,o),
(263,279,c),
(293,279,l),
(324,413,o),
(295,483,o),
(216,483,cs),
(96,483,o),
(46,260,o),
(46,160,cs),
(46,50,o),
(98,-13,o),
(192,-13,cs)
);
}
);
width = 455;
}
);
metricLeft = "ke-canadian";
metricRight = "te-canadian";
note = uni1599;
unicode = 5529;
},
{
glyphname = "shaSayisi-canadian";
lastChange = "2023-01-13 15:56:15 +0000";
layers = (
{
layerId = "A0BEBE03-9AB7-4E04-894D-4F686A7231C4";
shapes = (
{
closed = 1;
nodes = (
(360,-13,o),
(413,218,o),
(413,340,cs),
(413,431,o),
(383,483,o),
(316,483,cs),
(247,483,o),
(208,423,o),
(181,279,c),
(211,279,l),
(231,386,o),
(258,431,o),
(301,431,cs),
(338,431,o),
(356,400,o),
(356,342,cs),
(356,255,o),
(315,42,o),
(194,42,cs),
(121,42,o),
(94,111,o),
(122,244,cs),
(216,690,l),
(156,690,l),
(61,243,ls),
(26,81,o),
(75,-13,o),
(188,-13,cs)
);
}
);
width = 455;
}
);
metricLeft = "te-canadian";
metricRight = "=|ke-canadian";
note = uni159A;
unicode = 5530;
},
{
glyphname = "theWoodScree-canadian";
lastChange = "2023-01-13 15:56:15 +0000";
layers = (
{
layerId = "A0BEBE03-9AB7-4E04-894D-4F686A7231C4";
shapes = (
{
closed = 1;
nodes = (
(524,-13,o),
(574,189,o),
(574,300,cs),
(574,411,o),
(519,472,o),
(418,472,cs),
(107,472,l),
(96,419,l),
(349,419,l),
(349,440,l),
(246,403,o),
(215,243,o),
(215,160,cs),
(215,52,o),
(270,-13,o),
(365,-13,cs)
);
},
{
closed = 1;
nodes = (
(305,42,o),
(274,81,o),
(274,156,cs),
(274,232,o),
(303,419,o),
(424,419,cs),
(485,419,o),
(515,380,o),
(515,304,cs),
(515,228,o),
(487,42,o),
(366,42,cs)
);
},
{
closed = 1;
nodes = (
(647,637,l),
(659,690,l),
(154,690,l),
(142,637,l)
);
}
);
width = 626;
}
);
note = uni159B;
unicode = 5531;
},
{
glyphname = "thiWoodScree-canadian";
kernRight = niright;
lastChange = "2023-01-13 15:56:17 +0000";
layers = (
{
layerId = "A0BEBE03-9AB7-4E04-894D-4F686A7231C4";
shapes = (
{
closed = 1;
nodes = (
(360,-13,o),
(411,192,o),
(411,300,cs),
(411,358,o),
(394,400,o),
(361,425,c),
(357,419,l),
(611,419,l),
(621,472,l),
(279,472,ls),
(94,472,o),
(52,269,o),
(52,160,cs),
(52,52,o),
(104,-13,o),
(201,-13,cs)
);
},
{
closed = 1;
nodes = (
(141,42,o),
(111,81,o),
(111,156,cs),
(111,232,o),
(139,419,o),
(261,419,cs),
(321,419,o),
(352,380,o),
(352,304,cs),
(352,228,o),
(323,42,o),
(203,42,cs)
);
},
{
closed = 1;
nodes = (
(657,637,l),
(669,690,l),
(164,690,l),
(153,637,l)
);
}
);
width = 628;
}
);
metricLeft = "theWoodScree-canadian";
metricRight = "theWoodScree-canadian";
note = uni159C;
unicode = 5532;
},
{
glyphname = "thoWoodScree-canadian";
lastChange = "2023-01-13 15:56:15 +0000";
layers = (
{
layerId = "A0BEBE03-9AB7-4E04-894D-4F686A7231C4";
shapes = (
{
closed = 1;
nodes = (
(349,0,ls),
(535,0,o),
(577,204,o),
(577,312,cs),
(577,420,o),
(524,485,o),
(427,485,cs),
(268,485,o),
(218,280,o),
(218,172,cs),
(218,114,o),
(234,72,o),
(268,47,c),
(270,53,l),
(18,53,l),
(7,0,l)
);
},
{
closed = 1;
nodes = (
(307,53,o),
(277,93,o),
(277,168,cs),
(277,245,o),
(305,431,o),
(426,431,cs),
(487,431,o),
(518,391,o),
(518,316,cs),
(518,241,o),
(490,53,o),
(368,53,cs)
);
},
{
closed = 1;
nodes = (
(647,637,l),
(659,690,l),
(154,690,l),
(142,637,l)
);
}
);
width = 627;
}
);
metricLeft = "theWoodScree-canadian";
metricRight = "theWoodScree-canadian";
note = uni159D;
unicode = 5533;
},
{
glyphname = "thaWoodScree-canadian";
lastChange = "2023-01-13 15:56:15 +0000";
layers = (
{
layerId = "A0BEBE03-9AB7-4E04-894D-4F686A7231C4";
shapes = (
{
closed = 1;
nodes = (
(521,0,l),
(531,53,l),
(279,53,l),
(279,32,l),
(381,71,o),
(412,229,o),
(412,312,cs),
(412,420,o),
(358,485,o),
(263,485,cs),
(104,485,o),
(53,283,o),
(53,172,cs),
(53,62,o),
(109,0,o),
(209,0,cs)
);
},
{
closed = 1;
nodes = (
(142,53,o),
(112,93,o),
(112,168,cs),
(112,245,o),
(141,431,o),
(261,431,cs),
(323,431,o),
(353,391,o),
(353,316,cs),
(353,241,o),
(325,53,o),
(203,53,cs)
);
},
{
closed = 1;
nodes = (
(655,637,l),
(667,690,l),
(161,690,l),
(150,637,l)
);
}
);
width = 627;
}
);
metricLeft = "theWoodScree-canadian";
metricRight = "theWoodScree-canadian";
note = uni159E;
unicode = 5534;
},
{
glyphname = "thWoodScree-canadian";
lastChange = "2023-01-13 15:56:15 +0000";
layers = (
{
layerId = "A0BEBE03-9AB7-4E04-894D-4F686A7231C4";
shapes = (
{
closed = 1;
nodes = (
(355,345,l),
(363,384,l),
(222,384,l),
(219,362,l),
(271,383,o),
(292,465,o),
(292,510,cs),
(292,570,o),
(263,607,o),
(213,607,cs),
(129,607,o),
(99,500,o),
(99,439,cs),
(99,379,o),
(129,345,o),
(182,345,cs)
);
},
{
closed = 1;
nodes = (
(153,380,o),
(138,400,o),
(138,438,cs),
(138,478,o),
(155,571,o),
(211,571,cs),
(239,571,o),
(253,551,o),
(253,513,cs),
(253,473,o),
(237,380,o),
(179,380,cs)
);
},
{
closed = 1;
nodes = (
(421,676,l),
(430,717,l),
(156,717,l),
(148,676,l)
);
}
);
width = 383;
}
);
metricRight = "=|";
note = uni159F;
unicode = 5535;
},
{
glyphname = "lhi-canadian";
kernRight = niright;
lastChange = "2023-01-13 15:56:15 +0000";
layers = (
{
anchors = (
{
name = top_center_can;
pos = (450,690);
},
{
name = top_right_can;
pos = (520,690);
}
);
layerId = "A0BEBE03-9AB7-4E04-894D-4F686A7231C4";
shapes = (
{
closed = 1;
nodes = (
(225,0,l),
(237,55,l),
(229,55,ls),
(154,55,o),
(110,106,o),
(110,188,cs),
(110,283,o),
(161,416,o),
(310,416,cs),
(604,416,l),
(615,467,l),
(537,722,l),
(480,703,l),
(559,444,l),
(581,472,l),
(314,472,ls),
(130,472,o),
(49,326,o),
(49,187,cs),
(49,75,o),
(114,0,o),
(215,0,cs)
);
}
);
width = 615;
}
);
metricLeft = "ke-canadian";
metricRight = "=|ne-canadian";
note = uni15A0;
unicode = 5536;
},
{
glyphname = "lho-canadian";
kernLeft = noleft;
lastChange = "2023-01-13 15:56:15 +0000";
layers = (
{
anchors = (
{
name = top_center_can;
pos = (355,490);
},
{
name = top_right_can;
pos = (439,490);
}
);
layerId = "A0BEBE03-9AB7-4E04-894D-4F686A7231C4";
shapes = (
{
closed = 1;
nodes = (
(135,-231,l),
(56,27,l),
(35,-1,l),
(300,-1,ls),
(485,-1,o),
(566,147,o),
(566,284,cs),
(566,396,o),
(501,471,o),
(400,471,cs),
(390,471,l),
(379,416,l),
(386,416,ls),
(461,416,o),
(505,366,o),
(505,284,cs),
(505,188,o),
(454,56,o),
(305,56,cs),
(12,56,l),
(0,5,l),
(78,-249,l)
);
}
);
width = 616;
}
);
metricLeft = "ne-canadian";
metricRight = "=|ke-canadian";
note = uni15A2;
unicode = 5538;
},
{
glyphname = "lha-canadian";
kernRight = naright;
lastChange = "2023-01-13 15:56:15 +0000";
layers = (
{
anchors = (
{
name = top_center_can;
pos = (371,490);
},
{
name = top_left_can;
pos = (285,490);
}
);
layerId = "A0BEBE03-9AB7-4E04-894D-4F686A7231C4";
shapes = (
{
closed = 1;
nodes = (
(517,6,l),
(527,56,l),
(247,56,ls),
(158,56,o),
(110,103,o),
(110,188,cs),
(110,277,o),
(150,417,o),
(305,417,cs),
(314,417,l),
(326,472,l),
(311,472,ls),
(120,472,o),
(50,317,o),
(50,186,cs),
(50,71,o),
(118,0,o),
(236,0,cs),
(476,0,l),
(461,25,l),
(284,-215,l),
(329,-249,l)
);
}
);
width = 615;
}
);
metricLeft = "ke-canadian";
metricRight = "=|ne-canadian";
note = uni15A4;
unicode = 5540;
},
{
glyphname = "lh-canadian";
kernLeft = mwestleft;
kernRight = mwestright;
lastChange = "2023-01-13 15:56:17 +0000";
layers = (
{
layerId = "A0BEBE03-9AB7-4E04-894D-4F686A7231C4";
shapes = (
{
closed = 1;
nodes = (
(358,349,l),
(367,387,l),
(232,387,ls),
(177,387,o),
(149,417,o),
(149,474,cs),
(149,547,o),
(179,647,o),
(285,647,cs),
(288,647,l),
(298,690,l),
(293,690,ls),
(151,690,o),
(105,570,o),
(105,472,cs),
(105,390,o),
(150,345,o),
(232,345,cs),
(335,345,l),
(322,370,l),
(222,233,l),
(256,208,l)
);
}
);
width = 383;
}
);
metricLeft = "t-canadian";
metricRight = "=|";
note = uni15A6;
unicode = 5542;
},
{
glyphname = "theThCree-canadian";
lastChange = "2023-01-13 15:56:15 +0000";
layers = (
{
anchors = (
{
name = top_left_can;
pos = (167,690);
},
{
name = top_right_can;
pos = (440,690);
}
);
layerId = "A0BEBE03-9AB7-4E04-894D-4F686A7231C4";
shapes = (
{
closed = 1;
nodes = (
(288,117,l),
(262,0,l),
(324,0,l),
(349,117,l),
(409,117,l),
(417,157,l),
(357,157,l),
(389,310,l),
(122,310,l),
(131,289,l),
(474,665,l),
(431,701,l),
(49,280,l),
(44,255,l),
(317,255,l),
(296,157,l),
(114,157,l),
(105,117,l)
);
}
);
width = 469;
}
);
metricLeft = "ye-canadian";
note = uni15A7;
unicode = 5543;
},
{
glyphname = "thiThCree-canadian";
kernRight = yiright;
lastChange = "2023-01-13 15:56:15 +0000";
layers = (
{
anchors = (
{
name = top_left_can;
pos = (223,690);
},
{
name = top_right_can;
pos = (496,690);
}
);
layerId = "A0BEBE03-9AB7-4E04-894D-4F686A7231C4";
shapes = (
{
closed = 1;
nodes = (
(106,0,l),
(131,117,l),
(314,117,l),
(323,157,l),
(140,157,l),
(160,255,l),
(433,255,l),
(438,280,l),
(225,701,l),
(175,674,l),
(372,285,l),
(387,310,l),
(111,310,l),
(78,157,l),
(18,157,l),
(11,117,l),
(71,117,l),
(44,0,l)
);
}
);
width = 469;
}
);
metricLeft = "=|theThCree-canadian";
metricRight = "=|ye-canadian";
note = uni15A8;
unicode = 5544;
},
{
glyphname = "thoThCree-canadian";
kernLeft = yoleft;
lastChange = "2023-01-13 15:56:15 +0000";
layers = (
{
anchors = (
{
name = top_left_can;
pos = (167,690);
},
{
name = top_right_can;
pos = (440,690);
}
);
layerId = "A0BEBE03-9AB7-4E04-894D-4F686A7231C4";
shapes = (
{
closed = 1;
nodes = (
(341,15,l),
(143,405,l),
(128,380,l),
(404,380,l),
(437,532,l),
(497,532,l),
(505,573,l),
(444,573,l),
(470,690,l),
(409,690,l),
(384,573,l),
(201,573,l),
(192,532,l),
(375,532,l),
(355,435,l),
(82,435,l),
(77,410,l),
(290,-12,l)
);
}
);
width = 469;
}
);
metricLeft = "ye-canadian";
metricRight = "theThCree-canadian";
note = uni15AA;
unicode = 5546;
},
{
glyphname = "thaThCree-canadian";
kernRight = yaright;
lastChange = "2023-01-13 15:56:17 +0000";
layers = (
{
anchors = (
{
name = top_left_can;
pos = (223,690);
},
{
name = top_right_can;
pos = (497,690);
}
);
layerId = "A0BEBE03-9AB7-4E04-894D-4F686A7231C4";
shapes = (
{
closed = 1;
nodes = (
(468,410,l),
(472,435,l),
(199,435,l),
(220,532,l),
(402,532,l),
(411,573,l),
(228,573,l),
(254,690,l),
(192,690,l),
(167,573,l),
(107,573,l),
(99,532,l),
(158,532,l),
(127,380,l),
(394,380,l),
(385,401,l),
(42,25,l),
(85,-12,l)
);
}
);
width = 471;
}
);
metricLeft = "=|theThCree-canadian";
metricRight = "=|ye-canadian";
note = uni15AC;
unicode = 5548;
},
{
glyphname = "thThCree-canadian";
kernLeft = mwestleft;
kernRight = mwestright;
lastChange = "2023-01-13 15:56:17 +0000";
layers = (
{
layerId = "A0BEBE03-9AB7-4E04-894D-4F686A7231C4";
shapes = (
{
closed = 1;
nodes = (
(148,612,l),
(129,524,l),
(265,524,l),
(256,545,l),
(91,362,l),
(122,336,l),
(310,546,l),
(314,562,l),
(180,562,l),
(191,612,l),
(280,612,l),
(285,639,l),
(196,639,l),
(208,690,l),
(164,690,l),
(154,639,l),
(123,639,l),
(118,612,l)
);
}
);
width = 273;
}
);
metricRight = "y-canadian";
note = uni15AE;
unicode = 5550;
},
{
glyphname = "bAivilik-canadian";
lastChange = "2023-01-13 15:56:15 +0000";
layers = (
{
layerId = "A0BEBE03-9AB7-4E04-894D-4F686A7231C4";
shapes = (
{
closed = 1;
nodes = (
(360,-13,o),
(409,206,o),
(409,322,cs),
(409,426,o),
(362,485,o),
(278,485,cs),
(219,485,o),
(174,449,o),
(140,369,c),
(152,368,l),
(220,690,l),
(159,690,l),
(13,0,l),
(69,0,l),
(96,127,l),
(86,110,l),
(89,27,o),
(131,-13,o),
(201,-13,cs)
);
},
{
closed = 1;
nodes = (
(143,42,o),
(115,79,o),
(115,152,cs),
(115,230,o),
(148,431,o),
(264,431,cs),
(321,431,o),
(349,393,o),
(349,320,cs),
(349,241,o),
(315,42,o),
(199,42,cs)
);
}
);
width = 454;
}
);
metricLeft = "nunavuth-canadian";
metricRight = "=|ke-canadian";
note = uni15AF;
unicode = 5551;
},
{
glyphname = "eBlackfoot-canadian";
lastChange = "2023-01-13 15:56:15 +0000";
layers = (
{
layerId = "A0BEBE03-9AB7-4E04-894D-4F686A7231C4";
shapes = (
{
closed = 1;
nodes = (
(73,0,l),
(163,420,l),
(178,378,o),
(216,353,o),
(267,353,cs),
(384,353,o),
(436,483,o),
(436,565,cs),
(436,647,o),
(389,702,o),
(314,702,cs),
(274,702,o),
(238,686,o),
(211,655,c),
(217,690,l),
(159,690,l),
(13,0,l)
);
}
);
width = 411;
}
);
metricLeft = "nunavuth-canadian";
note = uni15B0;
unicode = 5552;
},
{
glyphname = "iBlackfoot-canadian";
lastChange = "2023-01-13 15:56:17 +0000";
layers = (
{
layerId = "A0BEBE03-9AB7-4E04-894D-4F686A7231C4";
shapes = (
{
closed = 1;
nodes = (
(184,-13,o),
(219,4,o),
(247,35,c),
(240,0,l),
(298,0,l),
(445,690,l),
(384,690,l),
(294,270,l),
(279,312,o),
(241,337,o),
(190,337,cs),
(73,337,o),
(21,207,o),
(21,125,cs),
(21,43,o),
(69,-13,o),
(144,-13,cs)
);
}
);
width = 410;
}
);
metricLeft = "=|eBlackfoot-canadian";
metricRight = "nunavuth-canadian";
note = uni15B1;
unicode = 5553;
},
{
glyphname = "oBlackfoot-canadian";
lastChange = "2023-01-13 15:56:15 +0000";
layers = (
{
layerId = "A0BEBE03-9AB7-4E04-894D-4F686A7231C4";
shapes = (
{
closed = 1;
nodes = (
(308,-13,o),
(357,118,o),
(357,200,cs),
(357,281,o),
(312,337,o),
(240,337,cs),
(200,337,o),
(165,322,o),
(135,293,c),
(220,690,l),
(159,690,l),
(13,0,l),
(71,0,l),
(84,60,l),
(98,15,o),
(136,-13,o),
(188,-13,cs)
);
}
);
width = 410;
}
);
metricLeft = "nunavuth-canadian";
metricRight = "eBlackfoot-canadian";
note = uni15B2;
unicode = 5554;
},
{
glyphname = "aBlackfoot-canadian";
lastChange = "2023-01-13 15:56:17 +0000";
layers = (
{
layerId = "A0BEBE03-9AB7-4E04-894D-4F686A7231C4";
shapes = (
{
closed = 1;
nodes = (
(298,0,l),
(444,690,l),
(385,690,l),
(372,630,l),
(358,674,o),
(320,702,o),
(268,702,cs),
(148,702,o),
(99,572,o),
(99,490,cs),
(99,409,o),
(144,353,o),
(217,353,cs),
(256,353,o),
(292,368,o),
(321,397,c),
(236,0,l)
);
}
);
width = 410;
}
);
metricLeft = "=|eBlackfoot-canadian";
metricRight = "nunavuth-canadian";
note = uni15B3;
unicode = 5555;
},
{
glyphname = "weBlackfoot-canadian";
lastChange = "2023-01-13 15:56:15 +0000";
layers = (
{
layerId = "A0BEBE03-9AB7-4E04-894D-4F686A7231C4";
shapes = (
{
closed = 1;
nodes = (
(73,0,l),
(141,319,l),
(406,319,l),
(417,373,l),
(153,373,l),
(209,636,l),
(473,636,l),
(484,690,l),
(159,690,l),
(13,0,l)
);
}
);
width = 433;
}
);
metricLeft = "nunavuth-canadian";
note = uni15B4;
unicode = 5556;
},
{
glyphname = "wiBlackfoot-canadian";
lastChange = "2023-01-13 15:56:17 +0000";
layers = (
{
layerId = "A0BEBE03-9AB7-4E04-894D-4F686A7231C4";
shapes = (
{
closed = 1;
nodes = (
(321,0,l),
(468,690,l),
(406,690,l),
(339,371,l),
(74,371,l),
(63,317,l),
(327,317,l),
(271,54,l),
(7,54,l),
(-5,0,l)
);
}
);
width = 433;
}
);
metricLeft = "=|weBlackfoot-canadian";
metricRight = "nunavuth-canadian";
note = uni15B5;
unicode = 5557;
},
{
glyphname = "woBlackfoot-canadian";
lastChange = "2023-01-13 15:56:17 +0000";
layers = (
{
layerId = "A0BEBE03-9AB7-4E04-894D-4F686A7231C4";
shapes = (
{
closed = 1;
nodes = (
(337,0,l),
(349,54,l),
(85,54,l),
(141,317,l),
(405,317,l),
(416,371,l),
(153,371,l),
(220,690,l),
(159,690,l),
(13,0,l)
);
}
);
width = 433;
}
);
metricLeft = "nunavuth-canadian";
metricRight = "weBlackfoot-canadian";
note = uni15B6;
unicode = 5558;
},
{
glyphname = "waBlackfoot-canadian";
lastChange = "2023-01-13 15:56:17 +0000";
layers = (
{
layerId = "A0BEBE03-9AB7-4E04-894D-4F686A7231C4";
shapes = (
{
closed = 1;
nodes = (
(321,0,l),
(468,690,l),
(142,690,l),
(130,636,l),
(394,636,l),
(338,373,l),
(74,373,l),
(63,319,l),
(328,319,l),
(259,0,l)
);
}
);
width = 433;
}
);
metricLeft = "=|weBlackfoot-canadian";
metricRight = "nunavuth-canadian";
note = uni15B7;
unicode = 5559;
},
{
glyphname = "neBlackfoot-canadian";
lastChange = "2023-01-13 15:56:15 +0000";
layers = (
{
layerId = "A0BEBE03-9AB7-4E04-894D-4F686A7231C4";
shapes = (
{
closed = 1;
nodes = (
(73,0,l),
(211,641,l),
(250,641,l),
(234,673,l),
(220,611,ls),
(194,488,o),
(244,407,o),
(360,407,cs),
(459,407,o),
(527,469,o),
(554,597,cs),
(574,690,l),
(514,690,l),
(494,593,ls),
(475,502,o),
(430,463,o),
(363,463,cs),
(288,463,o),
(261,516,o),
(278,599,cs),
(298,690,l),
(159,690,l),
(13,0,l)
);
}
);
width = 514;
}
);
metricLeft = "nunavuth-canadian";
note = uni15B8;
unicode = 5560;
},
{
glyphname = "niBlackfoot-canadian";
lastChange = "2023-01-13 15:56:17 +0000";
layers = (
{
layerId = "A0BEBE03-9AB7-4E04-894D-4F686A7231C4";
shapes = (
{
closed = 1;
nodes = (
(47,0,l),
(67,97,ls),
(86,187,o),
(131,227,o),
(198,227,cs),
(274,227,o),
(301,174,o),
(284,91,cs),
(264,0,l),
(403,0,l),
(550,690,l),
(488,690,l),
(352,48,l),
(311,48,l),
(328,16,l),
(341,79,ls),
(367,202,o),
(317,283,o),
(201,283,cs),
(102,283,o),
(34,221,o),
(7,93,cs),
(-13,0,l)
);
}
);
width = 515;
}
);
metricLeft = "=|neBlackfoot-canadian";
metricRight = "nunavuth-canadian";
note = uni15B9;
unicode = 5561;
},
{
glyphname = "noBlackfoot-canadian";
lastChange = "2023-01-13 15:56:17 +0000";
layers = (
{
layerId = "A0BEBE03-9AB7-4E04-894D-4F686A7231C4";
shapes = (
{
closed = 1;
nodes = (
(151,0,l),
(168,78,ls),
(191,181,o),
(227,228,o),
(296,228,cs),
(370,228,o),
(403,171,o),
(382,71,cs),
(368,0,l),
(428,0,l),
(440,58,ls),
(469,196,o),
(415,283,o),
(301,283,cs),
(200,283,o),
(135,211,o),
(108,78,cs),
(96,16,l),
(125,48,l),
(84,48,l),
(220,690,l),
(159,690,l),
(13,0,l)
);
}
);
width = 515;
}
);
metricLeft = "nunavuth-canadian";
metricRight = "neBlackfoot-canadian";
note = uni15BA;
unicode = 5562;
},
{
glyphname = "naBlackfoot-canadian";
lastChange = "2023-01-13 15:56:17 +0000";
layers = (
{
layerId = "A0BEBE03-9AB7-4E04-894D-4F686A7231C4";
shapes = (
{
closed = 1;
nodes = (
(404,0,l),
(551,690,l),
(412,690,l),
(394,611,ls),
(372,509,o),
(335,462,o),
(267,462,cs),
(192,462,o),
(160,519,o),
(181,619,cs),
(195,690,l),
(134,690,l),
(122,632,ls),
(93,494,o),
(147,407,o),
(261,407,cs),
(363,407,o),
(427,479,o),
(455,611,cs),
(468,673,l),
(439,641,l),
(478,641,l),
(342,0,l)
);
}
);
width = 516;
}
);
metricLeft = "=|neBlackfoot-canadian";
metricRight = "nunavuth-canadian";
note = uni15BB;
unicode = 5563;
},
{
glyphname = "keBlackfoot-canadian";
lastChange = "2023-01-13 15:56:15 +0000";
layers = (
{
layerId = "A0BEBE03-9AB7-4E04-894D-4F686A7231C4";
shapes = (
{
closed = 1;
nodes = (
(73,0,l),
(206,618,l),
(181,618,l),
(248,258,l),
(279,258,l),
(545,690,l),
(478,690,l),
(256,328,l),
(284,326,l),
(215,690,l),
(159,690,l),
(13,0,l)
);
}
);
width = 474;
}
);
metricLeft = "nunavuth-canadian";
note = uni15BC;
unicode = 5564;
},
{
glyphname = "kiBlackfoot-canadian";
lastChange = "2023-01-13 15:56:17 +0000";
layers = (
{
layerId = "A0BEBE03-9AB7-4E04-894D-4F686A7231C4";
shapes = (
{
closed = 1;
nodes = (
(43,1,l),
(265,362,l),
(238,365,l),
(306,1,l),
(362,1,l),
(509,691,l),
(447,691,l),
(316,72,l),
(340,72,l),
(272,432,l),
(242,432,l),
(-24,1,l)
);
}
);
width = 474;
}
);
metricLeft = "=|keBlackfoot-canadian";
metricRight = "nunavuth-canadian";
note = uni15BD;
unicode = 5565;
},
{
glyphname = "koBlackfoot-canadian";
lastChange = "2023-01-13 15:56:15 +0000";
layers = (
{
layerId = "A0BEBE03-9AB7-4E04-894D-4F686A7231C4";
shapes = (
{
closed = 1;
nodes = (
(69,0,l),
(297,360,l),
(270,364,l),
(337,0,l),
(398,0,l),
(315,432,l),
(285,432,l),
(63,71,l),
(89,71,l),
(220,690,l),
(159,690,l),
(13,0,l)
);
}
);
width = 474;
}
);
metricLeft = "nunavuth-canadian";
metricRight = "keBlackfoot-canadian";
note = uni15BE;
unicode = 5566;
},
{
glyphname = "kaBlackfoot-canadian";
lastChange = "2023-01-13 15:56:17 +0000";
layers = (
{
layerId = "A0BEBE03-9AB7-4E04-894D-4F686A7231C4";
shapes = (
{
closed = 1;
nodes = (
(362,1,l),
(509,691,l),
(453,691,l),
(224,330,l),
(252,327,l),
(185,691,l),
(123,691,l),
(206,259,l),
(237,259,l),
(458,619,l),
(433,619,l),
(300,1,l)
);
}
);
width = 474;
}
);
metricLeft = "=|keBlackfoot-canadian";
metricRight = "nunavuth-canadian";
note = uni15BF;
unicode = 5567;
},
{
color = 9;
glyphname = "heSayisi-canadian";
lastChange = "2023-01-13 15:56:17 +0000";
layers = (
{
anchors = (
{
name = top_right_can;
pos = (506,690);
}
);
layerId = "A0BEBE03-9AB7-4E04-894D-4F686A7231C4";
shapes = (
{
closed = 1;
nodes = (
(389,0,l),
(536,690,l),
(475,690,l),
(385,267,l),
(400,266,l),
(452,546,o),
(411,702,o),
(281,702,cs),
(191,702,o),
(129,627,o),
(97,482,cs),
(85,426,o),
(79,379,o),
(78,340,c),
(136,340,l),
(137,377,o),
(143,423,o),
(155,473,cs),
(178,584,o),
(225,647,o),
(288,647,cs),
(409,647,o),
(424,430,o),
(327,0,c)
);
}
);
width = 501;
}
);
metricRight = "nunavuth-canadian";
note = uni15C0;
unicode = 5568;
},
{
color = 9;
glyphname = "hiSayisi-canadian";
lastChange = "2023-01-13 15:56:15 +0000";
layers = (
{
layerId = "A0BEBE03-9AB7-4E04-894D-4F686A7231C4";
shapes = (
{
closed = 1;
nodes = (
(73,0,l),
(167,436,o),
(265,647,o),
(376,647,cs),
(444,647,o),
(469,568,o),
(440,433,cs),
(432,395,o),
(422,367,o),
(410,340,c),
(469,340,l),
(482,372,o),
(493,406,o),
(500,437,cs),
(533,601,o),
(494,702,o),
(395,702,cs),
(280,702,o),
(187,560,o),
(123,288,c),
(134,287,l),
(220,690,l),
(159,690,l),
(13,0,l)
);
}
);
width = 502;
}
);
metricLeft = "nunavuth-canadian";
metricRight = "=|heSayisi-canadian";
note = uni15C1;
unicode = 5569;
},
{
color = 9;
glyphname = "hoSayisi-canadian";
lastChange = "2023-01-13 15:56:17 +0000";
layers = (
{
anchors = (
{
name = top_center_can;
pos = (344,690);
},
{
name = top_left_can;
pos = (181,690);
},
{
name = top_right_can;
pos = (507,690);
}
);
layerId = "A0BEBE03-9AB7-4E04-894D-4F686A7231C4";
shapes = (
{
closed = 1;
nodes = (
(269,-13,o),
(362,129,o),
(426,402,c),
(414,403,l),
(329,0,l),
(390,0,l),
(537,690,l),
(475,690,l),
(383,254,o),
(284,43,o),
(174,43,cs),
(105,43,o),
(81,122,o),
(109,257,cs),
(118,295,o),
(127,323,o),
(139,350,c),
(80,350,l),
(67,318,o),
(56,284,o),
(49,253,cs),
(16,89,o),
(56,-13,o),
(155,-13,cs)
);
}
);
width = 502;
}
);
metricLeft = "heSayisi-canadian";
metricRight = "nunavuth-canadian";
note = uni15C2;
unicode = 5570;
},
{
color = 9;
glyphname = "haSayisi-canadian";
lastChange = "2023-01-13 15:56:17 +0000";
layers = (
{
layerId = "A0BEBE03-9AB7-4E04-894D-4F686A7231C4";
shapes = (
{
closed = 1;
nodes = (
(356,-13,o),
(419,63,o),
(451,208,cs),
(463,264,o),
(469,311,o),
(470,350,c),
(412,350,l),
(411,313,o),
(406,267,o),
(394,216,cs),
(371,105,o),
(324,43,o),
(260,43,cs),
(140,43,o),
(125,260,o),
(220,690,c),
(159,690,l),
(13,0,l),
(73,0,l),
(163,423,l),
(149,424,l),
(97,144,o),
(137,-13,o),
(267,-13,cs)
);
}
);
width = 502;
}
);
metricLeft = "nunavuth-canadian";
metricRight = "=|heSayisi-canadian";
note = uni15C3;
unicode = 5571;
},
{
color = 9;
glyphname = "ghuCarrier-canadian";
lastChange = "2023-01-13 15:56:15 +0000";
layers = (
{
layerId = "A0BEBE03-9AB7-4E04-894D-4F686A7231C4";
shapes = (
{
closed = 1;
nodes = (
(231,0,l),
(603,670,l),
(608,690,l),
(554,690,l),
(423,447,l),
(450,461,l),
(180,461,l),
(201,446,l),
(173,690,l),
(124,690,l),
(120,670,l),
(207,0,l)
);
},
{
closed = 1;
nodes = (
(425,413,l),
(412,427,l),
(227,84,l),
(244,81,l),
(204,425,l),
(185,413,l)
);
}
);
width = 538;
}
);
metricLeft = "e-canadian";
metricRight = "e-canadian";
note = uni15C4;
unicode = 5572;
},
{
color = 9;
glyphname = "ghoCarrier-canadian";
lastChange = "2023-01-13 15:56:15 +0000";
layers = (
{
layerId = "A0BEBE03-9AB7-4E04-894D-4F686A7231C4";
shapes = (
{
closed = 1;
nodes = (
(30,0,l),
(161,242,l),
(133,229,l),
(405,229,l),
(383,243,l),
(411,0,l),
(460,0,l),
(465,19,l),
(377,690,l),
(353,690,l),
(-19,19,l),
(-23,0,l)
);
},
{
closed = 1;
nodes = (
(391,324,l),
(185,327,l),
(199,265,l),
(364,558,l),
(313,559,l),
(353,262,l)
);
}
);
width = 538;
}
);
metricLeft = "e-canadian";
metricRight = "e-canadian";
note = uni15C5;
unicode = 5573;
},
{
color = 9;
glyphname = "gheCarrier-canadian";
lastChange = "2023-01-13 15:56:17 +0000";
layers = (
{
anchors = (
{
name = middle_center_can;
pos = (81,351);
}
);
layerId = "A0BEBE03-9AB7-4E04-894D-4F686A7231C4";
shapes = (
{
closed = 1;
nodes = (
(9,0,l),
(484,332,l),
(490,357,l),
(155,690,l),
(138,690,l),
(128,646,l),
(239,537,l),
(232,578,l),
(135,128,l),
(156,164,l),
(3,57,l),
(-9,0,l)
);
},
{
closed = 1;
nodes = (
(269,548,l),
(250,531,l),
(449,332,l),
(451,366,l),
(178,175,l),
(186,158,l)
);
}
);
width = 495;
}
);
metricLeft = "po-canadian";
metricRight = "o-canadian";
note = uni15C6;
unicode = 5574;
},
{
color = 9;
glyphname = "ghaCarrier-canadian";
lastChange = "2023-01-13 15:56:17 +0000";
layers = (
{
layerId = "A0BEBE03-9AB7-4E04-894D-4F686A7231C4";
shapes = (
{
closed = 1;
nodes = (
(403,0,l),
(412,43,l),
(302,153,l),
(309,112,l),
(406,561,l),
(384,526,l),
(538,633,l),
(550,690,l),
(532,690,l),
(57,357,l),
(51,332,l),
(385,0,l)
);
},
{
closed = 1;
nodes = (
(291,158,l),
(100,350,l),
(99,329,l),
(363,515,l),
(352,520,l),
(275,158,l)
);
}
);
width = 495;
}
);
metricLeft = "=|o-canadian";
metricRight = "=|po-canadian";
note = uni15C9;
unicode = 5577;
},
{
color = 9;
glyphname = "ruCarrier-canadian";
lastChange = "2023-01-13 15:56:15 +0000";
layers = (
{
layerId = "A0BEBE03-9AB7-4E04-894D-4F686A7231C4";
shapes = (
{
closed = 1;
nodes = (
(231,0,l),
(603,670,l),
(608,690,l),
(552,690,l),
(499,592,l),
(523,608,l),
(165,608,l),
(185,592,l),
(173,690,l),
(124,690,l),
(120,670,l),
(207,0,l)
);
},
{
closed = 1;
nodes = (
(499,559,l),
(493,575,l),
(227,85,l),
(244,82,l),
(185,573,l),
(170,559,l)
);
}
);
width = 538;
}
);
metricLeft = "e-canadian";
metricRight = "e-canadian";
note = uni15CA;
unicode = 5578;
},
{
color = 9;
glyphname = "roCarrier-canadian";
lastChange = "2023-01-13 15:56:15 +0000";
layers = (
{
layerId = "A0BEBE03-9AB7-4E04-894D-4F686A7231C4";
shapes = (
{
closed = 1;
nodes = (
(353,690,l),
(-19,19,l),
(-23,0,l),
(33,0,l),
(84,98,l),
(62,82,l),
(419,82,l),
(400,98,l),
(411,0,l),
(460,0,l),
(464,19,l),
(377,690,l)
);
},
{
closed = 1;
nodes = (
(85,130,l),
(92,115,l),
(357,605,l),
(339,608,l),
(398,117,l),
(414,130,l)
);
}
);
width = 537;
}
);
metricLeft = "e-canadian";
metricRight = "e-canadian";
note = uni15CB;
unicode = 5579;
},
{
color = 9;
glyphname = "reCarrier-canadian";
lastChange = "2023-01-13 15:56:15 +0000";
layers = (
{
layerId = "A0BEBE03-9AB7-4E04-894D-4F686A7231C4";
shapes = (
{
closed = 1;
nodes = (
(10,0,l),
(484,332,l),
(490,357,l),
(156,690,l),
(138,690,l),
(128,647,l),
(184,593,l),
(178,633,l),
(58,71,l),
(75,105,l),
(3,55,l),
(-9,0,l)
);
},
{
closed = 1;
nodes = (
(215,596,l),
(197,581,l),
(442,333,l),
(445,366,l),
(103,124,l),
(111,107,l)
);
}
);
width = 495;
}
);
metricLeft = "po-canadian";
metricRight = "o-canadian";
note = uni15CC;
unicode = 5580;
},
{
color = 9;
glyphname = "reeCarrier-canadian";
lastChange = "2023-01-13 15:56:17 +0000";
layers = (
{
layerId = "A0BEBE03-9AB7-4E04-894D-4F686A7231C4";
shapes = (
{
closed = 1;
nodes = (
(9,0,l),
(484,332,l),
(490,357,l),
(155,690,l),
(138,690,l),
(129,652,l),
(181,601,l),
(179,637,l),
(57,68,l),
(74,102,l),
(2,52,l),
(-9,0,l)
);
},
{
closed = 1;
nodes = (
(212,608,l),
(196,590,l),
(453,333,l),
(456,367,l),
(95,112,l),
(104,96,l)
);
},
{
closed = 1;
nodes = (
(220,259,l),
(259,440,l),
(232,440,l),
(193,259,l)
);
}
);
width = 495;
}
);
metricLeft = "po-canadian";
metricRight = "o-canadian";
note = uni15CD;
unicode = 5581;
},
{
color = 9;
glyphname = "riCarrier-canadian";
lastChange = "2023-01-13 15:56:17 +0000";
layers = (
{
layerId = "A0BEBE03-9AB7-4E04-894D-4F686A7231C4";
shapes = (
{
closed = 1;
nodes = (
(9,0,l),
(484,332,l),
(490,357,l),
(155,690,l),
(138,690,l),
(129,652,l),
(182,600,l),
(179,637,l),
(57,68,l),
(76,103,l),
(2,52,l),
(-9,0,l)
);
},
{
closed = 1;
nodes = (
(282,317,o),
(297,331,o),
(297,351,cs),
(297,369,o),
(282,384,o),
(264,384,cs),
(245,384,o),
(231,369,o),
(231,351,cs),
(231,331,o),
(245,317,o),
(264,317,cs)
);
},
{
closed = 1;
nodes = (
(212,608,l),
(195,592,l),
(453,333,l),
(456,367,l),
(96,113,l),
(104,96,l)
);
}
);
width = 495;
}
);
metricLeft = "po-canadian";
metricRight = "o-canadian";
note = uni15CE;
unicode = 5582;
},
{
color = 9;
glyphname = "raCarrier-canadian";
lastChange = "2023-01-13 15:56:17 +0000";
layers = (
{
layerId = "A0BEBE03-9AB7-4E04-894D-4F686A7231C4";
shapes = (
{
closed = 1;
nodes = (
(403,0,l),
(412,43,l),
(357,97,l),
(363,57,l),
(483,619,l),
(466,584,l),
(538,635,l),
(550,690,l),
(531,690,l),
(57,357,l),
(51,332,l),
(384,0,l)
);
},
{
closed = 1;
nodes = (
(344,109,l),
(99,356,l),
(96,324,l),
(438,566,l),
(430,582,l),
(326,94,l)
);
}
);
width = 494;
}
);
metricLeft = "=|o-canadian";
metricRight = "=|po-canadian";
note = uni15CF;
unicode = 5583;
},
{
color = 9;
glyphname = "wuCarrier-canadian";
lastChange = "2023-01-13 15:56:15 +0000";
layers = (
{
layerId = "A0BEBE03-9AB7-4E04-894D-4F686A7231C4";
shapes = (
{
closed = 1;
nodes = (
(233,0,l),
(608,670,l),
(612,690,l),
(558,690,l),
(264,142,l),
(274,141,l),
(391,690,l),
(342,690,l),
(224,138,l),
(235,138,l),
(171,690,l),
(124,690,l),
(120,670,l),
(210,0,l)
);
}
);
width = 543;
}
);
metricLeft = "e-canadian";
metricRight = "e-canadian";
note = uni15D0;
unicode = 5584;
},
{
color = 9;
glyphname = "woCarrier-canadian";
lastChange = "2023-01-13 15:56:15 +0000";
layers = (
{
layerId = "A0BEBE03-9AB7-4E04-894D-4F686A7231C4";
shapes = (
{
closed = 1;
nodes = (
(31,0,l),
(325,548,l),
(315,549,l),
(198,0,l),
(247,0,l),
(364,552,l),
(354,552,l),
(418,0,l),
(465,0,l),
(469,19,l),
(380,690,l),
(355,690,l),
(-19,19,l),
(-23,0,l)
);
}
);
width = 542;
}
);
metricLeft = "e-canadian";
metricRight = "e-canadian";
note = uni15D1;
unicode = 5585;
},
{
color = 9;
glyphname = "weCarrier-canadian";
lastChange = "2023-01-13 15:56:15 +0000";
layers = (
{
layerId = "A0BEBE03-9AB7-4E04-894D-4F686A7231C4";
shapes = (
{
closed = 1;
nodes = (
(28,0,l),
(503,332,l),
(509,357,l),
(175,690,l),
(157,690,l),
(148,646,l),
(429,365,l),
(433,377,l),
(91,377,l),
(80,327,l),
(422,327,l),
(424,337,l),
(22,56,l),
(11,0,l)
);
}
);
width = 514;
}
);
metricRight = "o-canadian";
note = uni15D2;
unicode = 5586;
},
{
color = 9;
glyphname = "weeCarrier-canadian";
lastChange = "2023-01-13 15:56:15 +0000";
layers = (
{
layerId = "A0BEBE03-9AB7-4E04-894D-4F686A7231C4";
shapes = (
{
closed = 1;
nodes = (
(28,0,l),
(503,332,l),
(509,357,l),
(175,690,l),
(157,690,l),
(149,648,l),
(447,354,l),
(454,373,l),
(195,373,l),
(212,448,l),
(176,448,l),
(159,373,l),
(90,373,l),
(81,331,l),
(150,331,l),
(134,256,l),
(171,256,l),
(186,331,l),
(445,331,l),
(438,344,l),
(22,53,l),
(11,0,l)
);
}
);
width = 514;
}
);
metricLeft = "weCarrier-canadian";
metricRight = "o-canadian";
note = uni15D3;
unicode = 5587;
},
{
color = 9;
glyphname = "wiCarrier-canadian";
lastChange = "2023-01-13 15:56:17 +0000";
layers = (
{
layerId = "A0BEBE03-9AB7-4E04-894D-4F686A7231C4";
shapes = (
{
closed = 1;
nodes = (
(28,0,l),
(503,332,l),
(509,357,l),
(175,690,l),
(157,690,l),
(149,648,l),
(437,362,l),
(441,375,l),
(242,375,l),
(236,394,o),
(216,408,o),
(194,408,cs),
(172,408,o),
(153,394,o),
(145,375,c),
(90,375,l),
(81,332,l),
(144,332,l),
(153,313,o),
(172,298,o),
(194,298,cs),
(215,298,o),
(236,313,o),
(243,332,c),
(434,332,l),
(430,339,l),
(22,54,l),
(11,0,l)
);
}
);
width = 514;
}
);
metricLeft = "weCarrier-canadian";
metricRight = "o-canadian";
note = uni15D4;
unicode = 5588;
},
{
color = 9;
glyphname = "waCarrier-canadian";
lastChange = "2023-01-13 15:56:17 +0000";
layers = (
{
layerId = "A0BEBE03-9AB7-4E04-894D-4F686A7231C4";
shapes = (
{
closed = 1;
nodes = (
(402,0,l),
(412,43,l),
(131,325,l),
(128,313,l),
(469,313,l),
(479,362,l),
(138,362,l),
(136,353,l),
(537,634,l),
(549,690,l),
(531,690,l),
(57,357,l),
(51,332,l),
(384,0,l)
);
}
);
width = 513;
}
);
metricLeft = "=|o-canadian";
metricRight = "=|weCarrier-canadian";
note = uni15D5;
unicode = 5589;
},
{
color = 9;
glyphname = "hwuCarrier-canadian";
lastChange = "2023-01-13 15:56:15 +0000";
layers = (
{
layerId = "A0BEBE03-9AB7-4E04-894D-4F686A7231C4";
shapes = (
{
closed = 1;
nodes = (
(233,0,l),
(608,670,l),
(612,690,l),
(561,690,l),
(434,455,l),
(454,467,l),
(337,467,l),
(385,690,l),
(345,690,l),
(297,467,l),
(180,467,l),
(197,454,l),
(168,690,l),
(124,690,l),
(120,670,l),
(210,0,l)
);
},
{
closed = 1;
nodes = (
(235,119,l),
(197,443,l),
(182,429,l),
(291,429,l),
(225,119,l)
);
},
{
closed = 1;
nodes = (
(327,429,l),
(435,429,l),
(427,442,l),
(253,120,l),
(261,116,l)
);
}
);
width = 543;
}
);
metricLeft = "e-canadian";
metricRight = "e-canadian";
note = uni15D6;
unicode = 5590;
},
{
color = 9;
glyphname = "hwoCarrier-canadian";
lastChange = "2023-01-13 15:56:15 +0000";
layers = (
{
layerId = "A0BEBE03-9AB7-4E04-894D-4F686A7231C4";
shapes = (
{
closed = 1;
nodes = (
(28,0,l),
(156,235,l),
(135,223,l),
(251,223,l),
(204,0,l),
(244,0,l),
(292,223,l),
(410,223,l),
(392,236,l),
(420,0,l),
(465,0,l),
(469,19,l),
(380,690,l),
(355,690,l),
(-19,19,l),
(-23,0,l)
);
},
{
closed = 1;
nodes = (
(335,570,l),
(327,574,l),
(262,261,l),
(154,261,l),
(161,247,l)
);
},
{
closed = 1;
nodes = (
(407,261,l),
(298,261,l),
(363,571,l),
(355,571,l),
(392,246,l)
);
}
);
width = 542;
}
);
metricLeft = "e-canadian";
metricRight = "e-canadian";
note = uni15D7;
unicode = 5591;
},
{
color = 9;
glyphname = "hweCarrier-canadian";
lastChange = "2023-01-13 15:56:17 +0000";
layers = (
{
layerId = "A0BEBE03-9AB7-4E04-894D-4F686A7231C4";
shapes = (
{
closed = 1;
nodes = (
(28,0,l),
(503,332,l),
(509,357,l),
(175,690,l),
(157,690,l),
(149,648,l),
(242,555,l),
(204,372,l),
(90,372,l),
(80,329,l),
(194,329,l),
(155,147,l),
(21,53,l),
(11,0,l)
);
},
{
closed = 1;
nodes = (
(231,332,l),
(429,332,l),
(197,171,l)
);
},
{
closed = 1;
nodes = (
(273,531,l),
(436,369,l),
(239,369,l)
);
}
);
width = 514;
}
);
metricLeft = "weCarrier-canadian";
metricRight = "o-canadian";
note = uni15D8;
unicode = 5592;
},
{
color = 9;
glyphname = "hweeCarrier-canadian";
lastChange = "2023-01-13 15:56:15 +0000";
layers = (
{
layerId = "A0BEBE03-9AB7-4E04-894D-4F686A7231C4";
shapes = (
{
closed = 1;
nodes = (
(28,0,l),
(503,332,l),
(509,357,l),
(175,690,l),
(157,690,l),
(149,651,l),
(254,548,l),
(216,370,l),
(174,370,l),
(190,447,l),
(158,447,l),
(142,370,l),
(89,370,l),
(81,332,l),
(133,332,l),
(118,256,l),
(150,256,l),
(165,332,l),
(209,332,l),
(170,155,l),
(21,51,l),
(11,0,l)
);
},
{
closed = 1;
nodes = (
(242,334,l),
(431,334,l),
(210,177,l)
);
},
{
closed = 1;
nodes = (
(283,525,l),
(437,368,l),
(249,368,l)
);
}
);
width = 514;
}
);
metricLeft = "weCarrier-canadian";
metricRight = "o-canadian";
note = uni15D9;
unicode = 5593;
},
{
color = 9;
glyphname = "hwiCarrier-canadian";
lastChange = "2023-01-13 15:56:17 +0000";
layers = (
{
layerId = "A0BEBE03-9AB7-4E04-894D-4F686A7231C4";
shapes = (
{
closed = 1;
nodes = (
(28,0,l),
(503,332,l),
(509,357,l),
(175,690,l),
(157,690,l),
(149,651,l),
(254,548,l),
(216,368,l),
(195,368,l),
(189,386,o),
(173,399,o),
(154,399,cs),
(133,399,o),
(117,386,o),
(111,368,c),
(89,368,l),
(81,334,l),
(110,334,l),
(116,316,o),
(133,301,o),
(153,301,cs),
(172,301,o),
(189,316,o),
(196,334,c),
(209,334,l),
(170,155,l),
(21,51,l),
(11,0,l)
);
},
{
closed = 1;
nodes = (
(242,334,l),
(431,334,l),
(209,177,l)
);
},
{
closed = 1;
nodes = (
(283,525,l),
(437,368,l),
(249,368,l)
);
}
);
width = 514;
}
);
metricLeft = "weCarrier-canadian";
metricRight = "o-canadian";
note = uni15DA;
unicode = 5594;
},
{
color = 9;
glyphname = "hwaCarrier-canadian";
lastChange = "2023-01-13 15:56:17 +0000";
layers = (
{
layerId = "A0BEBE03-9AB7-4E04-894D-4F686A7231C4";
shapes = (
{
closed = 1;
nodes = (
(532,690,l),
(57,357,l),
(51,332,l),
(385,0,l),
(403,0,l),
(412,42,l),
(318,134,l),
(356,318,l),
(469,318,l),
(479,360,l),
(366,360,l),
(405,543,l),
(538,637,l),
(550,690,l)
);
},
{
closed = 1;
nodes = (
(328,357,l),
(131,357,l),
(363,519,l)
);
},
{
closed = 1;
nodes = (
(287,158,l),
(125,321,l),
(321,321,l)
);
}
);
width = 513;
}
);
metricLeft = "=|o-canadian";
metricRight = "=|weCarrier-canadian";
note = uni15DB;
unicode = 5595;
},
{
color = 9;
glyphname = "thuCarrier-canadian";
lastChange = "2023-01-13 15:56:15 +0000";
layers = (
{
layerId = "A0BEBE03-9AB7-4E04-894D-4F686A7231C4";
shapes = (
{
closed = 1;
nodes = (
(372,-13,o),
(448,60,o),
(480,213,cs),
(582,690,l),
(156,690,l),
(61,244,ls),
(27,82,o),
(96,-13,o),
(247,-13,cs)
);
},
{
closed = 1;
nodes = (
(206,634,l),
(509,634,l),
(421,219,ls),
(395,99,o),
(342,45,o),
(250,45,cs),
(134,45,o),
(94,110,o),
(122,242,cs)
);
}
);
width = 544;
}
);
metricLeft = "te-canadian";
metricRight = "te-canadian";
note = uni15DC;
unicode = 5596;
},
{
color = 9;
glyphname = "thoCarrier-canadian";
lastChange = "2023-01-13 15:56:15 +0000";
layers = (
{
layerId = "A0BEBE03-9AB7-4E04-894D-4F686A7231C4";
shapes = (
{
closed = 1;
nodes = (
(435,0,l),
(529,445,ls),
(564,608,o),
(496,702,o),
(344,702,cs),
(219,702,o),
(143,630,o),
(110,477,cs),
(9,0,l)
);
},
{
closed = 1;
nodes = (
(170,470,ls),
(196,591,o),
(249,644,o),
(341,644,cs),
(457,644,o),
(497,580,o),
(469,448,cs),
(385,56,l),
(82,56,l)
);
}
);
width = 544;
}
);
metricLeft = "te-canadian";
metricRight = "te-canadian";
note = uni15DD;
unicode = 5597;
},
{
color = 9;
glyphname = "theCarrier-canadian";
lastChange = "2023-01-13 15:56:17 +0000";
layers = (
{
anchors = (
{
name = middle_center_can;
pos = (287,345);
}
);
layerId = "A0BEBE03-9AB7-4E04-894D-4F686A7231C4";
shapes = (
{
closed = 1;
nodes = (
(148,0,ls),
(430,0,o),
(512,291,o),
(512,460,cs),
(512,611,o),
(433,690,o),
(281,690,cs),
(159,690,l),
(13,0,l)
);
},
{
closed = 1;
nodes = (
(214,663,l),
(190,635,l),
(270,635,ls),
(391,635,o),
(452,577,o),
(452,459,cs),
(452,327,o),
(387,55,o),
(154,55,cs),
(71,55,l),
(80,30,l)
);
}
);
width = 525;
}
);
metricLeft = "nunavuth-canadian";
metricRight = "to-canadian";
note = uni15DE;
unicode = 5598;
},
{
color = 9;
glyphname = "thaCarrier-canadian";
lastChange = "2023-01-13 15:56:17 +0000";
layers = (
{
layerId = "A0BEBE03-9AB7-4E04-894D-4F686A7231C4";
shapes = (
{
closed = 1;
nodes = (
(412,0,l),
(559,690,l),
(424,690,ls),
(142,690,o),
(59,399,o),
(59,230,cs),
(59,79,o),
(139,0,o),
(291,0,cs)
);
},
{
closed = 1;
nodes = (
(119,363,o),
(184,635,o),
(417,635,cs),
(500,635,l),
(492,660,l),
(357,27,l),
(382,55,l),
(300,55,ls),
(181,55,o),
(119,113,o),
(119,231,cs)
);
}
);
width = 524;
}
);
metricLeft = "=|theCarrier-canadian";
metricRight = "nunavuth-canadian";
note = uni15E1;
unicode = 5601;
},
{
color = 9;
glyphname = "ttuCarrier-canadian";
lastChange = "2023-01-13 15:56:15 +0000";
layers = (
{
layerId = "A0BEBE03-9AB7-4E04-894D-4F686A7231C4";
shapes = (
{
closed = 1;
nodes = (
(370,-13,o),
(447,60,o),
(479,204,cs),
(582,690,l),
(559,690,l),
(305,497,l),
(344,492,l),
(180,690,l),
(156,690,l),
(60,237,ls),
(26,78,o),
(93,-13,o),
(242,-13,cs)
);
},
{
closed = 1;
nodes = (
(135,45,o),
(94,109,o),
(120,234,cs),
(203,623,l),
(180,615,l),
(311,452,l),
(327,452,l),
(526,610,l),
(506,623,l),
(419,212,ls),
(395,98,o),
(340,45,o),
(244,45,cs)
);
}
);
width = 545;
}
);
metricLeft = "te-canadian";
metricRight = "te-canadian";
note = uni15E2;
unicode = 5602;
},
{
color = 9;
glyphname = "ttoCarrier-canadian";
lastChange = "2023-01-13 15:56:15 +0000";
layers = (
{
layerId = "A0BEBE03-9AB7-4E04-894D-4F686A7231C4";
shapes = (
{
closed = 1;
nodes = (
(32,0,l),
(286,193,l),
(247,198,l),
(411,0,l),
(435,0,l),
(531,453,ls),
(565,611,o),
(497,702,o),
(349,702,cs),
(221,702,o),
(143,630,o),
(112,486,cs),
(9,0,l)
);
},
{
closed = 1;
nodes = (
(456,644,o),
(497,581,o),
(470,456,cs),
(388,67,l),
(411,74,l),
(280,238,l),
(265,238,l),
(65,80,l),
(85,67,l),
(172,478,ls),
(196,592,o),
(251,644,o),
(347,644,cs)
);
}
);
width = 544;
}
);
metricLeft = "te-canadian";
metricRight = "te-canadian";
note = uni15E3;
unicode = 5603;
},
{
color = 9;
glyphname = "tteCarrier-canadian";
lastChange = "2023-01-13 15:56:15 +0000";
layers = (
{
anchors = (
{
name = middle_center_can;
pos = (327,345);
}
);
layerId = "A0BEBE03-9AB7-4E04-894D-4F686A7231C4";
shapes = (
{
closed = 1;
nodes = (
(156,0,ls),
(440,0,o),
(522,293,o),
(522,460,cs),
(522,611,o),
(441,690,o),
(293,690,cs),
(156,690,l),
(151,670,l),
(175,325,l),
(184,377,l),
(14,19,l),
(9,0,l)
);
},
{
closed = 1;
nodes = (
(229,336,l),
(232,351,l),
(209,662,l),
(187,635,l),
(280,635,ls),
(401,635,o),
(463,577,o),
(463,459,cs),
(463,327,o),
(397,55,o),
(163,55,cs),
(69,55,l),
(82,30,l)
);
}
);
width = 535;
}
);
metricRight = "theCarrier-canadian";
note = uni15E4;
unicode = 5604;
},
{
color = 9;
glyphname = "ttaCarrier-canadian";
lastChange = "2023-01-13 15:56:17 +0000";
layers = (
{
layerId = "A0BEBE03-9AB7-4E04-894D-4F686A7231C4";
shapes = (
{
closed = 1;
nodes = (
(425,0,l),
(430,19,l),
(406,365,l),
(397,313,l),
(567,670,l),
(572,690,l),
(424,690,ls),
(140,690,o),
(59,397,o),
(59,230,cs),
(59,79,o),
(139,0,o),
(288,0,cs)
);
},
{
closed = 1;
nodes = (
(393,55,l),
(300,55,ls),
(180,55,o),
(119,113,o),
(119,231,cs),
(119,363,o),
(184,635,o),
(417,635,cs),
(512,635,l),
(498,660,l),
(352,354,l),
(349,339,l),
(372,28,l)
);
}
);
width = 535;
}
);
metricLeft = "=|theCarrier-canadian";
metricRight = "=|tteCarrier-canadian";
note = uni15E7;
unicode = 5607;
},
{
color = 9;
glyphname = "puCarrier-canadian";
lastChange = "2023-01-13 15:56:15 +0000";
layers = (
{
layerId = "A0BEBE03-9AB7-4E04-894D-4F686A7231C4";
shapes = (
{
closed = 1;
nodes = (
(372,-13,o),
(448,60,o),
(480,213,cs),
(582,690,l),
(521,690,l),
(484,517,l),
(181,517,l),
(217,690,l),
(156,690,l),
(61,244,ls),
(27,82,o),
(96,-13,o),
(247,-13,cs)
);
},
{
closed = 1;
nodes = (
(134,45,o),
(94,110,o),
(122,242,cs),
(169,462,l),
(472,462,l),
(421,219,ls),
(395,99,o),
(342,45,o),
(250,45,cs)
);
}
);
width = 544;
}
);
metricLeft = "te-canadian";
metricRight = "te-canadian";
note = uni15E8;
unicode = 5608;
},
{
color = 9;
glyphname = "poCarrier-canadian";
lastChange = "2023-01-13 15:56:15 +0000";
layers = (
{
layerId = "A0BEBE03-9AB7-4E04-894D-4F686A7231C4";
shapes = (
{
closed = 1;
nodes = (
(71,0,l),
(107,173,l),
(411,173,l),
(374,0,l),
(435,0,l),
(529,445,ls),
(564,608,o),
(496,702,o),
(344,702,cs),
(219,702,o),
(143,630,o),
(110,477,cs),
(9,0,l)
);
},
{
closed = 1;
nodes = (
(170,470,ls),
(196,591,o),
(249,644,o),
(341,644,cs),
(457,644,o),
(497,580,o),
(469,448,cs),
(422,228,l),
(119,228,l)
);
}
);
width = 544;
}
);
metricLeft = "te-canadian";
metricRight = "te-canadian";
note = uni15E9;
unicode = 5609;
},
{
color = 9;
glyphname = "peCarrier-canadian";
lastChange = "2023-01-13 15:56:17 +0000";
layers = (
{
anchors = (
{
name = middle_center_can;
pos = (318,345);
}
);
layerId = "A0BEBE03-9AB7-4E04-894D-4F686A7231C4";
shapes = (
{
closed = 1;
nodes = (
(154,0,ls),
(436,0,o),
(519,292,o),
(519,460,cs),
(519,611,o),
(439,690,o),
(290,690,cs),
(153,690,l),
(141,635,l),
(208,635,l),
(85,55,l),
(17,55,l),
(6,0,l)
);
},
{
closed = 1;
nodes = (
(274,662,l),
(216,635,l),
(277,635,ls),
(398,635,o),
(459,577,o),
(459,459,cs),
(459,327,o),
(395,55,o),
(160,55,cs),
(94,55,l),
(140,28,l)
);
}
);
width = 532;
}
);
metricRight = "theCarrier-canadian";
note = uni15EA;
unicode = 5610;
},
{
color = 9;
glyphname = "paCarrier-canadian";
lastChange = "2023-01-13 15:56:17 +0000";
layers = (
{
layerId = "A0BEBE03-9AB7-4E04-894D-4F686A7231C4";
shapes = (
{
closed = 1;
nodes = (
(425,0,l),
(437,55,l),
(370,55,l),
(493,635,l),
(560,635,l),
(572,690,l),
(424,690,ls),
(142,690,o),
(59,398,o),
(59,230,cs),
(59,79,o),
(139,0,o),
(288,0,cs)
);
},
{
closed = 1;
nodes = (
(361,55,l),
(300,55,ls),
(180,55,o),
(119,113,o),
(119,231,cs),
(119,362,o),
(184,635,o),
(417,635,cs),
(485,635,l),
(438,662,l),
(303,28,l)
);
}
);
width = 530;
}
);
metricLeft = "=|theCarrier-canadian";
metricRight = "=|peCarrier-canadian";
note = uni15ED;
unicode = 5613;
},
{
color = 6;
glyphname = "pCarrier-canadian";
lastChange = "2023-01-13 15:56:15 +0000";
layers = (
{
layerId = "A0BEBE03-9AB7-4E04-894D-4F686A7231C4";
shapes = (
{
closed = 1;
nodes = (
(282,183,l),
(292,225,l),
(192,225,l),
(256,527,l),
(213,527,l),
(149,225,l),
(49,225,l),
(41,183,l)
);
}
);
width = 345;
}
);
metricLeft = "shorthorizontalstrokeFinal-canadian";
metricRight = "shorthorizontalstrokeFinal-canadian";
note = uni15EE;
unicode = 5614;
},
{
color = 9;
glyphname = "guCarrier-canadian";
lastChange = "2023-01-13 15:56:15 +0000";
layers = (
{
anchors = (
{
name = top_center_can;
pos = (419,690);
}
);
layerId = "A0BEBE03-9AB7-4E04-894D-4F686A7231C4";
shapes = (
{
closed = 1;
nodes = (
(225,-13,o),
(278,31,o),
(310,113,c),
(288,113,l),
(290,33,o),
(333,-13,o),
(407,-13,cs),
(495,-13,o),
(549,48,o),
(575,170,cs),
(685,690,l),
(626,690,l),
(516,171,ls),
(498,86,o),
(463,44,o),
(405,44,cs),
(346,44,o),
(321,89,o),
(338,171,cs),
(448,690,l),
(391,690,l),
(281,170,ls),
(263,88,o),
(225,44,o),
(166,44,cs),
(108,44,o),
(84,87,o),
(101,170,cs),
(212,690,l),
(153,690,l),
(43,173,ls),
(19,58,o),
(61,-13,o),
(154,-13,cs)
);
}
);
width = 645;
}
);
metricRight = "=|";
note = uni15EF;
unicode = 5615;
},
{
color = 9;
glyphname = "goCarrier-canadian";
lastChange = "2023-01-13 15:56:15 +0000";
layers = (
{
layerId = "A0BEBE03-9AB7-4E04-894D-4F686A7231C4";
shapes = (
{
closed = 1;
nodes = (
(65,0,l),
(175,519,ls),
(192,604,o),
(228,645,o),
(285,645,cs),
(345,645,o),
(370,601,o),
(353,519,cs),
(242,0,l),
(299,0,l),
(410,520,ls),
(427,602,o),
(465,645,o),
(524,645,cs),
(582,645,o),
(606,603,o),
(588,520,cs),
(478,0,l),
(537,0,l),
(646,517,ls),
(670,632,o),
(629,702,o),
(536,702,cs),
(465,702,o),
(412,659,o),
(381,577,c),
(402,577,l),
(401,657,o),
(357,702,o),
(284,702,cs),
(195,702,o),
(141,641,o),
(116,520,cs),
(6,0,l)
);
}
);
width = 643;
}
);
metricLeft = "guCarrier-canadian";
metricRight = "guCarrier-canadian";
note = uni15F0;
unicode = 5616;
},
{
color = 9;
glyphname = "geCarrier-canadian";
lastChange = "2023-01-13 15:56:15 +0000";
layers = (
{
anchors = (
{
name = top_center_can;
pos = (366,690);
}
);
layerId = "A0BEBE03-9AB7-4E04-894D-4F686A7231C4";
shapes = (
{
closed = 1;
nodes = (
(242,0,ls),
(417,0,o),
(465,121,o),
(465,217,cs),
(465,289,o),
(431,339,o),
(370,353,c),
(369,331,l),
(493,355,o),
(533,453,o),
(533,536,cs),
(533,627,o),
(472,690,o),
(376,690,cs),
(159,690,l),
(148,638,l),
(367,638,ls),
(433,638,o),
(471,596,o),
(471,531,cs),
(471,449,o),
(429,371,o),
(311,371,cs),
(92,371,l),
(80,319,l),
(300,319,ls),
(369,319,o),
(406,286,o),
(406,222,cs),
(406,172,o),
(393,52,o),
(246,52,cs),
(24,52,l),
(14,0,l)
);
}
);
width = 534;
}
);
metricLeft = "nunavuth-canadian";
note = uni15F1;
unicode = 5617;
},
{
color = 9;
glyphname = "geeCarrier-canadian";
lastChange = "2023-01-13 15:56:15 +0000";
layers = (
{
layerId = "A0BEBE03-9AB7-4E04-894D-4F686A7231C4";
shapes = (
{
closed = 1;
nodes = (
(242,0,ls),
(417,0,o),
(465,121,o),
(465,217,cs),
(465,289,o),
(431,339,o),
(370,353,c),
(369,331,l),
(493,355,o),
(533,453,o),
(533,536,cs),
(533,627,o),
(472,690,o),
(376,690,cs),
(159,690,l),
(148,638,l),
(367,638,ls),
(433,638,o),
(471,596,o),
(471,531,cs),
(471,449,o),
(429,371,o),
(311,371,cs),
(289,371,l),
(306,452,l),
(267,452,l),
(249,371,l),
(92,371,l),
(80,319,l),
(239,319,l),
(221,240,l),
(261,240,l),
(278,319,l),
(300,319,ls),
(369,319,o),
(406,286,o),
(406,222,cs),
(406,172,o),
(393,52,o),
(246,52,cs),
(24,52,l),
(14,0,l)
);
}
);
width = 534;
}
);
metricLeft = "geCarrier-canadian";
metricRight = "geCarrier-canadian";
note = uni15F2;
unicode = 5618;
},
{
color = 9;
glyphname = "giCarrier-canadian";
lastChange = "2023-01-13 15:56:15 +0000";
layers = (
{
layerId = "A0BEBE03-9AB7-4E04-894D-4F686A7231C4";
shapes = (
{
closed = 1;
nodes = (
(242,0,ls),
(417,0,o),
(465,121,o),
(465,217,cs),
(465,288,o),
(431,339,o),
(370,353,c),
(369,331,l),
(493,355,o),
(533,454,o),
(533,536,cs),
(533,627,o),
(472,690,o),
(376,690,cs),
(159,690,l),
(148,638,l),
(367,638,ls),
(433,638,o),
(471,596,o),
(471,531,cs),
(471,449,o),
(429,371,o),
(311,371,cs),
(302,371,l),
(321,354,l),
(318,382,o),
(294,404,o),
(264,404,cs),
(242,404,o),
(222,390,o),
(213,371,c),
(92,371,l),
(80,319,l),
(213,319,l),
(222,299,o),
(242,286,o),
(264,286,cs),
(294,286,o),
(318,308,o),
(320,336,c),
(294,319,l),
(300,319,ls),
(369,319,o),
(406,286,o),
(406,222,cs),
(406,172,o),
(393,52,o),
(246,52,cs),
(24,52,l),
(14,0,l)
);
}
);
width = 534;
}
);
metricLeft = "geCarrier-canadian";
metricRight = "geCarrier-canadian";
note = uni15F3;
unicode = 5619;
},
{
color = 9;
glyphname = "gaCarrier-canadian";
lastChange = "2023-01-13 15:56:17 +0000";
layers = (
{
anchors = (
{
name = top_center_can;
pos = (377,690);
}
);
layerId = "A0BEBE03-9AB7-4E04-894D-4F686A7231C4";
shapes = (
{
closed = 1;
nodes = (
(422,0,l),
(433,52,l),
(214,52,ls),
(148,52,o),
(109,94,o),
(109,158,cs),
(109,241,o),
(152,319,o),
(270,319,cs),
(491,319,l),
(501,371,l),
(280,371,ls),
(213,371,o),
(176,404,o),
(176,468,cs),
(176,518,o),
(187,638,o),
(335,638,cs),
(556,638,l),
(568,690,l),
(339,690,ls),
(164,690,o),
(116,569,o),
(116,472,cs),
(116,401,o),
(151,351,o),
(212,337,c),
(213,358,l),
(88,335,o),
(48,237,o),
(48,154,cs),
(48,63,o),
(108,0,o),
(205,0,cs)
);
}
);
width = 535;
}
);
metricLeft = "=|geCarrier-canadian";
metricRight = "=|geCarrier-canadian";
note = uni15F4;
unicode = 5620;
},
{
color = 9;
glyphname = "khuCarrier-canadian";
lastChange = "2023-01-13 15:56:15 +0000";
layers = (
{
layerId = "A0BEBE03-9AB7-4E04-894D-4F686A7231C4";
shapes = (
{
closed = 1;
nodes = (
(222,-13,o),
(273,27,o),
(304,102,c),
(289,103,l),
(293,30,o),
(335,-13,o),
(407,-13,cs),
(495,-13,o),
(549,48,o),
(575,170,cs),
(685,690,l),
(153,690,l),
(43,173,ls),
(19,58,o),
(61,-13,o),
(154,-13,cs)
);
},
{
closed = 1;
nodes = (
(108,44,o),
(84,87,o),
(101,170,cs),
(200,635,l),
(380,635,l),
(281,170,ls),
(263,88,o),
(225,44,o),
(166,44,cs)
);
},
{
closed = 1;
nodes = (
(346,44,o),
(321,89,o),
(338,171,cs),
(437,635,l),
(614,635,l),
(516,171,ls),
(498,86,o),
(463,44,o),
(405,44,cs)
);
}
);
width = 645;
}
);
metricLeft = "guCarrier-canadian";
metricRight = "guCarrier-canadian";
note = uni15F5;
unicode = 5621;
},
{
color = 9;
glyphname = "khoCarrier-canadian";
lastChange = "2023-01-13 15:56:15 +0000";
layers = (
{
layerId = "A0BEBE03-9AB7-4E04-894D-4F686A7231C4";
shapes = (
{
closed = 1;
nodes = (
(537,0,l),
(646,517,ls),
(670,632,o),
(629,702,o),
(536,702,cs),
(468,702,o),
(416,663,o),
(385,587,c),
(402,586,l),
(397,660,o),
(355,702,o),
(284,702,cs),
(195,702,o),
(141,641,o),
(116,520,cs),
(6,0,l)
);
},
{
closed = 1;
nodes = (
(174,519,ls),
(192,604,o),
(227,645,o),
(285,645,cs),
(345,645,o),
(370,601,o),
(353,519,cs),
(253,55,l),
(76,55,l)
);
},
{
closed = 1;
nodes = (
(410,520,ls),
(427,602,o),
(465,645,o),
(524,645,cs),
(582,645,o),
(606,603,o),
(588,520,cs),
(490,55,l),
(311,55,l)
);
}
);
width = 643;
}
);
metricLeft = "guCarrier-canadian";
metricRight = "guCarrier-canadian";
note = uni15F6;
unicode = 5622;
},
{
color = 9;
glyphname = "kheCarrier-canadian";
lastChange = "2023-01-13 15:56:15 +0000";
layers = (
{
layerId = "A0BEBE03-9AB7-4E04-894D-4F686A7231C4";
shapes = (
{
closed = 1;
nodes = (
(244,0,ls),
(419,0,o),
(467,120,o),
(467,217,cs),
(467,288,o),
(433,338,o),
(373,352,c),
(373,331,l),
(501,357,o),
(535,460,o),
(535,536,cs),
(535,627,o),
(474,690,o),
(376,690,cs),
(159,690,l),
(13,0,l)
);
},
{
closed = 1;
nodes = (
(141,319,l),
(302,319,ls),
(370,319,o),
(407,286,o),
(407,222,cs),
(407,171,o),
(395,52,o),
(248,52,cs),
(84,52,l)
);
},
{
closed = 1;
nodes = (
(209,638,l),
(369,638,ls),
(435,638,o),
(473,596,o),
(473,531,cs),
(473,453,o),
(434,371,o),
(313,371,cs),
(153,371,l)
);
}
);
width = 536;
}
);
metricLeft = "nunavuth-canadian";
metricRight = "geCarrier-canadian";
note = uni15F7;
unicode = 5623;
},
{
color = 9;
glyphname = "kheeCarrier-canadian";
lastChange = "2023-01-13 15:56:15 +0000";
layers = (
{
layerId = "A0BEBE03-9AB7-4E04-894D-4F686A7231C4";
shapes = (
{
closed = 1;
nodes = (
(244,0,ls),
(419,0,o),
(467,120,o),
(467,217,cs),
(467,288,o),
(433,338,o),
(373,352,c),
(373,331,l),
(501,357,o),
(535,460,o),
(535,536,cs),
(535,627,o),
(474,690,o),
(376,690,cs),
(159,690,l),
(13,0,l)
);
},
{
closed = 1;
nodes = (
(141,319,l),
(253,319,l),
(235,231,l),
(271,231,l),
(293,334,l),
(271,319,l),
(302,319,ls),
(370,319,o),
(407,286,o),
(407,222,cs),
(407,171,o),
(395,52,o),
(248,52,cs),
(84,52,l)
);
},
{
closed = 1;
nodes = (
(320,461,l),
(283,461,l),
(264,371,l),
(153,371,l),
(209,638,l),
(369,638,ls),
(435,638,o),
(473,596,o),
(473,531,cs),
(473,453,o),
(434,371,o),
(313,371,cs),
(283,371,l),
(298,356,l)
);
}
);
width = 536;
}
);
metricLeft = "nunavuth-canadian";
metricRight = "geCarrier-canadian";
note = uni15F8;
unicode = 5624;
},
{
color = 9;
glyphname = "khiCarrier-canadian";
lastChange = "2023-01-13 15:56:15 +0000";
layers = (
{
layerId = "A0BEBE03-9AB7-4E04-894D-4F686A7231C4";
shapes = (
{
closed = 1;
nodes = (
(244,0,ls),
(419,0,o),
(467,120,o),
(467,217,cs),
(467,284,o),
(437,332,o),
(383,350,c),
(375,331,l),
(501,358,o),
(535,460,o),
(535,536,cs),
(535,627,o),
(474,690,o),
(376,690,cs),
(159,690,l),
(13,0,l)
);
},
{
closed = 1;
nodes = (
(141,322,l),
(225,322,l),
(233,300,o),
(253,286,o),
(276,286,cs),
(306,286,o),
(330,310,o),
(332,340,c),
(288,322,l),
(305,322,ls),
(373,322,o),
(407,288,o),
(407,224,cs),
(407,172,o),
(395,52,o),
(248,52,cs),
(84,52,l)
);
},
{
closed = 1;
nodes = (
(369,638,ls),
(435,638,o),
(473,595,o),
(473,530,cs),
(473,451,o),
(437,368,o),
(316,368,cs),
(298,368,l),
(332,350,l),
(330,380,o),
(306,404,o),
(276,404,cs),
(246,404,o),
(221,380,o),
(221,350,c),
(238,368,l),
(152,368,l),
(209,638,l)
);
}
);
width = 536;
}
);
metricLeft = "nunavuth-canadian";
metricRight = "geCarrier-canadian";
note = uni15F9;
unicode = 5625;
},
{
color = 9;
glyphname = "khaCarrier-canadian";
lastChange = "2023-01-13 15:56:17 +0000";
layers = (
{
layerId = "A0BEBE03-9AB7-4E04-894D-4F686A7231C4";
shapes = (
{
closed = 1;
nodes = (
(425,0,l),
(572,690,l),
(340,690,ls),
(164,690,o),
(117,570,o),
(117,472,cs),
(117,402,o),
(151,352,o),
(211,338,c),
(209,358,l),
(81,332,o),
(47,230,o),
(47,154,cs),
(47,63,o),
(107,0,o),
(207,0,cs)
);
},
{
closed = 1;
nodes = (
(148,52,o),
(108,94,o),
(108,158,cs),
(108,237,o),
(150,319,o),
(270,319,cs),
(432,319,l),
(375,52,l),
(213,52,ls)
);
},
{
closed = 1;
nodes = (
(213,371,o),
(177,404,o),
(177,468,cs),
(177,519,o),
(188,638,o),
(335,638,cs),
(499,638,l),
(442,371,l),
(281,371,ls)
);
}
);
width = 537;
}
);
metricLeft = "=|geCarrier-canadian";
metricRight = "nunavuth-canadian";
note = uni15FA;
unicode = 5626;
},
{
color = 9;
glyphname = "kkuCarrier-canadian";
lastChange = "2023-01-13 15:56:15 +0000";
layers = (
{
layerId = "A0BEBE03-9AB7-4E04-894D-4F686A7231C4";
shapes = (
{
closed = 1;
nodes = (
(222,-13,o),
(273,27,o),
(304,102,c),
(289,102,l),
(293,30,o),
(336,-13,o),
(407,-13,cs),
(495,-13,o),
(549,48,o),
(575,170,cs),
(685,690,l),
(661,690,l),
(399,523,l),
(387,458,l),
(632,615,l),
(614,635,l),
(516,171,ls),
(498,86,o),
(463,44,o),
(405,44,cs),
(346,44,o),
(320,89,o),
(337,171,cs),
(447,690,l),
(391,690,l),
(281,170,ls),
(264,88,o),
(225,44,o),
(166,44,cs),
(108,44,o),
(84,88,o),
(101,170,cs),
(200,635,l),
(173,628,l),
(352,468,l),
(363,525,l),
(178,690,l),
(153,690,l),
(43,173,ls),
(19,58,o),
(61,-13,o),
(154,-13,cs)
);
}
);
width = 645;
}
);
metricLeft = "guCarrier-canadian";
metricRight = "guCarrier-canadian";
note = uni15FB;
unicode = 5627;
},
{
color = 9;
glyphname = "kkoCarrier-canadian";
lastChange = "2023-01-13 15:56:15 +0000";
layers = (
{
layerId = "A0BEBE03-9AB7-4E04-894D-4F686A7231C4";
shapes = (
{
closed = 1;
nodes = (
(29,0,l),
(291,167,l),
(303,232,l),
(58,74,l),
(76,55,l),
(175,519,ls),
(192,604,o),
(227,645,o),
(285,645,cs),
(344,645,o),
(370,601,o),
(353,519,cs),
(242,0,l),
(298,0,l),
(409,520,ls),
(426,602,o),
(465,645,o),
(524,645,cs),
(582,645,o),
(606,602,o),
(588,520,cs),
(491,55,l),
(517,62,l),
(338,222,l),
(327,165,l),
(512,0,l),
(537,0,l),
(646,517,ls),
(670,632,o),
(629,702,o),
(536,702,cs),
(468,702,o),
(416,663,o),
(385,587,c),
(402,587,l),
(397,660,o),
(355,702,o),
(284,702,cs),
(195,702,o),
(141,641,o),
(116,520,cs),
(6,0,l)
);
}
);
width = 643;
}
);
metricLeft = "guCarrier-canadian";
metricRight = "guCarrier-canadian";
note = uni15FC;
unicode = 5628;
},
{
color = 9;
glyphname = "kkeCarrier-canadian";
lastChange = "2023-01-13 15:56:17 +0000";
layers = (
{
layerId = "A0BEBE03-9AB7-4E04-894D-4F686A7231C4";
shapes = (
{
closed = 1;
nodes = (
(257,0,ls),
(432,0,o),
(480,121,o),
(480,217,cs),
(480,289,o),
(446,338,o),
(386,351,c),
(386,331,l),
(515,357,o),
(548,460,o),
(548,536,cs),
(548,627,o),
(488,690,o),
(391,690,cs),
(158,690,l),
(155,670,l),
(175,371,l),
(94,371,l),
(82,319,l),
(161,319,l),
(16,19,l),
(12,0,l)
);
},
{
closed = 1;
nodes = (
(223,319,l),
(316,319,ls),
(384,319,o),
(420,286,o),
(420,222,cs),
(420,174,o),
(409,52,o),
(261,52,cs),
(68,52,l),
(81,28,l)
);
},
{
closed = 1;
nodes = (
(212,665,l),
(187,638,l),
(383,638,ls),
(448,638,o),
(487,596,o),
(487,531,cs),
(487,449,o),
(444,371,o),
(327,371,cs),
(232,371,l)
);
}
);
width = 549;
}
);
metricRight = "geCarrier-canadian";
note = uni15FD;
unicode = 5629;
},
{
color = 9;
glyphname = "kkeeCarrier-canadian";
lastChange = "2023-01-13 15:56:17 +0000";
layers = (
{
layerId = "A0BEBE03-9AB7-4E04-894D-4F686A7231C4";
shapes = (
{
closed = 1;
nodes = (
(257,0,ls),
(432,0,o),
(480,121,o),
(480,217,cs),
(480,289,o),
(446,338,o),
(386,351,c),
(386,331,l),
(515,357,o),
(548,460,o),
(548,536,cs),
(548,627,o),
(488,690,o),
(391,690,cs),
(158,690,l),
(155,670,l),
(175,371,l),
(94,371,l),
(82,319,l),
(161,319,l),
(16,19,l),
(12,0,l)
);
},
{
closed = 1;
nodes = (
(224,321,l),
(285,321,l),
(267,231,l),
(303,231,l),
(325,336,l),
(302,321,l),
(321,321,ls),
(386,321,o),
(420,286,o),
(420,222,cs),
(420,174,o),
(409,52,o),
(261,52,cs),
(68,52,l),
(81,28,l)
);
},
{
closed = 1;
nodes = (
(352,461,l),
(315,461,l),
(296,370,l),
(232,370,l),
(212,665,l),
(187,638,l),
(383,638,ls),
(448,638,o),
(487,596,o),
(487,531,cs),
(487,449,o),
(444,370,o),
(328,370,cs),
(312,370,l),
(329,357,l)
);
}
);
width = 549;
}
);
metricLeft = "kkeCarrier-canadian";
metricRight = "geCarrier-canadian";
note = uni15FE;
unicode = 5630;
},
{
color = 9;
glyphname = "kkiCarrier-canadian";
lastChange = "2023-01-13 15:56:17 +0000";
layers = (
{
layerId = "A0BEBE03-9AB7-4E04-894D-4F686A7231C4";
shapes = (
{
closed = 1;
nodes = (
(257,0,ls),
(432,0,o),
(480,121,o),
(480,217,cs),
(480,289,o),
(446,338,o),
(386,351,c),
(386,331,l),
(515,357,o),
(548,460,o),
(548,536,cs),
(548,627,o),
(488,690,o),
(391,690,cs),
(158,690,l),
(155,670,l),
(175,371,l),
(94,371,l),
(82,319,l),
(161,319,l),
(16,19,l),
(12,0,l)
);
},
{
closed = 1;
nodes = (
(225,323,l),
(247,323,l),
(255,301,o),
(275,286,o),
(298,286,cs),
(324,286,o),
(346,304,o),
(350,328,c),
(300,323,l),
(321,323,ls),
(389,323,o),
(420,286,o),
(420,222,cs),
(420,174,o),
(409,52,o),
(261,52,cs),
(68,52,l),
(81,28,l)
);
},
{
closed = 1;
nodes = (
(348,384,o),
(326,404,o),
(298,404,cs),
(275,404,o),
(255,388,o),
(247,367,c),
(233,367,l),
(212,665,l),
(187,638,l),
(383,638,ls),
(448,638,o),
(487,596,o),
(487,531,cs),
(487,449,o),
(447,367,o),
(328,367,cs),
(300,367,l),
(352,358,l)
);
}
);
width = 549;
}
);
metricLeft = "kkeCarrier-canadian";
metricRight = "geCarrier-canadian";
note = uni15FF;
unicode = 5631;
},
{
color = 9;
glyphname = "kkaCarrier-canadian";
lastChange = "2023-01-13 15:56:17 +0000";
layers = (
{
layerId = "A0BEBE03-9AB7-4E04-894D-4F686A7231C4";
shapes = (
{
closed = 1;
nodes = (
(438,0,l),
(441,19,l),
(421,319,l),
(503,319,l),
(515,371,l),
(435,371,l),
(580,670,l),
(584,690,l),
(339,690,ls),
(164,690,o),
(116,569,o),
(116,472,cs),
(116,401,o),
(150,352,o),
(210,339,c),
(210,358,l),
(82,332,o),
(48,230,o),
(48,154,cs),
(48,63,o),
(108,0,o),
(205,0,cs)
);
},
{
closed = 1;
nodes = (
(409,52,l),
(214,52,ls),
(148,52,o),
(109,94,o),
(109,158,cs),
(109,241,o),
(152,319,o),
(270,319,cs),
(364,319,l),
(385,25,l)
);
},
{
closed = 1;
nodes = (
(213,371,o),
(176,404,o),
(176,468,cs),
(176,516,o),
(187,638,o),
(335,638,cs),
(528,638,l),
(515,662,l),
(373,371,l),
(280,371,ls)
);
}
);
width = 549;
}
);
metricLeft = "=|geCarrier-canadian";
metricRight = "=|kkeCarrier-canadian";
note = uni1600;
unicode = 5632;
},
{
color = 6;
glyphname = "kkCarrier-canadian";
lastChange = "2023-01-13 15:56:15 +0000";
layers = (
{
layerId = "A0BEBE03-9AB7-4E04-894D-4F686A7231C4";
shapes = (
{
closed = 1;
nodes = (
(292,527,l),
(134,232,l),
(161,232,l),
(131,527,l),
(93,527,l),
(90,516,l),
(133,183,l),
(146,183,l),
(331,516,l),
(334,527,l)
);
}
);
width = 303;
}
);
note = uni1601;
unicode = 5633;
},
{
color = 9;
glyphname = "nuCarrier-canadian";
lastChange = "2023-01-13 15:56:15 +0000";
layers = (
{
layerId = "A0BEBE03-9AB7-4E04-894D-4F686A7231C4";
shapes = (
{
closed = 1;
nodes = (
(366,-13,o),
(450,72,o),
(484,232,cs),
(498,298,l),
(438,298,l),
(424,234,ls),
(398,109,o),
(336,46,o),
(241,45,cs),
(138,45,o),
(95,115,o),
(121,239,cs),
(217,690,l),
(156,690,l),
(61,242,ls),
(28,87,o),
(96,-13,o),
(237,-13,cs)
);
}
);
width = 541;
}
);
metricLeft = "te-canadian";
note = uni1602;
unicode = 5634;
},
{
color = 9;
glyphname = "noCarrier-canadian";
lastChange = "2023-01-13 15:56:17 +0000";
layers = (
{
layerId = "A0BEBE03-9AB7-4E04-894D-4F686A7231C4";
shapes = (
{
closed = 1;
nodes = (
(432,0,l),
(527,447,ls),
(559,603,o),
(493,702,o),
(352,702,cs),
(221,702,o),
(137,617,o),
(103,458,cs),
(90,391,l),
(151,391,l),
(164,456,ls),
(189,581,o),
(251,643,o),
(347,644,cs),
(449,644,o),
(493,575,o),
(467,451,cs),
(370,0,l)
);
}
);
width = 541;
}
);
metricLeft = "=|nuCarrier-canadian";
metricRight = "te-canadian";
note = uni1603;
unicode = 5635;
},
{
color = 9;
glyphname = "neCarrier-canadian";
lastChange = "2023-01-13 15:56:17 +0000";
layers = (
{
anchors = (
{
name = middle_center_can;
pos = (244,345);
}
);
layerId = "A0BEBE03-9AB7-4E04-894D-4F686A7231C4";
shapes = (
{
closed = 1;
nodes = (
(164,0,ls),
(419,0,o),
(509,273,o),
(509,458,cs),
(509,611,o),
(429,690,o),
(278,690,cs),
(138,690,l),
(126,633,l),
(267,633,ls),
(388,633,o),
(448,577,o),
(448,457,cs),
(448,321,o),
(387,57,o),
(169,57,cs),
(162,57,l),
(150,0,l)
);
}
);
width = 523;
}
);
metricRight = "theCarrier-canadian";
note = uni1604;
unicode = 5636;
},
{
color = 9;
glyphname = "naCarrier-canadian";
lastChange = "2023-01-13 15:56:17 +0000";
layers = (
{
layerId = "A0BEBE03-9AB7-4E04-894D-4F686A7231C4";
shapes = (
{
closed = 1;
nodes = (
(431,0,l),
(443,57,l),
(301,57,ls),
(181,57,o),
(121,113,o),
(121,233,cs),
(121,369,o),
(182,633,o),
(399,633,cs),
(407,633,l),
(418,690,l),
(405,690,ls),
(150,690,o),
(60,416,o),
(60,232,cs),
(60,78,o),
(140,0,o),
(291,0,cs)
);
}
);
width = 522;
}
);
metricLeft = "=|theCarrier-canadian";
metricRight = "=|neCarrier-canadian";
note = uni1607;
unicode = 5639;
},
{
color = 9;
glyphname = "muCarrier-canadian";
lastChange = "2023-01-13 15:56:15 +0000";
layers = (
{
layerId = "A0BEBE03-9AB7-4E04-894D-4F686A7231C4";
shapes = (
{
closed = 1;
nodes = (
(226,-13,o),
(278,31,o),
(310,113,c),
(288,113,l),
(290,33,o),
(333,-13,o),
(407,-13,cs),
(495,-13,o),
(549,48,o),
(575,170,cs),
(621,388,l),
(562,388,l),
(516,171,ls),
(498,86,o),
(463,44,o),
(405,44,cs),
(346,44,o),
(320,88,o),
(338,171,cs),
(384,388,l),
(327,388,l),
(281,170,ls),
(264,88,o),
(225,44,o),
(166,44,cs),
(108,44,o),
(84,88,o),
(101,170,cs),
(212,690,l),
(153,690,l),
(43,173,ls),
(19,58,o),
(61,-13,o),
(154,-13,cs)
);
}
);
width = 645;
}
);
metricLeft = "guCarrier-canadian";
metricRight = "=|";
note = uni1608;
unicode = 5640;
},
{
color = 9;
glyphname = "moCarrier-canadian";
lastChange = "2023-01-13 15:56:15 +0000";
layers = (
{
layerId = "A0BEBE03-9AB7-4E04-894D-4F686A7231C4";
shapes = (
{
closed = 1;
nodes = (
(537,0,l),
(646,517,ls),
(670,632,o),
(629,702,o),
(536,702,cs),
(465,702,o),
(412,659,o),
(381,577,c),
(402,577,l),
(400,657,o),
(356,702,o),
(284,702,cs),
(195,702,o),
(141,641,o),
(116,520,cs),
(70,301,l),
(128,301,l),
(174,519,ls),
(192,604,o),
(227,645,o),
(285,645,cs),
(344,645,o),
(370,602,o),
(353,519,cs),
(306,301,l),
(363,301,l),
(410,520,ls),
(427,602,o),
(465,645,o),
(524,645,cs),
(582,645,o),
(606,602,o),
(588,520,cs),
(478,0,l)
);
}
);
width = 643;
}
);
metricLeft = "=|muCarrier-canadian";
metricRight = "guCarrier-canadian";
note = uni1609;
unicode = 5641;
},
{
color = 9;
glyphname = "meCarrier-canadian";
lastChange = "2023-01-13 15:56:15 +0000";
layers = (
{
layerId = "A0BEBE03-9AB7-4E04-894D-4F686A7231C4";
shapes = (
{
closed = 1;
nodes = (
(241,0,ls),
(415,0,o),
(464,121,o),
(464,217,cs),
(464,289,o),
(429,339,o),
(368,353,c),
(367,331,l),
(491,355,o),
(531,453,o),
(531,536,cs),
(531,627,o),
(471,690,o),
(375,690,cs),
(138,690,l),
(127,638,l),
(366,638,ls),
(431,638,o),
(470,596,o),
(470,531,cs),
(470,449,o),
(427,371,o),
(309,371,cs),
(244,371,l),
(234,319,l),
(298,319,ls),
(367,319,o),
(404,286,o),
(404,222,cs),
(404,172,o),
(392,52,o),
(244,52,cs),
(177,52,l),
(166,0,l)
);
}
);
width = 533;
}
);
metricLeft = "neCarrier-canadian";
metricRight = "geCarrier-canadian";
note = uni160A;
unicode = 5642;
},
{
color = 9;
glyphname = "meeCarrier-canadian";
lastChange = "2023-01-13 15:56:15 +0000";
layers = (
{
layerId = "A0BEBE03-9AB7-4E04-894D-4F686A7231C4";
shapes = (
{
closed = 1;
nodes = (
(241,0,ls),
(415,0,o),
(464,121,o),
(464,217,cs),
(464,289,o),
(429,339,o),
(368,353,c),
(367,331,l),
(491,355,o),
(531,453,o),
(531,536,cs),
(531,627,o),
(471,690,o),
(375,690,cs),
(138,690,l),
(127,638,l),
(366,638,ls),
(431,638,o),
(470,596,o),
(470,531,cs),
(470,449,o),
(427,370,o),
(310,370,cs),
(283,370,l),
(302,458,l),
(263,458,l),
(215,233,l),
(255,233,l),
(272,320,l),
(300,320,ls),
(367,320,o),
(404,286,o),
(404,222,cs),
(404,172,o),
(392,52,o),
(244,52,cs),
(177,52,l),
(166,0,l)
);
}
);
width = 533;
}
);
metricLeft = "neCarrier-canadian";
metricRight = "geCarrier-canadian";
note = uni160B;
unicode = 5643;
},
{
color = 9;
glyphname = "miCarrier-canadian";
lastChange = "2023-01-13 15:56:15 +0000";
layers = (
{
layerId = "A0BEBE03-9AB7-4E04-894D-4F686A7231C4";
shapes = (
{
closed = 1;
nodes = (
(241,0,ls),
(412,0,o),
(456,116,o),
(462,206,cs),
(467,282,o),
(433,337,o),
(368,353,c),
(367,331,l),
(487,354,o),
(526,446,o),
(530,525,cs),
(537,621,o),
(476,690,o),
(375,690,cs),
(138,690,l),
(127,638,l),
(366,638,ls),
(433,638,o),
(471,594,o),
(469,526,cs),
(468,446,o),
(425,370,o),
(309,370,cs),
(289,370,l),
(321,352,l),
(319,382,o),
(294,404,o),
(265,404,cs),
(232,404,o),
(207,376,o),
(207,345,cs),
(207,313,o),
(232,286,o),
(265,286,cs),
(294,286,o),
(318,308,o),
(321,337,c),
(288,320,l),
(299,320,ls),
(369,320,o),
(406,285,o),
(404,218,cs),
(401,165,o),
(386,52,o),
(244,52,cs),
(177,52,l),
(166,0,l)
);
}
);
width = 531;
}
);
metricLeft = "neCarrier-canadian";
metricRight = "geCarrier-canadian";
note = uni160C;
unicode = 5644;
},
{
color = 9;
glyphname = "maCarrier-canadian";
lastChange = "2023-01-13 15:56:17 +0000";
layers = (
{
layerId = "A0BEBE03-9AB7-4E04-894D-4F686A7231C4";
shapes = (
{
closed = 1;
nodes = (
(442,0,l),
(454,52,l),
(214,52,ls),
(148,52,o),
(109,94,o),
(109,158,cs),
(109,241,o),
(152,319,o),
(270,319,cs),
(335,319,l),
(346,371,l),
(280,371,ls),
(213,371,o),
(176,404,o),
(176,468,cs),
(176,518,o),
(187,638,o),
(335,638,cs),
(403,638,l),
(413,690,l),
(339,690,ls),
(164,690,o),
(116,569,o),
(116,472,cs),
(116,401,o),
(151,351,o),
(212,337,c),
(213,358,l),
(88,335,o),
(48,237,o),
(48,154,cs),
(48,63,o),
(108,0,o),
(205,0,cs)
);
}
);
width = 534;
}
);
metricLeft = "=|geCarrier-canadian";
metricRight = "=|neCarrier-canadian";
note = uni160D;
unicode = 5645;
},
{
color = 9;
glyphname = "yuCarrier-canadian";
lastChange = "2023-01-13 15:56:15 +0000";
layers = (
{
layerId = "A0BEBE03-9AB7-4E04-894D-4F686A7231C4";
shapes = (
{
closed = 1;
nodes = (
(394,-13,o),
(491,103,o),
(546,363,cs),
(594,591,o),
(563,702,o),
(461,702,cs),
(337,702,o),
(294,528,o),
(294,442,cs),
(294,365,o),
(331,315,o),
(392,315,cs),
(407,315,o),
(418,318,o),
(426,323,c),
(437,371,l),
(426,367,o),
(417,365,o),
(408,365,cs),
(368,365,o),
(347,395,o),
(347,447,cs),
(347,500,o),
(375,651,o),
(453,651,cs),
(517,651,o),
(531,571,o),
(491,378,cs),
(441,143,o),
(369,45,o),
(239,45,cs),
(135,45,o),
(94,108,o),
(120,233,cs),
(217,690,l),
(156,690,l),
(60,236,ls),
(27,80,o),
(95,-13,o),
(236,-13,cs)
);
}
);
width = 578;
}
);
metricLeft = "te-canadian";
metricRight = "te-canadian";
note = uni160E;
unicode = 5646;
},
{
color = 9;
glyphname = "yoCarrier-canadian";
lastChange = "2023-01-13 15:56:15 +0000";
layers = (
{
layerId = "A0BEBE03-9AB7-4E04-894D-4F686A7231C4";
shapes = (
{
closed = 1;
nodes = (
(287,-13,o),
(329,161,o),
(329,247,cs),
(329,325,o),
(293,375,o),
(231,375,cs),
(217,375,o),
(205,372,o),
(198,367,c),
(187,319,l),
(197,323,o),
(206,325,o),
(215,325,cs),
(255,325,o),
(276,295,o),
(276,242,cs),
(276,189,o),
(248,39,o),
(170,39,cs),
(106,39,o),
(92,119,o),
(132,312,cs),
(183,547,o),
(255,644,o),
(384,644,cs),
(489,644,o),
(530,582,o),
(503,457,cs),
(407,0,l),
(468,0,l),
(564,454,ls),
(596,610,o),
(529,702,o),
(387,702,cs),
(229,702,o),
(133,586,o),
(78,327,cs),
(30,99,o),
(61,-13,o),
(162,-13,cs)
);
}
);
width = 577;
}
);
metricLeft = "te-canadian";
metricRight = "te-canadian";
note = uni160F;
unicode = 5647;
},
{
color = 9;
glyphname = "yeCarrier-canadian";
lastChange = "2023-01-13 15:56:17 +0000";
layers = (
{
layerId = "A0BEBE03-9AB7-4E04-894D-4F686A7231C4";
shapes = (
{
closed = 1;
nodes = (
(424,-13,o),
(501,287,o),
(501,441,cs),
(501,607,o),
(424,690,o),
(277,690,cs),
(154,690,l),
(141,633,l),
(270,633,ls),
(383,633,o),
(440,571,o),
(440,437,cs),
(440,315,o),
(385,42,o),
(206,42,cs),
(129,42,o),
(88,86,o),
(88,166,cs),
(88,223,o),
(112,350,o),
(193,350,cs),
(230,350,o),
(249,322,o),
(249,270,cs),
(249,228,o),
(239,185,o),
(224,145,c),
(271,145,l),
(286,188,o),
(298,234,o),
(298,277,cs),
(298,355,o),
(261,401,o),
(195,401,cs),
(78,401,o),
(35,250,o),
(35,162,cs),
(35,55,o),
(98,-13,o),
(203,-13,cs)
);
}
);
width = 518;
}
);
metricRight = "theCarrier-canadian";
note = uni1610;
unicode = 5648;
},
{
color = 9;
glyphname = "yeeCarrier-canadian";
lastChange = "2023-01-13 15:56:17 +0000";
layers = (
{
layerId = "A0BEBE03-9AB7-4E04-894D-4F686A7231C4";
shapes = (
{
closed = 1;
nodes = (
(426,-13,o),
(502,294,o),
(502,449,cs),
(502,607,o),
(423,690,o),
(280,690,cs),
(154,690,l),
(141,633,l),
(270,633,ls),
(383,633,o),
(440,571,o),
(440,444,cs),
(440,318,o),
(384,42,o),
(206,42,cs),
(129,42,o),
(88,85,o),
(88,168,cs),
(88,221,o),
(112,350,o),
(190,350,cs),
(233,350,o),
(251,308,o),
(236,234,cs),
(223,174,l),
(263,174,l),
(333,503,l),
(293,503,l),
(248,294,l),
(259,294,l),
(267,358,o),
(237,401,o),
(183,401,cs),
(77,401,o),
(36,251,o),
(36,165,cs),
(36,56,o),
(97,-13,o),
(206,-13,cs)
);
}
);
width = 518;
}
);
metricRight = "theCarrier-canadian";
metricWidth = "yeCarrier-canadian";
note = uni1611;
unicode = 5649;
},
{
color = 9;
glyphname = "yiCarrier-canadian";
lastChange = "2023-01-13 15:56:17 +0000";
layers = (
{
layerId = "A0BEBE03-9AB7-4E04-894D-4F686A7231C4";
shapes = (
{
closed = 1;
nodes = (
(429,-13,o),
(502,297,o),
(502,449,cs),
(502,607,o),
(424,690,o),
(280,690,cs),
(154,690,l),
(141,633,l),
(270,633,ls),
(383,633,o),
(440,571,o),
(440,444,cs),
(440,322,o),
(388,42,o),
(206,42,cs),
(128,42,o),
(87,87,o),
(87,165,cs),
(87,230,o),
(108,330,o),
(195,327,c),
(180,344,l),
(181,312,o),
(208,289,o),
(238,289,cs),
(270,289,o),
(296,314,o),
(296,345,cs),
(296,376,o),
(270,401,o),
(238,401,cs),
(214,401,o),
(194,387,o),
(185,368,c),
(78,366,o),
(34,248,o),
(34,159,cs),
(34,54,o),
(99,-13,o),
(203,-13,cs)
);
}
);
width = 518;
}
);
metricRight = "theCarrier-canadian";
metricWidth = "yeCarrier-canadian";
note = uni1612;
unicode = 5650;
},
{
color = 9;
glyphname = "yaCarrier-canadian";
lastChange = "2023-01-13 15:56:17 +0000";
layers = (
{
layerId = "A0BEBE03-9AB7-4E04-894D-4F686A7231C4";
shapes = (
{
closed = 1;
nodes = (
(411,0,l),
(424,57,l),
(296,57,ls),
(183,57,o),
(126,119,o),
(126,253,cs),
(126,375,o),
(180,648,o),
(359,648,cs),
(436,648,o),
(477,604,o),
(477,524,cs),
(477,467,o),
(453,340,o),
(372,340,cs),
(335,340,o),
(316,368,o),
(316,420,cs),
(316,463,o),
(326,504,o),
(341,545,c),
(294,545,l),
(279,501,o),
(268,456,o),
(268,412,cs),
(268,335,o),
(304,289,o),
(370,289,cs),
(487,289,o),
(530,440,o),
(530,527,cs),
(530,635,o),
(468,702,o),
(362,702,cs),
(140,702,o),
(63,403,o),
(63,248,cs),
(63,83,o),
(141,0,o),
(288,0,cs)
);
}
);
width = 518;
}
);
metricLeft = "=|theCarrier-canadian";
metricRight = "=|yeCarrier-canadian";
note = uni1613;
unicode = 5651;
},
{
color = 9;
glyphname = "juCarrier-canadian";
lastChange = "2023-01-13 15:56:15 +0000";
layers = (
{
layerId = "A0BEBE03-9AB7-4E04-894D-4F686A7231C4";
shapes = (
{
closed = 1;
nodes = (
(423,-13,o),
(485,145,o),
(485,259,cs),
(485,345,o),
(443,401,o),
(375,401,cs),
(298,401,o),
(253,336,o),
(235,232,cs),
(228,199,o),
(226,165,o),
(227,145,c),
(273,145,l),
(274,163,o),
(274,192,o),
(282,232,cs),
(300,311,o),
(332,350,o),
(373,350,cs),
(411,350,o),
(433,316,o),
(433,258,cs),
(433,171,o),
(392,42,o),
(261,42,cs),
(169,42,o),
(122,101,o),
(122,210,cs),
(122,325,o),
(174,633,o),
(487,633,cs),
(559,633,l),
(571,690,l),
(146,690,l),
(134,635,l),
(384,635,l),
(405,654,l),
(165,648,o),
(62,396,o),
(62,213,cs),
(62,71,o),
(132,-13,o),
(258,-13,cs)
);
}
);
width = 531;
}
);
metricRight = "=|yeCarrier-canadian";
note = uni1614;
unicode = 5652;
},
{
color = 9;
glyphname = "juSayisi-canadian";
lastChange = "2023-01-13 15:56:15 +0000";
layers = (
{
anchors = (
{
name = top_center_can;
pos = (385,690);
}
);
layerId = "A0BEBE03-9AB7-4E04-894D-4F686A7231C4";
shapes = (
{
closed = 1;
nodes = (
(404,-13,o),
(486,218,o),
(496,378,cs),
(505,546,o),
(425,652,o),
(273,660,c),
(313,635,l),
(565,635,l),
(577,690,l),
(151,690,l),
(139,633,l),
(200,633,ls),
(367,633,o),
(444,549,o),
(436,386,cs),
(430,263,o),
(379,42,o),
(213,42,cs),
(129,42,o),
(83,91,o),
(87,178,cs),
(89,234,o),
(115,350,o),
(188,350,cs),
(227,350,o),
(244,320,o),
(242,264,cs),
(242,231,o),
(232,176,o),
(219,145,c),
(266,145,l),
(280,185,o),
(291,227,o),
(292,269,cs),
(297,351,o),
(261,401,o),
(191,401,cs),
(84,401,o),
(42,266,o),
(35,183,cs),
(26,66,o),
(95,-13,o),
(213,-13,cs)
);
}
);
width = 529;
}
);
metricLeft = "yeCarrier-canadian";
metricRight = "=|juCarrier-canadian";
note = uni1615;
unicode = 5653;
},
{
color = 9;
glyphname = "joCarrier-canadian";
lastChange = "2023-01-13 15:56:17 +0000";
layers = (
{
layerId = "A0BEBE03-9AB7-4E04-894D-4F686A7231C4";
shapes = (
{
closed = 1;
nodes = (
(431,0,l),
(442,55,l),
(192,55,l),
(171,36,l),
(411,42,o),
(515,294,o),
(515,477,cs),
(515,618,o),
(443,702,o),
(319,702,cs),
(154,702,o),
(92,545,o),
(92,431,cs),
(92,345,o),
(132,289,o),
(201,289,cs),
(277,289,o),
(324,354,o),
(342,458,cs),
(348,491,o),
(350,525,o),
(350,545,c),
(302,545,l),
(302,526,o),
(302,497,o),
(294,458,cs),
(275,379,o),
(244,340,o),
(204,340,cs),
(165,340,o),
(144,374,o),
(144,432,cs),
(144,519,o),
(184,648,o),
(316,648,cs),
(407,648,o),
(454,588,o),
(454,480,cs),
(454,365,o),
(402,57,o),
(90,57,cs),
(17,57,l),
(5,0,l)
);
}
);
width = 530;
}
);
metricLeft = "yeCarrier-canadian";
metricRight = "=|juCarrier-canadian";
note = uni1616;
unicode = 5654;
},
{
color = 9;
glyphname = "jeCarrier-canadian";
lastChange = "2023-01-13 15:56:15 +0000";
layers = (
{
layerId = "A0BEBE03-9AB7-4E04-894D-4F686A7231C4";
shapes = (
{
closed = 1;
nodes = (
(502,-13,o),
(551,333,o),
(551,470,cs),
(551,618,o),
(497,702,o),
(387,702,cs),
(280,702,o),
(205,622,o),
(156,453,c),
(170,455,l),
(220,690,l),
(159,690,l),
(13,0,l),
(73,0,l),
(136,294,ls),
(186,535,o),
(261,644,o),
(374,644,cs),
(456,644,o),
(493,587,o),
(493,469,cs),
(493,375,o),
(455,39,o),
(337,39,cs),
(298,39,o),
(279,66,o),
(279,119,cs),
(279,186,o),
(308,325,o),
(399,325,cs),
(412,325,o),
(423,322,o),
(429,319,c),
(438,367,l),
(426,372,o),
(412,375,o),
(396,375,cs),
(271,375,o),
(227,209,o),
(227,118,cs),
(227,36,o),
(265,-13,o),
(333,-13,cs)
);
}
);
width = 581;
}
);
metricLeft = "nunavuth-canadian";
metricRight = "te-canadian";
note = uni1617;
unicode = 5655;
},
{
color = 9;
glyphname = "jeeCarrier-canadian";
lastChange = "2023-01-13 15:56:15 +0000";
layers = (
{
layerId = "A0BEBE03-9AB7-4E04-894D-4F686A7231C4";
shapes = (
{
closed = 1;
nodes = (
(502,-13,o),
(551,335,o),
(551,469,cs),
(551,618,o),
(497,702,o),
(387,702,cs),
(279,702,o),
(205,621,o),
(156,453,c),
(170,455,l),
(220,690,l),
(159,690,l),
(13,0,l),
(73,0,l),
(135,289,ls),
(187,536,o),
(259,644,o),
(373,644,cs),
(456,644,o),
(493,587,o),
(493,469,cs),
(493,356,o),
(454,39,o),
(329,39,cs),
(285,39,o),
(262,69,o),
(262,128,cs),
(262,189,o),
(288,309,o),
(362,328,c),
(344,238,l),
(378,238,l),
(422,449,l),
(388,449,l),
(371,366,l),
(264,347,o),
(227,197,o),
(227,117,cs),
(227,36,o),
(265,-13,o),
(333,-13,cs)
);
}
);
width = 581;
}
);
metricLeft = "nunavuth-canadian";
metricRight = "jeCarrier-canadian";
note = uni1618;
unicode = 5656;
},
{
color = 9;
glyphname = "jiCarrier-canadian";
lastChange = "2023-01-13 15:56:15 +0000";
layers = (
{
layerId = "A0BEBE03-9AB7-4E04-894D-4F686A7231C4";
shapes = (
{
closed = 1;
nodes = (
(502,-13,o),
(551,335,o),
(551,469,cs),
(551,618,o),
(497,702,o),
(387,702,cs),
(279,702,o),
(205,621,o),
(156,453,c),
(170,455,l),
(220,690,l),
(159,690,l),
(13,0,l),
(73,0,l),
(135,289,ls),
(187,536,o),
(259,644,o),
(373,644,cs),
(456,644,o),
(493,587,o),
(493,469,cs),
(493,356,o),
(454,39,o),
(329,39,cs),
(285,39,o),
(262,69,o),
(262,128,cs),
(262,182,o),
(282,280,o),
(339,313,c),
(347,298,o),
(362,287,o),
(381,287,cs),
(410,287,o),
(435,312,o),
(435,343,cs),
(435,374,o),
(411,398,o),
(381,398,cs),
(351,398,o),
(328,372,o),
(329,345,c),
(254,303,o),
(227,185,o),
(227,117,cs),
(227,36,o),
(265,-13,o),
(333,-13,cs)
);
}
);
width = 581;
}
);
metricLeft = "nunavuth-canadian";
metricRight = "jeCarrier-canadian";
note = uni1619;
unicode = 5657;
},
{
color = 9;
glyphname = "jiSayisi-canadian";
lastChange = "2023-01-13 15:56:15 +0000";
layers = (
{
layerId = "A0BEBE03-9AB7-4E04-894D-4F686A7231C4";
shapes = (
{
closed = 1;
nodes = (
(484,-13,o),
(568,365,o),
(568,530,cs),
(568,648,o),
(532,702,o),
(460,702,cs),
(333,702,o),
(298,525,o),
(298,443,cs),
(298,355,o),
(341,315,o),
(393,315,cs),
(409,315,o),
(419,317,o),
(428,323,c),
(440,371,l),
(432,367,o),
(423,365,o),
(410,365,cs),
(375,365,o),
(349,388,o),
(349,449,cs),
(349,491,o),
(372,651,o),
(456,651,cs),
(496,651,o),
(514,620,o),
(514,540,cs),
(514,410,o),
(446,45,o),
(260,45,cs),
(106,45,o),
(127,253,o),
(156,391,cs),
(220,690,l),
(159,690,l),
(13,0,l),
(73,0,l),
(138,308,l),
(123,316,l),
(90,163,o),
(106,-13,o),
(265,-13,cs)
);
}
);
width = 581;
}
);
metricLeft = "nunavuth-canadian";
metricRight = "jeCarrier-canadian";
note = uni161A;
unicode = 5658;
},
{
color = 9;
glyphname = "jaCarrier-canadian";
lastChange = "2023-01-13 15:56:17 +0000";
layers = (
{
anchors = (
{
name = top_center_can;
pos = (380,690);
}
);
layerId = "A0BEBE03-9AB7-4E04-894D-4F686A7231C4";
shapes = (
{
closed = 1;
nodes = (
(347,-12,o),
(421,69,o),
(471,237,c),
(456,235,l),
(407,0,l),
(468,0,l),
(614,690,l),
(554,690,l),
(491,396,ls),
(440,156,o),
(366,45,o),
(253,45,cs),
(171,45,o),
(134,102,o),
(134,221,cs),
(134,315,o),
(172,652,o),
(290,652,cs),
(327,652,o),
(348,624,o),
(348,572,cs),
(348,503,o),
(319,365,o),
(228,365,cs),
(215,365,o),
(204,368,o),
(198,371,c),
(189,323,l),
(201,318,o),
(215,315,o),
(231,315,cs),
(355,315,o),
(399,481,o),
(399,572,cs),
(399,654,o),
(362,702,o),
(294,702,cs),
(125,702,o),
(76,356,o),
(76,219,cs),
(76,72,o),
(130,-12,o),
(240,-12,cs)
);
}
);
width = 580;
}
);
metricLeft = "=|jeCarrier-canadian";
metricRight = "nunavuth-canadian";
note = uni161B;
unicode = 5659;
},
{
color = 9;
glyphname = "jjuCarrier-canadian";
lastChange = "2023-01-13 15:56:17 +0000";
layers = (
{
layerId = "A0BEBE03-9AB7-4E04-894D-4F686A7231C4";
shapes = (
{
closed = 1;
nodes = (
(412,-13,o),
(480,144,o),
(480,262,cs),
(480,347,o),
(440,401,o),
(372,401,cs),
(301,401,o),
(257,347,o),
(231,237,cs),
(223,207,o),
(219,170,o),
(219,145,c),
(267,145,l),
(268,159,o),
(269,188,o),
(276,225,cs),
(295,307,o),
(326,350,o),
(368,350,cs),
(406,350,o),
(427,316,o),
(427,260,cs),
(427,174,o),
(387,41,o),
(255,41,cs),
(170,41,o),
(126,100,o),
(126,212,cs),
(126,378,o),
(205,633,o),
(461,633,cs),
(554,633,l),
(565,690,l),
(471,690,ls),
(377,690,o),
(300,662,o),
(241,616,c),
(173,702,l),
(124,664,l),
(193,575,l),
(98,476,o),
(66,325,o),
(66,215,cs),
(66,75,o),
(133,-13,o),
(252,-13,cs)
);
}
);
width = 525;
}
);
metricRight = "=|yeCarrier-canadian";
note = uni161C;
unicode = 5660;
},
{
color = 9;
glyphname = "jjoCarrier-canadian";
lastChange = "2023-01-13 15:56:17 +0000";
layers = (
{
layerId = "A0BEBE03-9AB7-4E04-894D-4F686A7231C4";
shapes = (
{
closed = 1;
nodes = (
(447,26,l),
(378,115,l),
(473,213,o),
(505,365,o),
(505,474,cs),
(505,614,o),
(438,702,o),
(319,702,cs),
(157,702,o),
(91,546,o),
(91,428,cs),
(91,343,o),
(131,289,o),
(199,289,cs),
(269,289,o),
(314,343,o),
(340,453,cs),
(347,483,o),
(352,520,o),
(352,545,c),
(304,545,l),
(303,530,o),
(301,501,o),
(295,465,cs),
(276,383,o),
(245,340,o),
(203,340,cs),
(164,340,o),
(143,374,o),
(143,430,cs),
(143,516,o),
(184,649,o),
(316,649,cs),
(401,649,o),
(445,589,o),
(445,478,cs),
(445,312,o),
(366,57,o),
(109,57,cs),
(17,57,l),
(5,0,l),
(99,0,ls),
(194,0,o),
(270,28,o),
(330,73,c),
(397,-13,l)
);
}
);
width = 525;
}
);
metricLeft = "yeCarrier-canadian";
metricRight = "=|jjuCarrier-canadian";
note = uni161D;
unicode = 5661;
},
{
color = 9;
glyphname = "jjeCarrier-canadian";
lastChange = "2023-01-13 15:56:15 +0000";
layers = (
{
layerId = "A0BEBE03-9AB7-4E04-894D-4F686A7231C4";
shapes = (
{
closed = 1;
nodes = (
(505,-13,o),
(553,333,o),
(553,469,cs),
(553,627,o),
(486,702,o),
(366,702,cs),
(314,702,o),
(258,685,o),
(211,639,c),
(159,701,l),
(114,659,l),
(171,591,l),
(144,553,o),
(122,502,o),
(107,436,cs),
(14,0,l),
(75,0,l),
(167,434,ls),
(197,573,o),
(264,644,o),
(363,644,cs),
(453,644,o),
(495,590,o),
(495,469,cs),
(495,376,o),
(457,39,o),
(339,39,cs),
(300,39,o),
(281,66,o),
(281,119,cs),
(281,186,o),
(310,325,o),
(401,325,cs),
(413,325,o),
(424,322,o),
(431,319,c),
(440,367,l),
(428,372,o),
(413,375,o),
(397,375,cs),
(274,375,o),
(230,209,o),
(230,118,cs),
(230,36,o),
(267,-13,o),
(335,-13,cs)
);
}
);
width = 583;
}
);
metricRight = "jeCarrier-canadian";
note = uni161E;
unicode = 5662;
},
{
color = 9;
glyphname = "jjeeCarrier-canadian";
lastChange = "2023-01-13 15:56:15 +0000";
layers = (
{
layerId = "A0BEBE03-9AB7-4E04-894D-4F686A7231C4";
shapes = (
{
closed = 1;
nodes = (
(505,-13,o),
(553,333,o),
(553,469,cs),
(553,627,o),
(486,702,o),
(366,702,cs),
(314,702,o),
(258,685,o),
(211,639,c),
(159,701,l),
(114,659,l),
(171,591,l),
(144,553,o),
(122,502,o),
(107,436,cs),
(14,0,l),
(75,0,l),
(167,434,ls),
(197,573,o),
(264,644,o),
(363,644,cs),
(453,644,o),
(495,590,o),
(495,469,cs),
(495,369,o),
(459,39,o),
(333,39,cs),
(289,39,o),
(265,68,o),
(265,128,cs),
(265,198,o),
(291,314,o),
(366,329,c),
(347,238,l),
(381,238,l),
(426,449,l),
(391,449,l),
(374,366,l),
(269,349,o),
(230,203,o),
(230,118,cs),
(230,36,o),
(267,-13,o),
(335,-13,cs)
);
}
);
width = 583;
}
);
metricLeft = "jjeCarrier-canadian";
metricRight = "jeCarrier-canadian";
note = uni161F;
unicode = 5663;
},
{
color = 9;
glyphname = "jjiCarrier-canadian";
lastChange = "2023-01-13 15:56:17 +0000";
layers = (
{
layerId = "A0BEBE03-9AB7-4E04-894D-4F686A7231C4";
shapes = (
{
closed = 1;
nodes = (
(425,-13,o),
(488,67,o),
(533,275,cs),
(593,547,o),
(531,702,o),
(366,702,cs),
(304,702,o),
(252,681,o),
(210,640,c),
(159,701,l),
(114,659,l),
(170,593,l),
(142,553,o),
(121,499,o),
(107,436,cs),
(14,0,l),
(75,0,l),
(167,434,ls),
(197,573,o),
(264,644,o),
(363,644,cs),
(491,644,o),
(529,521,o),
(475,279,cs),
(436,96,o),
(393,39,o),
(332,39,cs),
(270,39,o),
(251,97,o),
(274,201,cs),
(288,262,o),
(310,298,o),
(340,313,c),
(347,298,o),
(363,287,o),
(382,287,cs),
(411,287,o),
(435,312,o),
(435,343,cs),
(435,373,o),
(412,398,o),
(382,398,cs),
(349,398,o),
(330,368,o),
(330,343,c),
(289,322,o),
(257,272,o),
(240,197,cs),
(212,67,o),
(248,-13,o),
(335,-13,cs)
);
}
);
width = 584;
}
);
metricLeft = "jjeCarrier-canadian";
metricRight = "jeCarrier-canadian";
note = uni1620;
unicode = 5664;
},
{
color = 9;
glyphname = "jjaCarrier-canadian";
lastChange = "2023-01-13 15:56:17 +0000";
layers = (
{
layerId = "A0BEBE03-9AB7-4E04-894D-4F686A7231C4";
shapes = (
{
closed = 1;
nodes = (
(315,-13,o),
(372,5,o),
(419,50,c),
(470,-12,l),
(516,31,l),
(459,99,l),
(486,137,o),
(507,187,o),
(522,254,cs),
(615,690,l),
(554,690,l),
(462,256,ls),
(432,117,o),
(365,45,o),
(267,45,cs),
(177,45,o),
(134,99,o),
(134,220,cs),
(134,314,o),
(172,651,o),
(290,651,cs),
(328,651,o),
(348,624,o),
(348,571,cs),
(348,503,o),
(319,365,o),
(229,365,cs),
(216,365,o),
(205,368,o),
(199,371,c),
(190,323,l),
(201,318,o),
(216,315,o),
(232,315,cs),
(355,315,o),
(400,481,o),
(400,572,cs),
(400,654,o),
(363,702,o),
(295,702,cs),
(125,702,o),
(76,356,o),
(76,220,cs),
(76,63,o),
(143,-13,o),
(264,-13,cs)
);
}
);
width = 584;
}
);
metricLeft = "=|jeCarrier-canadian";
metricRight = "=|jjeCarrier-canadian";
note = uni1621;
unicode = 5665;
},
{
color = 9;
glyphname = "luCarrier-canadian";
lastChange = "2023-01-13 15:56:15 +0000";
layers = (
{
layerId = "A0BEBE03-9AB7-4E04-894D-4F686A7231C4";
shapes = (
{
closed = 1;
nodes = (
(370,-13,o),
(442,60,o),
(475,216,cs),
(576,690,l),
(515,690,l),
(414,221,ls),
(389,100,o),
(337,44,o),
(250,44,cs),
(164,44,o),
(122,101,o),
(122,208,cs),
(122,325,o),
(174,620,o),
(375,639,c),
(386,690,l),
(144,690,l),
(132,639,l),
(299,639,l),
(342,655,l),
(143,648,o),
(60,365,o),
(60,206,cs),
(60,67,o),
(125,-13,o),
(248,-13,cs)
);
}
);
width = 538;
}
);
metricRight = "te-canadian";
note = uni1622;
unicode = 5666;
},
{
color = 9;
glyphname = "loCarrier-canadian";
lastChange = "2023-01-13 15:56:17 +0000";
layers = (
{
layerId = "A0BEBE03-9AB7-4E04-894D-4F686A7231C4";
shapes = (
{
closed = 1;
nodes = (
(71,0,l),
(170,469,ls),
(196,589,o),
(248,645,o),
(335,645,cs),
(420,645,o),
(463,588,o),
(463,482,cs),
(463,365,o),
(412,70,o),
(210,50,c),
(199,0,l),
(440,0,l),
(452,51,l),
(285,51,l),
(242,35,l),
(441,42,o),
(526,325,o),
(526,484,cs),
(526,623,o),
(460,702,o),
(336,702,cs),
(215,702,o),
(143,630,o),
(110,473,cs),
(9,0,l)
);
}
);
width = 537;
}
);
metricLeft = "te-canadian";
metricRight = "=|luCarrier-canadian";
note = uni1623;
unicode = 5667;
},
{
color = 9;
glyphname = "leCarrier-canadian";
lastChange = "2023-01-13 15:56:15 +0000";
layers = (
{
anchors = (
{
name = middle_center_can;
pos = (283,345);
}
);
layerId = "A0BEBE03-9AB7-4E04-894D-4F686A7231C4";
shapes = (
{
closed = 1;
nodes = (
(158,0,ls),
(439,0,o),
(509,296,o),
(509,466,cs),
(509,616,o),
(455,702,o),
(359,702,cs),
(278,702,o),
(209,636,o),
(165,516,c),
(175,516,l),
(211,690,l),
(156,690,l),
(92,385,l),
(144,385,l),
(179,547,o),
(254,644,o),
(340,644,cs),
(412,644,o),
(447,582,o),
(447,461,cs),
(447,327,o),
(392,57,o),
(159,57,cs),
(21,57,l),
(10,0,l)
);
}
);
width = 523;
}
);
metricRight = "theCarrier-canadian";
note = uni1624;
unicode = 5668;
},
{
color = 9;
glyphname = "laCarrier-canadian";
lastChange = "2023-01-13 15:56:15 +0000";
layers = (
{
layerId = "A0BEBE03-9AB7-4E04-894D-4F686A7231C4";
shapes = (
{
closed = 1;
nodes = (
(412,0,l),
(425,57,l),
(302,57,ls),
(181,57,o),
(121,111,o),
(121,232,cs),
(121,357,o),
(187,644,o),
(342,644,cs),
(432,644,o),
(469,544,o),
(443,385,c),
(495,385,l),
(559,690,l),
(504,690,l),
(463,496,l),
(470,494,l),
(479,625,o),
(429,702,o),
(339,702,cs),
(144,702,o),
(59,385,o),
(59,231,cs),
(59,78,o),
(138,0,o),
(291,0,cs)
);
}
);
width = 522;
}
);
metricLeft = "=|theCarrier-canadian";
metricRight = "=|leCarrier-canadian";
note = uni1627;
unicode = 5671;
},
{
color = 1;
glyphname = "dluCarrier-canadian";
lastChange = "2023-01-13 15:56:15 +0000";
layers = (
{
layerId = "A0BEBE03-9AB7-4E04-894D-4F686A7231C4";
shapes = (
{
closed = 1;
nodes = (
(466,-13,o),
(513,338,o),
(513,441,cs),
(513,563,o),
(466,635,o),
(371,654,c),
(379,641,l),
(567,641,l),
(550,558,l),
(596,558,l),
(642,773,l),
(595,773,l),
(578,690,l),
(345,690,l),
(334,639,l),
(424,619,o),
(457,561,o),
(457,455,cs),
(457,377,o),
(419,44,o),
(223,44,cs),
(127,44,o),
(95,113,o),
(125,252,cs),
(217,690,l),
(156,690,l),
(65,260,ls),
(27,82,o),
(81,-13,o),
(217,-13,cs)
);
}
);
width = 561;
}
);
metricLeft = "te-canadian";
note = uni1628;
unicode = 5672;
},
{
color = 9;
glyphname = "dloCarrier-canadian";
lastChange = "2023-01-13 15:56:17 +0000";
layers = (
{
layerId = "A0BEBE03-9AB7-4E04-894D-4F686A7231C4";
shapes = (
{
closed = 1;
nodes = (
(461,-83,l),
(506,131,l),
(459,131,l),
(441,48,l),
(280,48,l),
(240,37,l),
(426,42,o),
(526,305,o),
(526,484,cs),
(526,623,o),
(460,702,o),
(336,702,cs),
(215,702,o),
(143,630,o),
(110,473,cs),
(9,0,l),
(71,0,l),
(170,469,ls),
(196,589,o),
(248,645,o),
(335,645,cs),
(420,645,o),
(463,588,o),
(463,482,cs),
(463,365,o),
(412,70,o),
(210,50,c),
(199,0,l),
(432,0,l),
(414,-83,l)
);
}
);
width = 562;
}
);
metricLeft = "te-canadian";
metricRight = "dluCarrier-canadian";
note = uni1629;
unicode = 5673;
},
{
color = 9;
glyphname = "dleCarrier-canadian";
lastChange = "2023-01-13 15:56:15 +0000";
layers = (
{
anchors = (
{
name = middle_center_can;
pos = (295,345);
}
);
layerId = "A0BEBE03-9AB7-4E04-894D-4F686A7231C4";
shapes = (
{
closed = 1;
nodes = (
(169,0,ls),
(449,0,o),
(520,296,o),
(520,466,cs),
(520,616,o),
(465,702,o),
(370,702,cs),
(288,702,o),
(213,634,o),
(170,509,c),
(176,509,l),
(216,704,l),
(277,704,l),
(287,750,l),
(120,750,l),
(110,704,l),
(170,704,l),
(102,385,l),
(154,385,l),
(189,547,o),
(264,644,o),
(351,644,cs),
(422,644,o),
(458,582,o),
(458,461,cs),
(458,327,o),
(403,57,o),
(170,57,cs),
(32,57,l),
(20,0,l)
);
}
);
width = 533;
}
);
metricRight = "theCarrier-canadian";
note = uni162A;
unicode = 5674;
},
{
color = 9;
glyphname = "dlaCarrier-canadian";
lastChange = "2023-01-13 15:56:17 +0000";
layers = (
{
layerId = "A0BEBE03-9AB7-4E04-894D-4F686A7231C4";
shapes = (
{
closed = 1;
nodes = (
(412,0,l),
(425,57,l),
(302,57,ls),
(181,57,o),
(121,111,o),
(121,232,cs),
(121,357,o),
(187,644,o),
(342,644,cs),
(432,644,o),
(469,544,o),
(443,385,c),
(495,385,l),
(562,704,l),
(621,704,l),
(632,750,l),
(466,750,l),
(455,704,l),
(516,704,l),
(470,491,l),
(478,489,l),
(487,625,o),
(429,702,o),
(339,702,cs),
(144,702,o),
(59,385,o),
(59,231,cs),
(59,78,o),
(138,0,o),
(291,0,cs)
);
}
);
width = 534;
}
);
metricLeft = "=|theCarrier-canadian";
metricRight = "=|dleCarrier-canadian";
note = uni162D;
unicode = 5677;
},
{
color = 9;
glyphname = "lhuCarrier-canadian";
lastChange = "2023-01-13 15:56:15 +0000";
layers = (
{
layerId = "A0BEBE03-9AB7-4E04-894D-4F686A7231C4";
shapes = (
{
closed = 1;
nodes = (
(470,-13,o),
(534,280,o),
(534,440,cs),
(534,549,o),
(500,628,o),
(436,658,c),
(451,639,l),
(598,639,l),
(610,690,l),
(420,690,l),
(410,639,l),
(455,620,o),
(478,559,o),
(478,472,cs),
(478,339,o),
(431,44,o),
(248,44,cs),
(163,44,o),
(123,99,o),
(123,207,cs),
(123,325,o),
(176,592,o),
(322,639,c),
(333,690,l),
(144,690,l),
(132,639,l),
(279,639,l),
(302,663,l),
(128,611,o),
(60,348,o),
(60,205,cs),
(60,66,o),
(123,-13,o),
(245,-13,cs)
);
}
);
width = 559;
}
);
metricLeft = "luCarrier-canadian";
metricRight = "=|";
note = uni162E;
unicode = 5678;
},
{
color = 9;
glyphname = "lhoCarrier-canadian";
lastChange = "2023-01-13 15:56:15 +0000";
layers = (
{
layerId = "A0BEBE03-9AB7-4E04-894D-4F686A7231C4";
shapes = (
{
closed = 1;
nodes = (
(185,0,l),
(196,50,l),
(150,70,o),
(127,130,o),
(127,217,cs),
(127,351,o),
(175,645,o),
(357,645,cs),
(441,645,o),
(483,590,o),
(483,483,cs),
(483,365,o),
(430,98,o),
(283,50,c),
(272,0,l),
(462,0,l),
(472,51,l),
(327,51,l),
(303,27,l),
(477,79,o),
(546,342,o),
(546,485,cs),
(546,624,o),
(482,702,o),
(360,702,cs),
(135,702,o),
(71,410,o),
(71,250,cs),
(71,141,o),
(105,62,o),
(170,32,c),
(155,51,l),
(8,51,l),
(-4,0,l)
);
}
);
width = 558;
}
);
metricLeft = "luCarrier-canadian";
metricRight = "=|";
note = uni162F;
unicode = 5679;
},
{
color = 9;
glyphname = "lheCarrier-canadian";
lastChange = "2023-01-13 15:56:17 +0000";
layers = (
{
anchors = (
{
name = middle_center_can;
pos = (297,345);
}
);
layerId = "A0BEBE03-9AB7-4E04-894D-4F686A7231C4";
shapes = (
{
closed = 1;
nodes = (
(453,-13,o),
(530,298,o),
(530,469,cs),
(530,615,o),
(470,702,o),
(363,702,cs),
(280,702,o),
(218,650,o),
(180,549,c),
(184,547,l),
(214,690,l),
(159,690,l),
(101,419,l),
(154,419,l),
(191,573,o),
(254,644,o),
(343,644,cs),
(426,644,o),
(470,582,o),
(470,470,cs),
(470,339,o),
(413,45,o),
(237,45,cs),
(140,45,o),
(95,132,o),
(122,270,c),
(70,270,l),
(13,0,l),
(68,0,l),
(104,179,l),
(96,179,l),
(88,62,o),
(146,-13,o),
(247,-13,cs)
);
}
);
width = 544;
}
);
metricLeft = "nunavuth-canadian";
metricRight = "theCarrier-canadian";
note = uni1630;
unicode = 5680;
},
{
color = 9;
glyphname = "lhaCarrier-canadian";
lastChange = "2023-01-13 15:56:17 +0000";
layers = (
{
layerId = "A0BEBE03-9AB7-4E04-894D-4F686A7231C4";
shapes = (
{
closed = 1;
nodes = (
(310,-13,o),
(372,40,o),
(410,141,c),
(407,143,l),
(376,0,l),
(431,0,l),
(489,270,l),
(437,270,l),
(399,117,o),
(336,45,o),
(246,45,cs),
(163,45,o),
(121,107,o),
(121,219,cs),
(121,351,o),
(177,644,o),
(354,644,cs),
(450,644,o),
(496,557,o),
(469,419,c),
(521,419,l),
(578,690,l),
(523,690,l),
(485,511,l),
(494,511,l),
(502,628,o),
(444,702,o),
(345,702,cs),
(137,702,o),
(60,391,o),
(60,220,cs),
(60,74,o),
(120,-13,o),
(227,-13,cs)
);
}
);
width = 544;
}
);
metricLeft = "=|theCarrier-canadian";
metricRight = "nunavuth-canadian";
note = uni1633;
unicode = 5683;
},
{
color = 9;
glyphname = "tlhuCarrier-canadian";
lastChange = "2023-01-13 15:56:15 +0000";
layers = (
{
layerId = "A0BEBE03-9AB7-4E04-894D-4F686A7231C4";
shapes = (
{
closed = 1;
nodes = (
(470,-13,o),
(534,280,o),
(534,440,cs),
(534,544,o),
(508,624,o),
(442,658,c),
(439,641,l),
(589,641,l),
(572,558,l),
(618,558,l),
(664,773,l),
(617,773,l),
(599,690,l),
(420,690,l),
(410,639,l),
(455,620,o),
(478,559,o),
(478,472,cs),
(478,339,o),
(431,44,o),
(248,44,cs),
(163,44,o),
(123,99,o),
(123,207,cs),
(123,325,o),
(176,592,o),
(322,639,c),
(333,690,l),
(144,690,l),
(132,639,l),
(289,639,l),
(281,655,l),
(122,593,o),
(60,342,o),
(60,205,cs),
(60,66,o),
(123,-13,o),
(245,-13,cs)
);
}
);
width = 582;
}
);
metricLeft = "lhuCarrier-canadian";
note = uni1634;
unicode = 5684;
},
{
color = 9;
glyphname = "tlhoCarrier-canadian";
lastChange = "2023-01-13 15:56:17 +0000";
layers = (
{
layerId = "A0BEBE03-9AB7-4E04-894D-4F686A7231C4";
shapes = (
{
closed = 1;
nodes = (
(11,-83,l),
(29,0,l),
(208,0,l),
(219,50,l),
(173,70,o),
(150,130,o),
(150,217,cs),
(150,351,o),
(197,645,o),
(380,645,cs),
(465,645,o),
(506,590,o),
(506,483,cs),
(506,365,o),
(452,98,o),
(306,50,c),
(296,0,l),
(484,0,l),
(496,51,l),
(340,51,l),
(348,35,l),
(506,97,o),
(568,348,o),
(568,485,cs),
(568,624,o),
(505,702,o),
(383,702,cs),
(157,702,o),
(94,410,o),
(94,250,cs),
(94,146,o),
(120,66,o),
(185,32,c),
(189,48,l),
(38,48,l),
(56,131,l),
(10,131,l),
(-36,-83,l)
);
}
);
width = 581;
}
);
metricLeft = "=|tlhuCarrier-canadian";
metricRight = "lhuCarrier-canadian";
note = uni1635;
unicode = 5685;
},
{
color = 9;
glyphname = "tlheCarrier-canadian";
lastChange = "2023-01-13 15:56:17 +0000";
layers = (
{
anchors = (
{
name = middle_center_can;
pos = (303,345);
}
);
layerId = "A0BEBE03-9AB7-4E04-894D-4F686A7231C4";
shapes = (
{
closed = 1;
nodes = (
(460,-13,o),
(539,298,o),
(539,469,cs),
(539,615,o),
(478,702,o),
(371,702,cs),
(277,702,o),
(212,640,o),
(172,528,c),
(184,548,l),
(216,704,l),
(276,704,l),
(286,750,l),
(120,750,l),
(110,704,l),
(170,704,l),
(109,419,l),
(160,419,l),
(198,573,o),
(262,644,o),
(351,644,cs),
(434,644,o),
(478,582,o),
(478,470,cs),
(478,339,o),
(421,45,o),
(244,45,cs),
(147,45,o),
(102,132,o),
(128,270,c),
(77,270,l),
(20,0,l),
(74,0,l),
(112,179,l),
(103,179,l),
(96,62,o),
(153,-13,o),
(255,-13,cs)
);
}
);
width = 552;
}
);
metricLeft = "dleCarrier-canadian";
metricRight = "theCarrier-canadian";
note = uni1636;
unicode = 5686;
},
{
color = 9;
glyphname = "tlhaCarrier-canadian";
lastChange = "2023-01-13 15:56:15 +0000";
layers = (
{
layerId = "A0BEBE03-9AB7-4E04-894D-4F686A7231C4";
shapes = (
{
closed = 1;
nodes = (
(310,-13,o),
(372,40,o),
(411,141,c),
(407,143,l),
(377,0,l),
(431,0,l),
(489,270,l),
(438,270,l),
(400,117,o),
(336,45,o),
(246,45,cs),
(163,45,o),
(121,107,o),
(121,219,cs),
(121,351,o),
(177,644,o),
(354,644,cs),
(451,644,o),
(496,557,o),
(469,419,c),
(521,419,l),
(582,704,l),
(640,704,l),
(651,750,l),
(485,750,l),
(475,704,l),
(535,704,l),
(493,506,l),
(501,505,l),
(509,631,o),
(445,702,o),
(345,702,cs),
(137,702,o),
(60,391,o),
(60,220,cs),
(60,74,o),
(120,-13,o),
(227,-13,cs)
);
}
);
width = 553;
}
);
metricLeft = "=|theCarrier-canadian";
metricRight = "=|dleCarrier-canadian";
note = uni1639;
unicode = 5689;
},
{
color = 9;
glyphname = "tluCarrier-canadian";
lastChange = "2023-01-13 15:56:17 +0000";
layers = (
{
layerId = "A0BEBE03-9AB7-4E04-894D-4F686A7231C4";
shapes = (
{
closed = 1;
nodes = (
(228,-13,o),
(271,24,o),
(307,108,c),
(290,109,l),
(294,31,o),
(330,-13,o),
(397,-13,cs),
(569,-13,o),
(625,329,o),
(625,465,cs),
(625,564,o),
(595,623,o),
(537,650,c),
(523,641,l),
(676,641,l),
(659,558,l),
(705,558,l),
(751,773,l),
(703,773,l),
(686,690,l),
(465,690,l),
(454,639,l),
(531,636,o),
(568,589,o),
(568,481,cs),
(568,368,o),
(517,44,o),
(397,44,cs),
(340,44,o),
(322,93,o),
(342,186,cs),
(366,298,l),
(308,298,l),
(284,185,ls),
(264,90,o),
(229,44,o),
(177,44,cs),
(131,44,o),
(111,73,o),
(111,156,cs),
(111,221,o),
(155,644,o),
(365,639,c),
(376,690,l),
(145,690,l),
(133,639,l),
(283,639,l),
(272,647,l),
(108,588,o),
(50,286,o),
(50,149,cs),
(50,42,o),
(90,-13,o),
(166,-13,cs)
);
}
);
width = 669;
}
);
metricRight = "tlhuCarrier-canadian";
note = uni163A;
unicode = 5690;
},
{
color = 1;
glyphname = "tloCarrier-canadian";
lastChange = "2023-01-13 15:56:15 +0000";
layers = (
{
layerId = "A0BEBE03-9AB7-4E04-894D-4F686A7231C4";
shapes = (
{
closed = 1;
nodes = (
(568,-83,l),
(613,131,l),
(567,131,l),
(549,48,l),
(407,48,l),
(415,40,l),
(585,98,o),
(642,403,o),
(642,541,cs),
(642,648,o),
(604,702,o),
(527,702,cs),
(466,702,o),
(422,666,o),
(386,582,c),
(404,582,l),
(400,659,o),
(363,702,o),
(297,702,cs),
(125,702,o),
(69,360,o),
(69,225,cs),
(69,129,o),
(98,71,o),
(153,43,c),
(167,51,l),
(8,51,l),
(-3,0,l),
(229,0,l),
(240,50,l),
(162,54,o),
(126,100,o),
(126,209,cs),
(126,322,o),
(177,645,o),
(296,645,cs),
(354,645,o),
(371,597,o),
(352,503,cs),
(327,391,l),
(385,391,l),
(410,504,ls),
(430,600,o),
(465,645,o),
(517,645,cs),
(562,645,o),
(582,616,o),
(582,534,cs),
(582,469,o),
(539,45,o),
(328,50,c),
(318,0,l),
(539,0,l),
(522,-83,l)
);
}
);
width = 668;
}
);
metricLeft = "tluCarrier-canadian";
metricRight = "tlhuCarrier-canadian";
note = uni163B;
unicode = 5691;
},
{
color = 9;
glyphname = "tleCarrier-canadian";
lastChange = "2023-01-13 15:56:15 +0000";
layers = (
{
anchors = (
{
name = middle_center_can;
pos = (244,345);
}
);
layerId = "A0BEBE03-9AB7-4E04-894D-4F686A7231C4";
shapes = (
{
closed = 1;
nodes = (
(404,-13,o),
(487,89,o),
(487,217,cs),
(487,292,o),
(448,345,o),
(384,352,c),
(382,336,l),
(490,342,o),
(557,444,o),
(557,541,cs),
(557,636,o),
(493,702,o),
(390,702,cs),
(291,702,o),
(210,639,o),
(173,528,c),
(180,528,l),
(216,704,l),
(277,704,l),
(287,750,l),
(120,750,l),
(110,704,l),
(170,704,l),
(109,419,l),
(159,419,l),
(195,571,o),
(266,646,o),
(370,646,cs),
(448,646,o),
(495,600,o),
(495,529,cs),
(495,445,o),
(442,371,o),
(355,371,cs),
(324,371,l),
(312,319,l),
(342,319,ls),
(396,319,o),
(429,283,o),
(429,222,cs),
(429,123,o),
(372,43,o),
(262,43,cs),
(147,43,o),
(99,125,o),
(128,270,c),
(77,270,l),
(20,0,l),
(75,0,l),
(109,161,l),
(99,162,l),
(93,57,o),
(162,-13,o),
(271,-13,cs)
);
}
);
width = 556;
}
);
metricLeft = "dleCarrier-canadian";
metricRight = "geCarrier-canadian";
note = uni163C;
unicode = 5692;
},
{
color = 9;
glyphname = "tlaCarrier-canadian";
lastChange = "2023-01-13 15:56:17 +0000";
layers = (
{
layerId = "A0BEBE03-9AB7-4E04-894D-4F686A7231C4";
shapes = (
{
closed = 1;
nodes = (
(302,-13,o),
(378,41,o),
(417,131,c),
(412,142,l),
(382,0,l),
(437,0,l),
(495,270,l),
(443,270,l),
(409,119,o),
(338,43,o),
(233,43,cs),
(155,43,o),
(108,90,o),
(108,160,cs),
(108,244,o),
(160,319,o),
(248,319,cs),
(280,319,l),
(291,371,l),
(261,371,ls),
(207,371,o),
(174,407,o),
(174,468,cs),
(174,567,o),
(231,646,o),
(342,646,cs),
(455,646,o),
(503,565,o),
(474,419,c),
(526,419,l),
(585,704,l),
(645,704,l),
(655,750,l),
(488,750,l),
(478,704,l),
(539,704,l),
(500,525,l),
(505,531,l),
(512,635,o),
(442,702,o),
(332,702,cs),
(199,702,o),
(116,601,o),
(116,472,cs),
(116,405,o),
(148,355,o),
(200,341,c),
(204,351,l),
(106,336,o),
(46,240,o),
(46,149,cs),
(46,54,o),
(110,-13,o),
(213,-13,cs)
);
}
);
width = 557;
}
);
metricLeft = "=|geCarrier-canadian";
metricRight = "=|dleCarrier-canadian";
note = uni163F;
unicode = 5695;
},
{
color = 9;
glyphname = "zuCarrier-canadian";
lastChange = "2023-01-13 15:56:15 +0000";
layers = (
{
layerId = "A0BEBE03-9AB7-4E04-894D-4F686A7231C4";
shapes = (
{
closed = 1;
nodes = (
(439,-13,o),
(509,142,o),
(509,316,cs),
(509,384,o),
(498,468,o),
(498,532,cs),
(498,599,o),
(521,637,o),
(579,637,cs),
(597,637,l),
(609,690,l),
(573,690,ls),
(480,690,o),
(440,636,o),
(440,528,cs),
(440,466,o),
(450,389,o),
(450,315,cs),
(450,177,o),
(402,45,o),
(249,45,cs),
(157,45,o),
(106,95,o),
(106,177,cs),
(106,320,o),
(263,506,o),
(263,610,cs),
(263,660,o),
(231,690,o),
(176,690,cs),
(142,690,l),
(130,637,l),
(157,637,ls),
(188,637,o),
(203,623,o),
(203,598,cs),
(203,515,o),
(43,330,o),
(43,171,cs),
(43,61,o),
(119,-13,o),
(242,-13,cs)
);
}
);
width = 557;
}
);
metricRight = "=|";
note = uni1640;
unicode = 5696;
},
{
color = 9;
glyphname = "zoCarrier-canadian";
lastChange = "2023-01-13 15:56:15 +0000";
layers = (
{
layerId = "A0BEBE03-9AB7-4E04-894D-4F686A7231C4";
shapes = (
{
closed = 1;
nodes = (
(31,0,ls),
(124,0,o),
(163,54,o),
(163,161,cs),
(163,224,o),
(154,300,o),
(154,375,cs),
(154,513,o),
(203,644,o),
(355,644,cs),
(446,644,o),
(498,595,o),
(498,513,cs),
(498,370,o),
(341,184,o),
(341,80,cs),
(341,30,o),
(373,0,o),
(429,0,cs),
(463,0,l),
(473,53,l),
(446,53,ls),
(415,53,o),
(401,67,o),
(401,92,cs),
(401,175,o),
(561,359,o),
(561,519,cs),
(561,629,o),
(485,702,o),
(362,702,cs),
(166,702,o),
(96,548,o),
(96,374,cs),
(96,306,o),
(106,222,o),
(106,157,cs),
(106,91,o),
(84,53,o),
(25,53,cs),
(7,53,l),
(-5,0,l)
);
}
);
width = 558;
}
);
metricLeft = "zuCarrier-canadian";
metricRight = "zuCarrier-canadian";
note = uni1641;
unicode = 5697;
},
